<?xml version="1.0" encoding="utf-8"?>
<!-- Generator: Adobe Illustrator 23.0.3, SVG Export Plug-In . SVG Version: 6.00 Build 0)  -->
<svg version="1.1" id="Layer_1" xmlns="http://www.w3.org/2000/svg" xmlns:xlink="http://www.w3.org/1999/xlink" x="0px" y="0px"
	 viewBox="0 0 1121.3 851.8" style="enable-background:new 0 0 1121.3 851.8;" xml:space="preserve">
<style type="text/css">
	.st0{fill:none;}
	.st1{fill:#3BB6D5;}
	.st2{fill:#339CB6;}
	.st3{fill:#E4EFFF;}
	.st4{fill:#AEBDDC;}
	.st5{fill:#E9D6B8;}
	.st6{fill:#194866;}
	.st7{fill:#CFD9E8;}
	.st8{fill:#161711;}
	.st9{fill:#163F59;}
	.st10{fill:#E4EEF3;}
	.st11{fill:#8DCFFF;}
	.st12{fill:#3DC7C9;}
	.st13{fill:#B6C2C9;}
	.st14{fill:#EECA48;}
	.st15{fill:#B7BEC0;}
	.st16{fill:#969C9E;}
	.st17{fill:#7EC8EF;}
	.st18{fill:#FBD260;}
	.st19{fill:#D1DBEA;}
	.st20{fill:#B0BFDE;}
	.st21{fill:#FEC12F;}
	.st22{fill:#FEB04C;}
	.st23{fill:#FFFFFF;}
	.st24{fill:#E2C59C;}
	.st25{fill:#F8C44F;}
	.st26{fill:#DCE5EA;}
	.st27{fill:#484F59;}
	.st28{fill:#A69FAF;}
	.st29{fill:#C4C5C7;}
	.st30{fill:#3196B0;}
	.st31{fill:#B4C0C7;}
	.st32{fill:#D6E3EB;}
	.st33{fill:#8599A4;}
	.st34{fill:#D7DFE2;}
	.st35{fill:#06597D;}
	.st36{fill:#01284C;}
	.st37{fill:#BCD0E2;}
	.st38{fill:url(#SVGID_1_);}
	.st39{opacity:0.2;fill:#06597D;enable-background:new    ;}
	.st40{fill:#E2B348;}
	.st41{fill:#CBA141;}
	.st42{fill:#1386B7;}
	.st43{fill:#D8E8ED;}
	.st44{fill:#3096AF;}
	.st45{fill:#F4DA80;}
	.st46{fill:#FFAB01;}
	.st47{fill:#3D7AA8;}
	.st48{fill:#34688F;}
	.st49{fill:#282723;}
	.st50{fill:#AD5C49;}
	.st51{fill:#CDD5D7;}
</style>
<line class="st0" x1="2643.4" y1="3199.9" x2="2350.4" y2="1131.8"/>
<line class="st0" x1="1771.6" y1="-879.9" x2="1771.6" y2="1824.3"/>
<g>
	<g>
		<path class="st1" d="M561.1,176.8l8.6-34.2l-17.3-8.5c0-5-0.3-10.1-0.9-15.1l17-9l-9.6-33.9l-21.3,1.4c-2.2-3.9-4.7-7.6-7.3-11.2
			l11.2-17.9l-25.3-24.5l-18.9,12.7c-3.5-2.1-7.1-4-10.8-5.6l0.8-22.3L453,0l-10.2,20.7c-4-0.1-8,0-12,0.3L420.2,1.2l-33.9,9.6
			l1.5,22.4c-3.8,1.9-7.4,4.1-10.9,6.4l-18.3-11.4l-24.5,25.3L345.8,71c-2.6,3.9-5,8-7.1,12.3l-19.8-0.7l-8.6,34.2l16.9,8.3
			c-0.4,5.3-0.4,10.7,0,16.1l-15.6,8.3l9.7,33.9l16.7-1.1c2.6,5.5,5.6,10.6,9,15.5l-8.3,13.3l25.3,24.5l12.8-8.5
			c5.3,3.6,10.9,6.7,16.7,9.3l-0.5,14.5l34.2,8.6l6.6-13.3c6.4,0.3,12.9,0.1,19.4-0.6l6.8,12.7l33.9-9.6l-1-15.5
			c5.6-2.9,10.8-6.3,15.7-10.1l13.1,8.2l24.5-25.3l-9.6-14.3c2.9-4.9,5.5-10,7.7-15.2L561.1,176.8z M452.8,179.9
			c-25.7,7.3-52.4-7.6-59.7-33.2c-7.3-25.7,7.6-52.4,33.2-59.7s52.4,7.6,59.7,33.2C493.3,145.9,478.5,172.6,452.8,179.9z"/>
		<path class="st2" d="M419.1,61.6c-39.7,11.3-62.7,52.6-51.4,92.3c11.3,39.7,52.6,62.7,92.3,51.4c39.7-11.3,62.7-52.6,51.4-92.3
			C500.1,73.3,458.8,50.3,419.1,61.6z M455.8,190.4c-31.4,9-64.2-9.3-73.1-40.7c-9-31.4,9.3-64.2,40.7-73.1
			c31.5-9,64.2,9.3,73.1,40.7C505.5,148.7,487.2,181.4,455.8,190.4z"/>
	</g>
	<g>
		<g>
			<path class="st1" d="M766.7,53.2c1.5,0,0.9-2,3-1.5c2.8,0.9,4.3,3.1,8.2,2.9c2.5-1.7-3.6-3.3-1.5-4.4c1.1,0.4,1.9,1.1,3,1.5
				c0.6-2.5-0.9-3.1-1.5-4.4c6.2-0.3,4.2-7.7,3-11.7c1.8-0.6,4-0.9,6.7-0.7c-0.2-3.2-4-2.9-6-4.4c2.4,0.4,1.7-2.2,4.5-1.5
				c0.6-2.2-1.3-2.1-0.7-4.4c2.7,0.4,1.8-2.6,4.5-2.2c1.8-0.6,6.4,1.4,6-1.5c0.7-2.6-3.2-0.7-3.8-2.2c-1.8-0.2-1.4-2.5-3.8-2.2
				c-3.2-0.4-6.8,2.7-8.3,1.5c0.5-3.7,6.6-1.9,7.5-5.1c-1.5-2.1-4.9-2.5-9-2.2c-2.5-0.8-5.4-1.9-6.8,0c-0.6-1.1-2.4-1-3.8-1.5
				c-3,1.9-10.3-0.4-13.4,1.5c-3.4,0.1-7.7-0.5-9.1,1.5c0,1.5,2.1,4.7,0.8,5.1c-5.4-0.9-8.5,0.5-13.5-0.8c-7.5,1-11,5.8-18.7,6.6
				c-0.7,2.6,3.4,0.6,3,2.9c-2.2,1.8-6.2,1.7-8.3,3.6c-1.8-0.9-4.2-0.8-5.3,2.2c2.4-0.6,2.3,1.2,3.8,1.5c0-1.9,3.8-1.9,3.8,0
				c1.9-0.4,5.1-3.3,5.3,0.7c-3.2,0.3-7.7-0.7-9.8,0.7c0.7,2.7,3.5,3.4,6,4.4c2.3,0.5,1.4-2,3.8-1.5c2.2,1.5,4.5,2.8,9,2.2
				c-0.6,3.2,0.5,4.8,1.6,6.6c-0.3,1.7-1.2,2.8-0.8,5.1c3,1.4,3.5-3.4,5.3-0.7c0.4,2.6-2.2,2.2-4.5,2.2c0.6,3.3,5.7,2.3,6.7,5.1
				c-1.7,1.2-3.8,2.1-5.3,3.6c2.1,0.9-2.3,1.5-1.4,3.6c5.3,3.5,1.2,11.9,5.2,16.8c1.8,0,3.5,0,5.3,0c2.1,0.1,1.3,3.1,3.8,2.9
				c0.8-1.4,1.3-3.1,3-3.7c-0.9-5.5,3.7-5.6,3-11c2,0,1.1-2.8,3-2.9c2.8,1.5,2.8-1.8,6,0c1.2-1,2.4-2.1,3.8-2.9
				c3.6-0.9,5.2-3.7,9-4.4c0.2-2.6,6.6-3.3,4.5-5.9C771.9,56.3,768.7,53.4,766.7,53.2z M774.2,50.3c-2-1.3,0-4.8,2.2-4.4
				C776,47.7,774.4,48.3,774.2,50.3z M779.4,15.2c-0.1,2.2-1.7,2.7-3,3.6c-2.3-1.4-5.7-1.7-9.7-1.4
				C769.2,14.4,776.2,15.7,779.4,15.2z"/>
			<path class="st1" d="M673.7,26.2c0,1.5,0,2.9,0,4.4c2.3-0.5,2.7,0.8,4.5,0.8c0.4-3.4,4.9-6.5,7.5-5.1c1.2,3.1-3.9,0.1-3.7,2.2
				c2.3,1.1-2.6,1.3-2.3,2.9c2-0.4,2.7,0.3,2.3,2.2c-1.8,0-2.2-1.3-4.5-0.7c0.1,2-2.5,1.4-1.5,4.4c4.5-0.6,7.7-1,9.8,2.2
				c-5.9,1.2-9.8-2.9-13.5-1.5c-0.6,3.5,4.5,1.4,4.5,4.4c5.7-0.8,13.3,3.2,15-2.2c1.9,0.2,3.2-0.3,3-2.2c0.6-2-3.5,0.5-3-1.4
				c1.7,0,3.5,0,5.3,0c-0.1-3.9,4.6-3.4,3.7-8c3.9-0.1,4.2-3.6,9-2.9c0.9-1.7,2.4-3,5.2-2.9c0.9-1.8-1.7-3.5,0-3.7
				c3.1-1.4,7.7,0.8,9-3.6c0-1.2-2.1-0.4-2.2-1.5c-12.3,1.6-29-2.1-42.1,2.9c-1,4.4,3.3,3.7,3.8,6.6c-4.8,0.4-3.3-5.4-9-4.4
				c-0.2,1-1.1,1.4-0.8,3c-1.2,0-2.6-0.1-2.3,1.4C670.7,25.6,673.3,24.8,673.7,26.2z M689.4,39.3c0.4,0.4-0.5,0.9-0.8,0.7
				C688.3,39.7,689.2,39.1,689.4,39.3z"/>
			<path class="st1" d="M858.1,24.7c0.5-2.1,4-1.1,3-4.3c-6.8-1.1-13.4-1.4-19.5-1.5c0,1.3,0.2,2.3,0.8,3
				C847.1,23.3,851,25.6,858.1,24.7z"/>
			<path class="st1" d="M828.9,28.4c-0.1,1.8-1.4,2.3,0,3.7c3.1-0.2,3.2-3.2,6.7-2.9c-0.2,3.3-3.7,3.3-3.8,6.6c1.3,1,2.5,2,5.3,1.5
				c-0.4,2.3,1.6,2.3,3.7,2.2c0.7-2.8,1.4-5.5,2.3-8c2,1.9,3.2,4.8,8.2,3.6c0.7-5.6-3.9-5.9-6-8.8c-0.2,1.7-2-0.8-3-0.8
				c-1.8,0.1-3-0.4-3.7-1.4c1.8-2-0.6-4.3-3.8-3.6c-2.2,1.1,1.2,3.7-0.8,4.4c-1.6-3.5-8.7-6.9-9,0C825.5,26.9,828.4,26.5,828.9,28.4
				z"/>
			<path class="st1" d="M904.6,23.3c0-4.6-7-3-6.7,0.8C900.4,26.3,901.8,23,904.6,23.3z"/>
			<path class="st1" d="M946.6,27.6c5.9-1,12,2.5,13.4-2.2c-1.8-2.8-8.6-4-12.7-2.2C945.7,23.4,947,26.4,946.6,27.6z"/>
			<path class="st1" d="M1098.1,71.4c1.8-0.3,1.4-2.5,3.7-2.2c3.9,0.1,3.4,4.5,8.2,3.6c1-1.3-0.6-3.7,0.8-5.8
				c-2.1-0.9-4.9-4.8-6.8-1.5c0.3-1.7-0.1-2.8-0.8-3.6c-4.1-1.4-6.2-4.7-12.7-3.6c-0.9-1.4-3-1.6-3.8-3c-4.9,0.6-5.9-2.5-11.3-1.5
				c-1,2.1,2.1,3.7,0,4.4c-2.1-0.3-1.8-3.2-3.7-3.7c-2.2,2.3-6.2,0.2-10.5,1.5c-2.8-1.7-2.6-6.3-8.2-5.1c-1.1,0.2-0.3,2.2-1.5,2.2
				c-3.2-1.3-6.2-2.8-9.1-4.4c-0.3,0.7-0.6,1.3-1.5,1.5c0.9-2.9-1.8-2.2-3.8-2.2c1.8-1.7-0.8-1.7-1.5-2.9c-3.6,1.3-3.3-0.4-6.7-0.7
				c-0.2,1-1.9,0.6-3,0.7c-0.7,1.4,2.3,2.4,0,2.9c-6.4-1-14.6,1.3-20.2,0c-1.9-0.4-2.6-2.7-4.5-2.2c-3.4,0.8-5.7-0.7-8.2-1.4
				c-0.9-0.3-2.1,0.2-3,0c-1.9-0.3-3.3-2.3-7.5-1.5c0.2-1.9,2.2-2.2,2.2-4.4c-1-2.1-3.4-2.9-4.5-5.1c-2.3,1-5.8,0.8-9,0.7
				c-1.8-0.6-1.6-3.3-4.4-2.9c-1.8,0.7-2.4,2.5-2.3,5.1c-3.8-1.2-2.4,2.5-5.3,2.2c-1.4-0.3-0.6-2.8-3-2.2c-1.9,2-4.6,3.3-8.9,2.9
				c-1.3,0.9-2,2.5-4.5,2.2c-1.1,0.9-0.4,3.6-2.3,3.6c-1.6,0.5-5.2-1.2-4.5,1.5c0,2.7,4.4,1.1,3.7,4.4c-2.8-0.8-3.5-3.4-7.5-2.9
				c0,1.9,0.4,4.3-1.5,4.4c-0.9-0.8-0.9-2.6-0.8-4.4c-2.9-0.6-1.2,3.2-4.5,2.2c-1.2-1.3-1-3.9-4.5-2.9c-2.1,3.1-5,5.4-7.5,8
				c-4.9,0.4-4.5-1.3-9.7-1.5c-1.2,3.6,3.9,1.1,3,4.4c-3.1-0.7-6.4,0.4-11.2,0c-3.4,1.3-5.2,4.1-9,5.1c0-1.5,0-2.9,0-4.4
				c-1.8,0.1-3.6,0.1-4.5-0.7c0.2,4.1,0,7.8-4.5,7.3c0.2,2.7-2.7,2.2-4.5,2.9c-1.9,1,1.3,2.2-0.8,3c-4.4,0.8-4.6-5.3-4.4-6.6
				c3.4,0,7.3-0.3,9.7,0.7c2-4.6-4.3-6.9-9-7.3c-1.2-1.8-3.2-2.8-6-3c-1-1.7-2.1-3.3-3.7-4.3c-2.3,0-4.5,0-6.8,0
				c-2.1,1.4-3.9,3-5.9,4.3c-0.3-1.1-1,0.3-2.3,0c-2.7,2.8-6.1,4.8-9,7.3c-0.9,3.3-2.4,6-4.5,8c-0.1-0.8-1.4-0.6-2.2-0.7
				c0,0.9,0,1.9,0,2.9c-4.8,0.3-5.3,4.6-6.8,8c1.5,1.7,1.7,4.6,1.5,8c0.8,1.9,4.8,0.8,6,2.2c-1.6,2.1-3,2.9-3,5.1
				c1.6-0.4,1.4,1,1.4,2.2c-2.6,0.1-4.3,1.1-6.7,1.4c-0.7,1.3-2.1,1.9-1.5,4.4c-4.3-1.3-1.7,4.2-5.2,3.7c0.1,0.8-0.2,1.3-0.8,1.4
				c-3.3-0.3-3.9,2-6,2.9c-1.8,0.4-3.8,0.6-3.7,2.9c0.9,1,3.2,0.7,5.2,0.8c-0.3,3.3,3.5,2.5,3,5.8c-0.8,1-0.8,2.7-2.2,2.9
				c-3.5-1.7-6.7,0.6-11.3,0c-0.8,2.4,1.7,7.9-1.5,8.1c0.6,2.1,2.2,3.1,1.5,6.5c3.5-0.7,4.6,1,6.8,1.5c2.8-1.4,3.2-1.4,6,0
				c1.7-2.9,4.3-5.1,3.7-10.2c3.3-0.9,2.8-5.6,6.8-5.8c3.1,1.8,4.5-0.5,7.5-0.7c-2.1,2.8-1,7.4,0,10.9c4.7-0.4,1.8-4.1,2.3-8.1
				c-0.8,0-1-1.3,0-1.4c0,0.5,0,1,0,1.4c1.6,0.2,1.5,2,2.2,2.9c3.7,0.1,5.9,1.5,6.7,4.4c-0.1,1.6-1.9,1.6-3.8,1.5
				c-0.1,2.6,2.7,2.3,3.8,3.6c-0.3-3.2,2.1-3.9,3.8-5.1c0.4-1.6-1.4-1-1.5-2.2c1.4-2.3,2.6,2.5,3.8,0c-2.1-3.8-11.4-4.5-9-10.2
				c2.3,3.3,6.5,4.9,9,8c0.4,0.6,1,2.3,1.4,2.9c0.6,0.9,1.8,1.7,1.6,2.9c0,1.4,0,2.9,0,4.3c1,1,3.2,0.7,5.2,0.8
				c1.3-2.5-1.3-6.1,0.8-8.8c0.7,0,1.5,0,2.2,0c-0.8,2.9-0.1,2.7-0.7,5.8c1.7-0.3,1.1,2.1,2.3,2.9c2.7,1.9,7.7,1.3,9.7,0
				c2.3,1.1-1.9,3.8,1.5,3.7c3.1,0.5,0.1-4.7,3.8-3.7c0,1.5,0,2.9,0,4.4c-2.3,1.3-0.7,6.2-3.8,6.5c-5.5-1.9-12.3-2.6-19.5-2.9
				c-2.2,0.6-1.8,3.6-3.8,4.4c-3.4-3.5-10.3-3.6-13.5-7.3c0.6-2.5-0.9-3.1-1.5-4.4c1.8-0.2,1.7-2,0.8-2.9c-4.5,0-8.1,0.8-11.2,2.2
				c-6.1-0.3-11.4,0.1-14.3,2.9c-0.7-1.5-2.1-2.2-4.5-2.2c-0.6,2.6-3.3,3.1-5.3,4.4c-2,3.4-1.3,7.9-3,10.9c-1.2,1.9-5.1,3.9-6.8,5.9
				c-0.1,4.2-1.9,7-3.8,9.5c0,6.3,0,12.6,0,19c2.6,2.9,4.8,6,6.1,10.2c3.4,2,5.7,5.1,10.5,5.9c3-0.7,6.6-0.9,10.5-0.7
				c1.5-1.2,1.5-3.9,4.5-3.7c1.4,0.1,0.4,2.5,1.5,2.9c3.5-0.5,4.8,1.2,7.5,1.5c1.3-0.7,1.9-2,4.5-1.5c0.8,5.6-1.6,8.2-1.5,13.2
				c2.2,3.7,5.8,6.5,4.5,11.6c2,2.5,2.2,6.7,3,10.2c-1.9,3.3-1.4,8.8-3,12.4c3.2,3,5.6,6.8,6.8,11.7c0,2.2,0,4.4,0,6.6
				c3.3,3.8,3.3,10.9,6.7,14.6c7.2-0.5,10.8-4.5,17.2-5.8c1.2-4,3.5-6.9,6.8-8.8c-0.4-2.8,1.4-3.6,0.8-6.6c1.3-0.6,1.9-2,4.5-1.4
				c0.1-8.4,3.2-13.9,9-16.8c1.1-5.9,1.1-14.5,0-20.4c1.6-2.8,2.9-5.9,3.7-9.5c1.8-1.2,3.3-2.6,5.3-3.7c3.6-5,6.8-10.4,10.5-15.3
				c0.6-2.7,1.6-6.5-0.7-8.1c-3.3-0.4-3,2.4-6,2.2c-2.3,0-4.5,0-6.8,0c-0.4-5-4.1-6.7-6.8-9.5c0.6-4.8-4.4-3.9-3-9.5
				c-1.3-1.6-3.6-2.3-4.5-4.4c0.7-2.2-1.1-5.6,0-5.8c1.8,1.2,3.8,5.1,3,6.6c3.2,3.1,5.2,7.1,8.2,10.2c1.8,3,1.5,7.6,5.3,10.2
				c5.2-1.7,8.9-4.9,15-5.8c1.1-0.4,0.2-2.8,1.5-2.9c3.2-0.5,4.6-2.8,7.5-3.6c-0.5-3.2,2.2-3.2,2.3-5.8c-1.3-2.6-5.2-2.8-4.5-7.3
				c-2.8-0.3-4.8,0.2-6,1.4c-0.6-2.7-3.4-3.5-3-7.3c-2.4,0.2-2.2-2.2-3.8-2.9c1.1-0.4,1.9-1.1,3-1.4c4.2,2.5,2.8,10.3,10.5,9.4
				c0.3,1.4,2.1,1.4,1.5,3.7c3.6,0.4,4.2-2.3,7.5-2.2c0.7,0.4,0.8,1.6,2.2,1.4c5.2-0.7,6.5,2.4,9.7,3.6c-1.2-0.2-1.4,0.6-1.5,1.5
				c0.8,1.4,3.4,1,4.5,2.2c-0.4,2.3,1.3,2.6,0.7,5.1c2.3,2.4,3.2,6.1,4.5,9.5c1.5,1.4,3.1,2.8,3.8,5.1c0,1.4,0,2.9,0,4.4
				c0.9,1,3.2,0.7,5.2,0.7c0.9-4.7,3.7-7.6,3-13.9c1.1,0,2,0,3,0c0-0.9,0-1.9,0-2.9c2.9,1.1,1.5-2,3.8-1.4c-0.2-3.4,2.7-3.7,3.8-5.8
				c1.9-1.4,4-2.5,6.7-2.9c1.7,2,1.8,5.6,4.6,6.5c0.3,1.7-1.4,1.6-0.8,3.6c0.9,2.4,6,0.6,7.5,2.2c-1,1.5,0.4,2.1-0.7,4.4
				c1.9,0.8,3.3,2.1,3.7,4.4c-0.3,1.4-2.1,1.3-1.5,3.6c0.3,2.2,2.3,2.6,1.5,5.8c3.7,3.1,7,6.3,11.3,8.8c0.2-4.8-3.5-5.8-3.8-10.3
				c-2.1-1.4-4.1-2.8-5.3-5.1c0.3-2.4-1-6.3,1.5-6.6c1.7,2.1,2.8,4.6,6.1,5.1c0.5,0.7,0.8,1.7,0.7,2.9c7.3-0.9,9.1-7.2,8.3-16
				c-1-0.8-2.8-0.7-3.8-1.5c0.9-3.2-3.6-3-1.5-5.1c2.2-2,1.9,2.4,5.3,1.4c0.5-3.1,4.3-3.1,8.3-2.9c2.4-3.5,5.6-6.2,6.7-10.9
				c1.3,0.2,1.3-0.7,2.3-0.7c1.2-3-0.2-8.4,2.2-10.2c-1.5-0.7-2.2-2.1-2.2-4.4c-1.3-0.9-3-1.5-3-3.7c-0.3-1.7,1.4-1.6,0.7-3.7
				c1.6,0.3,2.4-0.1,2.3-1.5c2.1-0.9-3.4-4.3,1.5-4.3c0.9,2.3,3.5,2.9,4.5,5.1c-0.7,3.8,1.4,4.9,3.8,5.8c4.5-3.2-0.2-11.2,2.2-16.8
				c1.6-1.4,3.8-2.1,6-2.9c1.8-3.4,3.3-7,6-9.5c1-5.9-1.7-11.9,0-16.1c-1,4.2,1.8,4.7,2.3,7.3c0.2,4.5,0.4,8.9,3.8,10.2
				c1.4-1.3-0.7-1.9,0-4.4c2-0.1,1.5,1.2,3,0c0.1-2.3-2-2.5-1.5-5.1c-2.7-0.5-3.4-3-4.5-5.1c-0.3-2.6,0.3-6.1-2.2-6.6
				c-1.6,0.2-0.2,3.3-2.2,3c-1.3-5.4-6.4,3.3-8.3-2.2c0.5-1.7,1.9-2.5,3-3.7c0.9-2.3,0.6-5.7,3-6.6c1.8,1.8,1.4-1.1,3.8-0.7
				c3.5,0.5,6.8,1.9,11.3,1.5c-0.3,1.3,0.6,1.3,1.5,1.4c1-1,3.3-0.7,5.3-0.7c0.3-2.3-1.3-2.6-0.8-5.1c1.6-0.2,1.5-2,3-2.2
				c1.5,0.2,1.5,2,3,2.2c-0.3-1.6,2.3-4,3-2.2c-2.4,4.7-5.9,8.3-6.8,14.6c0.5,1.9,2.1,2.8,3,4.4c0.3,2.8,0.9,5.5,3,6.6
				c1.9-1.8,2.9-4.4,5.3-5.8c-0.7-3.6,2.4-3.1,0.8-5.8c0.2-1.5,2-1.4,2.3-2.9c-1.1-0.9-3.4-0.6-3-2.9c0.7-6.4,5.6-5,11.2-4.4
				c1.1-1.1,1-3.4,2.3-4.4c4.4-0.3,7.7-2.3,10.5-2.2C1101.8,74.1,1098.1,74.6,1098.1,71.4z M846.2,79.5c1.4,1.5,3.4,2.5,5.9,2.9
				c0,2.4,0,4.9,0,7.3c-1.6-0.3,0.4-4.3-3-2.9c-1.7,2.5-0.7,7.7-3,9.5c-2.5,0.2-4.3-0.4-6.1,0c-2.1,0.4-2.5,2.1-4.5,2.2
				c0.2-0.9-2.2-2.5-2.3-0.8c-1.7-0.2-1.7-2,0-2.2c-1.7-1.7-2.9-4-3-7.3c3.8,0.3,2.3,10.3,9,7.3c1.7-2.9,2.8-6.4,4.5-9.5
				c-0.2-1.7-0.9-3-1.5-4.4c0.5-6.9,5.8-9,8.3-13.8c0.9-0.1,1.4,0.1,1.5,0.7C851.5,73.5,845.4,73.2,846.2,79.5z M854.4,84.6
				c0-2.2,2.6-1.8,4.5-2.2C858.9,84.6,856.6,84.5,854.4,84.6z M860.4,56.1c-0.4-0.4,0.6-1,0.7-0.7C861.5,55.8,860.6,56.3,860.4,56.1
				z M873.9,161.2c-0.4-0.4,0.5-1,0.7-0.8C875,160.8,874.1,161.4,873.9,161.2z M874.6,70.7c-0.4-0.3,0.5-0.9,0.7-0.7
				C875.8,70.4,874.8,70.9,874.6,70.7z M930.1,59c-1.4-0.3-3.2-0.2-3-2.2c-2.3-0.1,0.7-3,0,0C927.7,58,930.8,56.7,930.1,59z
				 M976.5,45.9c-0.3-0.3,0.6-0.9,0.8-0.7C977.8,45.6,976.8,46.1,976.5,45.9z M978.9,45.1c-0.4-0.4,0.6-0.9,0.7-0.7
				C980,44.8,979.1,45.4,978.9,45.1z M981.1,43.7c-0.4-0.4,0.6-0.9,0.8-0.7C982.2,43.3,981.3,43.9,981.1,43.7z M1014.8,135.6
				c1.1-1.4,1.7-3.2,4.5-2.9c0.1,1.1-0.3,2.8,0.8,2.9C1019,137.8,1016.8,135,1014.8,135.6z"/>
			<path class="st1" d="M748.6,221.7c-1.3-1.4-2.2,0.3-3.7,0.7c-1.2-2.5-4.1-3.3-6.7-4.4c-1.8,0-3.5,0-5.3,0
				c-1.3-2.1-6.3-0.7-6.8-3.6c-2-0.1-4.4,0.4-4.5-1.5c2.1-3.4-2.2-12.7-9-9.4c-2.4-1.4-4.1-3.4-4.6-6.6c-3.9-1.1-6.7-3.2-10.5-4.4
				c-1,0.2-1.1,1.3-2.2,1.4c-1-2.6-4.7-2.7-5.3-5.8c-2.4-0.6-1.6,1.9-3,2.2c-1.8-0.5-2-2.4-3.8-2.9c-0.7,1.3-1.3,2.5-3.8,2.2
				c-1.1,3-4.1,4.2-6,6.6c0.2-2.4-0.8-3.5-3-3.6c-1.9,0.8-2.8,2.6-5.2,2.9c-1.8-3.6,0.8-7,0-11.7c-1.3-2.5-6.4-1.6-9-2.9
				c0.8-3.2,2.9-4.9,2.3-9.5c-3.6,0.4-3.9,0.4-7.5,0c-1.4,1.6-0.7,5.1-3,5.8c-10,0.5-3.8-12.5-6-18.3c2.7-0.6,4.2-2.2,6.7-2.9
				c4.1-0.4,5.1,2.3,9,2.2c0-1-0.2-2,0.7-2.2c3.7,0.2,8.4-0.9,9,2.2c-0.3,4.2,1.7,6.2,5.2,6.6c-0.9-3.8-0.5-4.9,0-7.3
				c-0.9-1.1-2.2-1.8-2.3-3.6c1.3-4.9,4.6-7.7,9.8-8.8c0.7-2.1,0.7-2.2,0-4.4c1.8,0.2,2.9-0.1,3.8-0.8c-1.9-4,2.4-3.1,1.5-8
				c2.5-1,4.9-2,7.5-2.9c0.4-2.3-2.2-1.6-1.5-4.4c2.7-2.2,6.9-3,10.5-4.4c0.6,2-1.5,1.5-1.5,2.9c3-1.2,6.2-2.2,8.2-4.3
				c-1.8-1.2-5.6-0.5-5.3-3.7c0.4-2,2.9-2,4.5-2.9c0.3-1.8-1.3-1.6-0.7-3.7c3.7,2.4,7.9-3.5,10.5-2.2c-1.7,3.9-5.3,6-6.7,10.2
				c2.8,0.5,3.2-1.2,6-0.7c0.1,1.1-0.3,2.8,0.7,2.9c0.8-1.8,2.9,1,5.3,0c-0.4-1.7-1.4-3.8,0-5.1c-2.7-0.3-3.4-2.5-4.5-4.4
				c0.3-4.5,0.3-4.9,0-9.5c-1.4-1.3-1.9-0.1-3.7,0c0.1-3.5-3.4-3.5-3.8-6.5c0.6-0.7,0.8-1.7,0.7-3c-2.8-1.5-1.8-7-5.9-7.3
				c-0.4,1.1,0.8,3.8-0.7,3.7c-1.6-0.4-5,0.9-5.3-0.8c0-2.4,0-4.8,0-7.3c-4.1,1.8-3.3-1.7-6.8-2.2c-2,2-1.6-0.9-3.7-0.7
				c-1.8-0.3-1.6,1.3-3.7,0.7c1.1,7.3-2.1,11.4-0.8,16.8c-1.3,0.2-3.7-2.1-4.5,0c0.7,2.1,2.5,0.5,3,1.5c-2.6,1.6-2.6,5.7-3.8,8.8
				c-1.6-2.3-2-5.8-3-8.8c-1.5-1.5-1.4,0.3-3,0.7c-0.7-2.1-1.1-0.8-3-0.7c-2.2-2.2-4.8-4.1-8.2-5.1c1.2-3.7-2.6-2.3-2.3-5.1
				c1.6,0.3,1.5-1.1,1.5-2.2c2.5-1.3,3.5-3.8,6-5.1c1.7-2.6,2.8-5.6,6.8-5.8c0.1-1.3-0.9-1.5-0.8-2.9c5.1-0.9,7.9-1.6,11.2-2.9
				c-0.1-2.8,0-5.4,0.8-7.3c-0.9-1.1-2.9-1.2-3.7-2.2c3-0.2,5.6,0,6.7,1.4c1.4-2.2,3.6,0.8,6,0c-1.1,3.7,3.4,2,3,5.1
				c-0.7,5.3-8.9,3.5-9.7,8.8c1.2,1.7,4.3,1.6,7.5,1.4c4.7,2,6.5,6.8,12.7,7.3c-1.7-3.8,1.3-3.7,0.8-8c-0.3-1.9-2.2-2.2-2.3-4.4
				c2.8,0.1,3.6,2.3,6,2.9c-0.2-1.9-0.3-3.6,2.3-2.9c-0.6-2.2,0.8-2.7,0.8-4.4c-2.1,0.5-1.4-1.5-2.3-2.2c-2.6-0.4-4.5-1.4-6.8-2.2
				c0.2-1.5,2.1-1.4,2.3-2.9c-0.9-1.7-3.3-2.2-3-5.1c-2.3,0-4.5,0-6.8,0c0.4-2.3-2-1.9-2.2-3.7c-3.2-0.4-5,0.5-7.5,0.7
				c0.4-4.5-5.9-3.1-6.8-0.7c0.4-2.7-0.6-4.3-3-4.4c-3.9,2.3-8.4,9.8-3.7,13.9c1.1,0.4,3.9-0.8,3.7,0.7c-0.8,2.2-2.3,3.5-3.7,5.1
				c-1.9-1.8,1.6-1.6,0.8-4.4c-2.6-1.7-4.9-3.4-6-6.6c-2.9,0.4-2.4-2.5-6-1.5c0.2,1.8-1.4,1.6-0.8,3.6c2.6,1,1.6,6.8,0,8
				c-1.1-0.6-1.6-1.8-1.5-3.6c-3.8-0.5-3.8,2.7-6.8,2.9c-2.8-1.2-5.8-2.1-7.5-4.4c3.4-0.5,4.5,1,7.5,0.7c1.7-1.5-0.3-2.1,0-4.4
				c4.2-0.8,5.8-4.1,9.8-5.1c-1.4-2.3-1.1-4-1.5-5.8c-3.8,0-7.5,0-11.3,0c-1.6,2-5.3,2-6,5.1c-0.4-1.1-1.1-1.8-1.5-2.9
				c-2,0-4.7,0.7-3.8-2.2c5.5,1.1,12.2-2.7,17.2-4.4c0,3.4,6.4,2.6,7.5,0.8c-0.5-1.7-0.7-3.7-1.5-5.1c-4.4,0.6-6.6,3.4-11.3,3.7
				c0-1.5,0-2.9,0-4.4c-4.1-1.4-4.8,3.4-2.2,4.4c-4.3,0.5-6.8-0.8-10.5-0.7c1.1,3.8-3.5,2-3.8,4.3c1.8,1,2.4-0.3,3,0.8
				c-0.4,1-1.6,1.4-3,1.4c-1.2-4.2-7.2-3.8-12.8-3.6c-0.3,3.5-2.3,5.5-4.5,7.3c-0.1,2.3,2,2.5,1.6,5.1c3.7,0.2,5.5-1.4,8.2-2.2
				c-1.5,4,4.1,0.9,4.5,2.9c0.6,2-3.5-0.5-3,1.5c0,3.9,8.2-0.2,6.7,5.1c2.8-1.6,3.7-1.1,6.7,0c0.3,0,0.5,0,0.8,0
				c-0.3-0.8,2.1-2.5,2.2-0.7c-0.1,0.9-1.2,0.8-2.2,0.7c0.2,1.9,3.2,4.1,0,5.1c-0.9-0.2-0.6-1.3-0.8-2.2c-6.6-0.6-10-4.3-18-3.6
				c-2.3-0.7-2.4-3.6-5.2-3.7c-0.3,2.1-2.3,2.6-4.5,2.9c0.2-1.7-0.2-2.8-0.7-3.6c-2.9,0.1-2.9,3.1-6,2.9c-2.8,0.6-3.6-0.9-6-0.7
				c-0.8,0.2-0.5,1.4-1.5,1.4c-0.7,0-0.6-0.9-0.7-1.4c-1.8,0.2-2.8,1.2-5.3,0.7c-6-3.6-17.5-1.9-24-5.1c-5.6,2.4-12.9,3.1-16.5,3.6
				c-1.7,2.8,1.3,2.9,2.2,5.1c2.8-0.3,4.7,0.3,5.2,2.2c-3-1-2.7,1.3-3.8,2.2c-1.4-0.6-2.1-1.9-3.7-2.2c-2.9,2.8-9.7,1.8-12,5.1
				c4.2-0.2,5.6,2.3,6,5.9c3.9-1.4,6.9,0.2,10.5-0.8c-3.6,6.4-19.3,1.3-18,12.4c2.5,1.8,3.1,2,2.3,5.8c1.3,0.1,1.6-0.9,3-0.8
				c0.1,1.2-0.4,2.8,0.8,3c1.1-2.3,0.3,3,2.2,2.2c1-2.8,4.3-3.5,6.8-1.4c-3.2,2.4-4.4,6.9-8.2,8.8c-3.5,1-4.6,4.3-9.1,4.4
				c0.7,2.3-1.1,2.2-1.4,3.6c3.4,0.4,4.6-1.3,8.2-0.7c0.8-2.1,3.2-2.7,6-2.9c2.8-5,7.7-8.1,12-11.7c0.5,0,1,0,1.5,0
				c0.8-0.7,0.2-2.7,2.3-2.2c0-0.5,0.1-0.9,0.7-0.7c0,0.4-0.1,0.9-0.7,0.7c0.3,3.3-2.1,3.8-3.1,5.8c6.2,0.7,7.7-3.2,12.8-3.7
				c0.4-3.3-0.3-5.4-0.8-8c3.5,0.7,3.7-1.8,6.7-1.5c2.1,1.4,3.8,3.1,5.2,5.1c4.8,1.4,8.9,3.6,8.3,10.2c3.7-0.5,0.2-4,3.1-4.4
				c0.2,6.2-0.2,12.8,2.2,16.8c-2.3,1.9-0.8,2.7,0,5.1c0,1.4-2.1,0.9-1.5,2.9c-0.3,8-0.8,13.3,0,21.1c1.9,1.2,3.3,3.1,5.2,4.4
				c2.1,2.8,1.9,7.8,4.5,10.2c-0.9,0.2-0.6,1.3-0.7,2.2c3,1.1,3.8,4.5,5.3,7.3c2.3-0.6,2.1,1.3,4.4,0.7c0.1-3.1-1.5-2.4-1.5-6.5
				c-0.4,0-0.8-0.6,0-0.8c0,0.2,0,0.5,0,0.8c1.6-0.4,1.4,1,1.5,2.1c2.3,1.7,4.4,3.6,6.1,5.9c-0.6,5.1,1.4,7.8,2.9,10.9
				c6.2,1.5,9.9,5.3,17.3,3.6c0.8,1.9,1.8,3.6,3,5.1c2.8-0.6,3.6,0.9,6,0.7c0.7,1.8,2.2,2.7,3.8,3.7c0,0.7,0,1.4,0,2.2
				c4.3,0.4,5.2,4.2,9,5.1c0.7-0.9,0.7-2.7,2.2-2.9c0.2,2.6,1.6,4.3,2.3,6.5c0,1.4-2,0.9-1.5,2.9c0.4,3.7-2.4,4.5-3,7.3
				c-1.5,5.1,3,7.9,0,10.2c1.3,1.4,3.7,1.7,5.2,2.9c-0.6,1.1-2.4,1-3.8,1.4c-0.5,5.9,2.8,8,6.8,9.5c0.3,1.8-1.3,1.6-0.8,3.7
				c2.8,2.1,3.8,6,8.3,6.6c1.4,3.3,3.8,5.6,3.8,10.2c-0.8,1-0.8,2.7-1.5,3.7c1,0.5,1.4,1.6,1.5,2.9c-2.1,3.3,0.9,7.1,0,11.6
				c-4.1,2.4-2.2,10.5-3.8,15.4c1.1,2,3.1-1.3,3.8,0.7c0.7,3.6-2.6,3.4-3.8,5.1c-0.9,2.4,2.4,0.6,1.5,2.9c-1.4,1.8,0.8,3.5-0.8,5.9
				c0.8,5,3.3,7.5,1.5,11.7c2.2,1.8,2,5.8,4.5,7.3c-0.1,1.3,0.9,1.5,0.7,2.9c1.9,0.4,3.1,1.4,4.5,2.2c2.8-0.4,7.7,1.2,8.3-1.4
				c-2-0.5-3.5-1.4-4.5-3c0.5-2.4-3.1-0.9-2.3-3.6c-0.3-3.2,2.1-3.8,2.3-6.6c1.9-0.1,2.9-1,3-2.9c0.3-2.6-2.6-1.8-2.3-4.4
				c1.9-2.3,5.1-9.5,0-10.2c5,1.2,4.8-2.6,6-5.1c4,0.2,5.4-2,8.3-2.9c0.5-3.4-1.2-4.7-1.5-7.3c2,0,4,0,6.1,0c0-0.8,0.8-0.6,1.5-0.8
				c0.4-1.8,0.7-3.8,3-3.6c-0.2-4.1,2.9-5,4.5-7.3c0-1.7,0-3.4,0-5.1c1.4-1.3,2.3-3.1,3.7-4.4c3.6-1,3.6-1,6.8-2.2
				c0.3-4.7,4-8.7,1.5-13.9c1.1-0.6,1.6-1.9,1.5-3.7c1.2,0.3,1.3-0.7,2.3-0.7c0.2-2.4,2.2-3.2,3-5.1c2-1.9-0.1-3.5,2.2-4.4
				c-0.6-2.2,0.8-2.6,0.8-4.4C750.2,225.6,749.4,223.7,748.6,221.7z M714.1,100.6c0.4,0.4-0.6,0.9-0.8,0.7
				C713,101,714,100.4,714.1,100.6z M656.4,43.7c2.3,0.7-0.8,2-0.8,2.9C653.4,45.9,656,44.1,656.4,43.7z M653.4,47.3
				c2.3-0.3,2.7,1.3,5.2,0.7c0,2.9-2.9,3-5.2,3.6C653.4,50.3,653.4,48.8,653.4,47.3z M630.2,48.8c-0.4-0.4,0.5-0.9,0.7-0.7
				C631.3,48.5,630.4,49,630.2,48.8z M614.4,153.9c0.2-0.8,0.7-0.4,0.7,0C615,154.7,614.4,154.3,614.4,153.9z M615.2,155.3
				c1.8,0.2,1.7,2.2,3,2.9C617.2,160.1,614.5,157.5,615.2,155.3z"/>
			<path class="st1" d="M901.6,54.6c-1.1-3.3-4.6-4.3-3.8-9.5c5.3-0.4,7.3-4.1,11.2-5.8c4.7,0.5,7.1-1.3,7.5-5.1c-1.2,0-2.5,0-3.7,0
				c-0.2,0.6-0.1,1.4-0.8,1.4c-5.6,0.6-9.8,2.6-14.2,4.4c0.3,3.8-3.6,3.3-3,7.3c-0.9,1.5-2.8,2.1-3,4.4c2.4,1.5,4.7,3.2,7.5,4.4
				C899.7,55.2,900.3,54.6,901.6,54.6z"/>
			<path class="st1" d="M1026.8,41.5c1.8-1.2,2.7-3.2,4.5-4.4c-2.9-0.4-3.5-3.4-6.1-2.9c-0.3,0-0.7,1.7-1.5,1.4c-1.5,0-3,0-4.5,0
				C1018.3,41,1024.7,39.2,1026.8,41.5z"/>
			<path class="st1" d="M787.6,74.3c0.1-1.9,2.8-1.2,3.8-2.2c0.8-3.7-1.7-4.2-1.5-7.3c-3.3,1-4.4-0.5-7.5,0.7
				c-2.1-0.4-1.9-3-4.5-2.9c0.9,3.5-3,2.4-3,5.1c2.1,0.6,1.9-1,3.7-0.7c-0.4,1.8-2.9,1.6-2.3,4.4c3.7-1,2.9,2.5,5.2,2.9
				C782.3,72.9,786.8,73.6,787.6,74.3z"/>
			<path class="st1" d="M684.9,74.3c-3-0.8-1.1-1.8-3-3.7c-2.3,0.5-2.2-1.3-4.5-0.7c-1.1,1.4-0.4,4.4-3.8,3.7
				c0.1,2.5,2.4,2.9,5.2,2.9C678.7,70.8,684,78.9,684.9,74.3z"/>
			<path class="st1" d="M816.9,100.6c-1-0.8-2.3-1.2-3-2.2c0.9-4.3-5-5-2.3-8.8c-1-0.7-2.2-1.2-3-2.2c1.1-0.6,2.4-1.1,2.3-2.9
				c-2.8-0.3-4.2,0.8-6,1.4c0.6,4-1.2,5.7-0.7,9.5c1.8,1.1,2.8,1.2,3.7,1.5c0.3,2.6-2.5,4-3.7,2.9c-0.6,3.3,0.5,4.9,1.5,6.6
				c-1.3,0.7-4-0.1-3.8,2.2c3.7-0.5,7.6-1,12.1-0.7C814.5,104.8,814.1,102.7,816.9,100.6z"/>
			<path class="st1" d="M796.6,103.6c1.7-0.8,4.5-0.5,6-1.5c-0.8-3.1-0.2-3.2,0-6.6c-1.3,0-2.5,0-3.8,0c-0.1,3.3-1.7,1-3,2.2
				C796,99.8,795.5,102.5,796.6,103.6z"/>
			<path class="st1" d="M1053.8,124.7c1.4,0.1,0.6,2.4,2.3,2.2c1.6-1.8,1.4-5.4,4.5-5.8c-4-0.6-6.4-2.5-10.5-2.9
				c0.6,3.5-0.8,5-0.7,8.1C1051.4,128.1,1051.2,124.3,1053.8,124.7z"/>
			<path class="st1" d="M1036.6,147.3c-0.2,2.6,1.8,3.1,3,4.3c0.5-2.6,2.4-4,4.5-5.1c1,0,1.7,0.4,2.2,0.7c2.5-2.8,7.4-3.1,9.8-5.8
				c-0.2-5.2-1.7-9.1-1.5-14.6c-1,0-2,0-2.9,0c0.8,3.4-0.5,5.1,0.7,8.8c-0.6,0.2-0.9,0.6-0.7,1.4c-2.8,1.1-4.1,2-6.8,4.4
				c-2.6,1.3-7.4,0.6-7.5,4.4c-0.3,2,4.1-0.6,3.8,1.4C1039.6,147.3,1038.1,147.3,1036.6,147.3z"/>
			<path class="st1" d="M853.6,141.5c0.2,2,2.5,0.6,4.4,2.2c0.6-2.7-1.1-3.2-3.7-2.9C854.5,141.3,854.1,141.4,853.6,141.5z"/>
			<path class="st1" d="M1020.8,166.3c1.3,1.1,1.9,2.5,2.3,4.4c3.1-0.1,2.8-3.6,3-6.6C1024.2,162.5,1021.6,164.6,1020.8,166.3z"/>
			<path class="st1" d="M673.7,164.1c0,1,0,1.9,0,2.9c1,0,2,0,3,0C676.6,165.2,675.6,164.2,673.7,164.1z"/>
			<path class="st1" d="M681.9,167.7c0.3-1.6-0.1-2.8-0.8-3.6c-0.8,0-1.5,0-2.3,0C678.7,166.6,679.1,168.3,681.9,167.7z"/>
			<path class="st1" d="M682.6,167c0,1.2,0,2.4,0,3.6c1.6,0.3,2-0.5,3-0.7C685.6,168.1,684.6,167.1,682.6,167z"/>
			<path class="st1" d="M681.2,178.7c2.7-0.4,3.6,0.8,5.3,1.4c0.1-2.1,3.2-1.3,5.3-1.4c-1.1-4.9-5.3-4.2-9.8-4.4
				c0.6-2-1.5-1.5-1.5-2.9c-1.7-0.8-4.1-0.9-4.5-3c-3.8,0-7.5,0-11.2,0c-0.3,1.4-1.6,1.9-1.5,3.7c3.1,0.3,3-2.4,6.7-1.5
				c3.2,0.6,3.6,3.9,6.8,4.4c1.8,0.4,5.4-0.9,6,0.7C679.9,175.8,680.8,176.8,681.2,178.7z"/>
			<path class="st1" d="M688.6,170.6c-0.2-1-1.8-0.6-3-0.7C684,172.6,689.5,173.2,688.6,170.6z"/>
			<path class="st1" d="M1023.8,178.7c1.2,1.8,2.7,3.2,4.5,4.4c0.9-2.3,3.4-2.9,3-6.5C1029.3,173.8,1023.8,175.1,1023.8,178.7z"/>
			<path class="st1" d="M1005.8,180.9c2.1-0.4,2.1-2.8,3-4.4c-0.7-0.6-1.7-0.8-3-0.8C1004.4,178.6,1004.9,176.3,1005.8,180.9z"/>
			<path class="st1" d="M672.9,177.2c0,1,0,2,0,2.9c2.5-0.8,2.6,0.3,5.2-0.7C678.7,176.5,675.3,177.3,672.9,177.2z"/>
			<path class="st1" d="M693.1,180.1c2.7,0.2,5.2,0.2,4.5-2.9c-1.5,0-3,0-4.5,0C693.1,178.2,693.1,179.2,693.1,180.1z"/>
			<path class="st1" d="M771.9,180.1c0,1.4-2.1,0.9-1.5,2.9c1,0,2,0,3,0C773.6,181.4,773.2,180.3,771.9,180.1z"/>
			<path class="st1" d="M1029.8,191.8c1.6,1.6,2.1-0.4,4.6,0c-0.2,1.7-1.6,3.2,0.7,3.7c1.1-2.1,3.2-3.3,6.8-2.9
				c0.7-3.4-2.4-3-3.8-4.4c0.1-2.4-0.9-3.5-3.1-3.6c-1,0.9-0.7,3.2-0.7,5.1C1031.8,188.4,1031.1,190.1,1029.8,191.8z"/>
			<path class="st1" d="M955.6,194c1.1,4.3-2.8,5.2,0,7.3c2.4,0.3,2-2,3.8-2.2C958.7,196.8,957.2,195.4,955.6,194z"/>
			<path class="st1" d="M1005,213.7c0.8,2.9,4,3.4,3.8,7.3c4.9-1.1,4.1,3.3,9,2.2c-0.3-1.7,2.1-0.8,2.2-2.2c-0.6-0.2-1.5,0-1.5-0.7
				c2.5-1,1.3-5.6,3.8-6.6c-1.7-2.4,0.6-4.8-0.8-6.6c1.3-0.7,2.6-1.4,2.2-3.6c-1.8-1.4-3.3-3.2-6.8-3
				C1016.4,208.2,1006.4,206.7,1005,213.7z"/>
			<path class="st1" d="M990.8,208.6c-1.1-1.7-3.5-2.9-2.9-5.1c-2.1,0.5-1.5-1.5-3-1.5c0.2,3.2-1.8-0.1-3.8,0.7
				c0,8.6,10.5,6.8,9.1,16.8c3.7,0.4,4.7,5.2,8.2,3.7c1.7-2.8-1.6-6-1.5-9.5C994.6,212.2,991.9,210.1,990.8,208.6z"/>
			<path class="st1" d="M1032.8,214.4c-0.2-3.3-4.7-2.2-6-4.4c-3.9,3-6.5,11.1-0.8,13.8c-0.1-2.1,0.2-3.7,1.6-4.4
				c1.6,1.4,1.7,3.7,4.5,2.2c-0.4-3-2.9-4-3-7.3C1030.1,215.4,1031.8,215.4,1032.8,214.4z"/>
			<path class="st1" d="M1049.3,211.5c-2.4-1.5-8.4-1.2-8.2,2.2C1043.6,215.3,1049.2,214.5,1049.3,211.5z"/>
			<path class="st1" d="M1057.6,214.4c-1.8,0-3.5,0-5.2,0c-0.7,1.1-1.1,2.3-3,2.2c-2.3,0.6-1.4-2-3.7-1.5c0.2,1.9-3,0.6-2.3,2.9
				c0.1,1.6,1.9-0.9,3.8,0c3.3,2.6,7.7,4.2,10.5,7.3c0,1.5,0,2.9,0,4.4c4-2.4,5.3,1.5,8.3,2.2c2.6-0.1,1.8-3.6,5.2-2.9
				c1.8,1,3.7,5.6,6.7,2.9c-1.6-0.7-2.3-2.2-2.3-4.4c-1.9-1.7-4.7-2.7-6-5.1c0-0.7,0-1.4,0-2.2
				C1063.8,220.1,1062.2,215.8,1057.6,214.4z"/>
			<path class="st1" d="M1017.8,231.2c0.4-2.6-2.7-1.8-2.3-4.4c-6.1,0.2-10.5-1.5-15-2.9c-0.7,1.3-2.1,1.9-1.5,4.4
				C1006.3,228.4,1009.6,232.1,1017.8,231.2z"/>
			<path class="st1" d="M1073.3,259.7c0.3-3.4-1.4-5-0.8-8.8c-1.5-0.5-1.7-2.2-3-2.9c-0.3-5.6-5.4-6.4-4.5-13.1
				c-1.4,0.1-1.6-0.8-2.9-0.7c-1.9,3,0.8,10.5-2.3,12.4c-2.9,0.9-1.5-2.4-4.5-1.5c-0.1-2-3.5-0.9-2.9-3.6c-0.4-2.4,3.6-0.3,2.9-2.9
				c-2.6-2.8-10.3-0.7-14.2-2.2c-1.3,0.4,0,3.4-1.5,3.6c-2.8,0.4-5.3,1.2-7.5,2.2c-1,2.2-0.3,6.1-3,6.6c-1.8-1.7-3.7,0.1-6,0
				c-1.5,0.5,0.2,4.1-1.5,4.4c-1.5-0.4-1.5-2.2-3-0.7c-1.8,1.8-1,6.3-3.8,7.3c-1.7,1-5,0.5-6,2.2c0.7,3.2,2.7,7.3,0.7,10.9
				c1.4,0.5,2,1.9,2.3,3.6c0.4,3.4-1.3,4.5-0.8,8c2.2-0.2,2.3,1.7,4.5,1.5c3.1-1.3,5-3.9,10.5-2.9c2.7-3.2,8-4,14.3-3.6
				c2.2,1.5,3.6,3.9,4.5,6.6c2.9-1.4,2,1.7,5.3,0c0,1.9,0.3,4.2-0.7,5.1c4.8,2.7,7.6,2.9,15,2.9c1.9-1.3,3.3-3.1,6-3.7
				c-0.4-3.7,3.6-3.3,3-7.3c2.5-0.2,2-3.5,4.5-3.6c-0.8-2.6,1.3-4.1,1.5-6.6c0.4-4.4-1.5-9-2.3-13.1
				C1075.2,258.7,1074,261.8,1073.3,259.7z"/>
			<path class="st1" d="M898.6,236.3c-1.3,2.1-2.5,4.4-3,7.3c-3.2,0.7-4.9,2.9-6.7,5.1c-0.6,2.5,1.1,2.8,0.7,5.1
				c-0.7,1.5-1.2,3.3-2.3,4.4c1.6,3.3-0.5,6.2,2.3,8.7c2.4,0.1,3.2-1.3,6-0.7c1.6-3.3,1-4.7,3-8c0-1.3,0-2.4,0-3.7
				c0.1-0.8,0.8-1.1,1.5-1.5c-1.3-3.2,1.4-6.2,1.5-11.6C898.8,241.4,901.7,236,898.6,236.3z"/>
			<path class="st1" d="M1114.5,285.9c0.2-2.1,0.1-4-2.2-3.6c0,1.9,0,3.8,0,5.8c-0.6,2.2-3.6,1.9-3.1,5.1c5.1-0.7,1.7,2.2,1.6,4.4
				c4.7-0.2,4.9-5,6.7-8c1.1-1.1,3.2-1.3,3.8-3C1119.5,284.4,1118.1,286.2,1114.5,285.9z"/>
			<path class="st1" d="M1106.3,294.7c-0.6,1.5-2.3,2.2-2.3,4.4c-1.3-0.1-2.3,0.1-3,0.7c-1.3,1.4-1.8,3.6-3.7,4.4
				c-3.1,1.1-4.1,4.4-5.3,7.3c2.4-1.2,4.1-0.3,6.8,0c0.7-1.7,3-1.9,2.3-5.1c1,0,2,0,3,0c0.2-4.2,5.9-3,6-7.3
				C1109.8,296.6,1107.8,295.9,1106.3,294.7z"/>
			<path class="st1" d="M1055.3,296.9c-0.8,1.1,2.5,4.4,3,6.6c3.6-0.3,6-1.9,5.3-6.6C1060.3,297.4,1056.6,296,1055.3,296.9z"/>
			<path class="st1" d="M715.7,319.5c1,0,1.9,0,2.9,0C719.2,316.6,715.5,317.1,715.7,319.5z"/>
		</g>
	</g>
	<path class="st3" d="M773,658.2c-66,0.6-271.9,47.6-392.8,15.5c-196-52-419.6,3.2-294.6,54.2c34.9,14.2-61.8,107.9,182.3,121.8
		c214.3,12.3,431-32.2,536-51.7c105-19.4,152.8-50.1,174.9-64C998.4,721.9,1003.8,656.2,773,658.2z"/>
	<g>
		<g>
			<path class="st4" d="M671.1,367.5c0,0,6.1,9.1-5,19.5c-19,17.8-43.5,27.6-48.2,29.6c-4.7,2.1-19.1,5.4-24-1
				c-4.8-6.4,10-18.2,10-18.2s16.7-9.2,31.7-18.8C650.6,369.1,671.1,367.5,671.1,367.5z"/>
			<path class="st4" d="M571.3,349.8c0,0,18.4-9.2,19.9-4.6c6.7,20.2,17.1,42,18.2,47.1c1.1,5,1.6,19.8-5.6,23.4
				c-7.2,3.5-15.9-13.3-15.9-13.3s-5.8-18.1-12.3-34.7C569.1,351.1,571.3,349.8,571.3,349.8z"/>
			<g>
				<path class="st5" d="M654.1,367.1c0.4,5.3,3.3,9.9,6.3,10.1c2.8,0,5.7,0,8.6,0c3-0.2,5.9-4.8,6.3-10.1
					c0.7-8.8,1.4-17.5,2.1-26.3c0.5-5.3-1.6-15.8-6.2-18.9c-4.2-2.8-8.9-2.8-13.1,0c-4.6,3.1-6.6,13.7-6.2,18.9
					C652.7,349.5,653.4,358.3,654.1,367.1z"/>
				<path class="st5" d="M719.7,455.4l-22.9,37.2c0,0,34.1-16.4,32.3-31.6C727.4,445.8,719.7,455.4,719.7,455.4z"/>
				<path class="st6" d="M666.7,497.7c0,0-12.8,60.5-26.1,92.6c-11.8,28.4-25.6-8.5-25.6-8.5l21.5-110.1l35.5-2.7
					C672.1,469,674.5,469.9,666.7,497.7z"/>
				<path class="st6" d="M663.8,469.3l-4.4,47.1l6.2,3.6c0,0,3.6,70,4.7,73.5c6.7,20.3,23.9,8.1,26.2,1.3s6.3-56.7,5.5-93.2
					c-0.8-36.5-0.8-36.5-0.8-36.5L663.8,469.3z"/>
				<path class="st7" d="M632.8,381l22.8-11.6l6.1,2.5l17.6-1.9l27.4,9.4c0,0,5.6,7.2,0.6,33.3c-4.9,25.9-5.4,67.7-5.4,67.7l-68.3,4
					C633.7,484.3,624.6,375.3,632.8,381z"/>
				<path class="st7" d="M695.1,380.4c0,0,9.3-8,20,6.8c15.9,22,25.2,47.4,27,52.5c1.8,5.1,4.1,20.3-2.9,24.8
					c-7.1,4.5-7.1,4.5-7.1,4.5l-15.7-9.2l2.7-4.9l1.8-2.3c0,0-8.2-18-17-34.4C695.1,401.8,695.1,380.4,695.1,380.4z"/>
				<polygon class="st4" points="660.7,371.3 665,379.7 678.7,369.7 676,364.9 				"/>
				<polygon class="st4" points="653.3,365.2 659.5,371.3 653.6,378.4 650.2,369.3 				"/>
				<path class="st8" d="M695.3,710.5c0.6,0.8,0.2,3,0.2,3s-10.5,1.4-13.9,0.5c-0.9-0.2-2.4-1.1-3.8-2c-0.2-0.2-0.7-1.1-0.9-1.2
					c-0.4-0.3-0.7,0.2-1-0.1c-0.9-0.7-1.6-1.2-1.6-1.2c-0.9-5.4,0.3-7.6,0.3-7.6s9-3.4,10.7-1.1
					C689.1,706.3,693.9,708.8,695.3,710.5z"/>
				<path class="st8" d="M620.1,698.6l-1.6,8.8H610c0,0-0.5-1.3-1.2-1.3c-0.6,0-1.4,1.3-2.2,1.3c-1.8,0-3.8,0-4.6,0
					c-1.6,0-17.2,0-17.2,0s-0.4-1.9,0.1-2.5c0.3-0.3,1.7-0.9,2.6-1.2c4.4-1.3,17.1-5.4,19.3-9.8
					C609.4,688.5,620.1,698.6,620.1,698.6z"/>
				<path class="st6" d="M671.8,575.1c0,0-2.8,13.2-2.4,38.3c0.3,15.9,1.7,57.9,4.5,89.2c0.2,1.9,14.9,0.5,14.9,0.5
					s9-101.5,9.8-121.2C698.7,575.9,683.5,561.1,671.8,575.1z"/>
				<path class="st6" d="M621,580c0,0,4.6-1.8,17.2,1.8c8.2,2.4-16.8,118.2-16.8,118.2l-18.6-6.8l12.8-114.4L621,580z"/>
				<g>
					<path class="st9" d="M663.4,315.6v-6.1h-2.5h-6.6h-4c-4.4,0-8,3.6-8,8v6.1h2.5h6.6h4C659.9,323.6,663.4,320,663.4,315.6z"/>
					<path class="st5" d="M676,352.6c0,3.9-3.2,7.1-7.1,7.1h-16.2c-3.9,0-7.1-3.2-7.1-7.1v-32.3c0-3.9,3.2-7.1,7.1-7.1h16.2
						c3.9,0,7.1,3.2,7.1,7.1V352.6z"/>
					<path class="st9" d="M663.9,309.5c2.8,0,5.3,1.4,6.7,3.6h2.8c3.4,0,6.2,2.8,6.2,6.2v15.3h-4.4v-6.2c0-2.4-2-4.4-4.4-4.4h-2.6
						h-6.6h-4c-4.4,0-8-3.6-8-8v-6.5L663.9,309.5L663.9,309.5z"/>
					<path class="st5" d="M673.9,338.6c0-2.1,1.7-3.8,3.8-3.8h0.3c2.1,0,3.8,1.7,3.8,3.8v4.6c0,2.1-1.7,3.8-3.8,3.8h-0.3
						c-1.6,0-2.9-0.9-3.5-2.3L673.9,338.6z"/>
				</g>
			</g>
			<g>
				<g>
					<polygon class="st1" points="590.7,378.3 594,369 606.7,693.5 603,693.5 					"/>
					<polygon class="st1" points="604.5,693.5 603,693.5 590.7,378.3 592.1,374.4 					"/>
				</g>
				<polygon class="st1" points="551.4,543.1 606.6,543.1 598.8,342.6 543.5,342.6 				"/>
				<g>
					<polygon class="st7" points="464.6,509 459.6,503.3 441,703.8 446.4,703.8 					"/>
					<polygon class="st4" points="444.2,703.8 446.4,703.8 464.6,509 462.5,506.7 					"/>
				</g>
				<g>
					<polygon class="st7" points="574.3,509 569.4,503.3 550.7,703.8 556.2,703.8 					"/>
					<polygon class="st4" points="553.9,703.8 556.2,703.8 574.3,509 572.3,506.7 					"/>
				</g>
				<polygon class="st3" points="579.5,543.1 447.9,543.1 466.5,342.6 598.2,342.6 				"/>
			</g>
			<g>
				<path class="st5" d="M590.7,342.1c-1.3,1.9-1.1,1.8-1.1,1.8s-2.8-1-5.4,0c-1.3,0.5-5.1,2.7-5.1,2.7l-5.8,3.1l-2.6,1.7
					c0,0-1.4,1-1.9,1c-1.6-0.1-0.9-1.2-0.9-1.2l9.3-7.3l-10.5,4.4c0,0-1.4,0.4-1.9-0.3c-0.4-0.6,0-0.8,0-0.8l10.7-7.8l-5.7,1.7
					c0,0-1.4,0.3-1.9-0.3c-0.5-0.6-0.7-0.8-0.7-0.8l11-5C578.4,335.1,592,340.2,590.7,342.1z"/>
				<path class="st5" d="M575.8,342.4l-7.6,2.7c0,0-1.6,0.8-2.6,0.7c-1.1-0.1-1.1-1.1-1.1-1.1l11-5.2L575.8,342.4z"/>
			</g>
		</g>
		<g>
			<g>
				<g>
					<g>
						<polygon class="st10" points="471.5,467.3 467.4,467.3 463.1,507.8 467.2,507.8 						"/>
						<polygon class="st10" points="477.5,467.3 473.4,467.3 469.2,507.8 473.3,507.8 						"/>
						<polygon class="st10" points="483.6,467.3 479.4,467.3 475.2,507.8 479.3,507.8 						"/>
						<polygon class="st10" points="489.6,467.3 485.5,467.3 481.2,507.8 485.3,507.8 						"/>
						<polygon class="st10" points="495.6,467.3 491.5,467.3 487.3,507.8 491.4,507.8 						"/>
						<polygon class="st10" points="501.7,467.3 497.5,467.3 493.3,507.8 497.4,507.8 						"/>
						<polygon class="st10" points="507.7,467.3 503.6,467.3 499.3,507.8 503.5,507.8 						"/>
						<polygon class="st10" points="513.7,467.3 509.6,467.3 505.4,507.8 509.5,507.8 						"/>
						<polygon class="st10" points="519.8,467.3 515.7,467.3 511.4,507.8 515.5,507.8 						"/>
						<polygon class="st10" points="525.8,467.3 521.7,467.3 517.4,507.8 521.5,507.8 						"/>
						<polygon class="st10" points="531.8,467.3 527.7,467.3 523.5,507.8 527.6,507.8 						"/>
						<polygon class="st10" points="537.9,467.3 533.8,467.3 529.5,507.8 533.6,507.8 						"/>
						<polygon class="st10" points="543.9,467.3 539.8,467.3 535.5,507.8 539.7,507.8 						"/>
						<polygon class="st10" points="550,467.3 545.8,467.3 541.6,507.8 545.7,507.8 						"/>
						<polygon class="st10" points="556,467.3 551.9,467.3 547.6,507.8 551.7,507.8 						"/>
						<polygon class="st10" points="562,467.3 557.9,467.3 553.7,507.8 557.8,507.8 						"/>
						<polygon class="st10" points="568,467.3 563.9,467.3 559.7,507.8 563.8,507.8 						"/>
						<polygon class="st10" points="574.1,467.3 570,467.3 565.7,507.8 569.8,507.8 						"/>
					</g>
					<g>
						<polygon class="st11" points="470.7,474.7 466.6,474.7 463.1,507.8 467.2,507.8 						"/>
						<polygon class="st12" points="476.2,479.6 472.1,479.6 469.2,507.8 473.3,507.8 						"/>
						<polygon class="st13" points="481,492 476.9,492 475.2,507.8 479.3,507.8 						"/>
						<polygon class="st14" points="487.7,485.3 483.6,485.3 481.2,507.8 485.3,507.8 						"/>
						<polygon class="st11" points="492,501.4 487.9,501.4 487.3,507.8 491.4,507.8 						"/>
						<polygon class="st12" points="499.1,491.9 495,491.9 493.3,507.8 497.4,507.8 						"/>
						<polygon class="st13" points="505.7,486.3 501.6,486.3 499.3,507.8 503.5,507.8 						"/>
						<polygon class="st14" points="511.2,491.2 507.1,491.2 505.4,507.8 509.5,507.8 						"/>
						<polygon class="st11" points="519,474.7 514.9,474.7 511.4,507.8 515.5,507.8 						"/>
						<polygon class="st12" points="524.6,478.9 520.5,478.9 517.4,507.8 521.5,507.8 						"/>
						<polygon class="st13" points="531.5,470.8 527.4,470.8 523.5,507.8 527.6,507.8 						"/>
						<polygon class="st14" points="536.1,484.2 532,484.2 529.5,507.8 533.6,507.8 						"/>
						<polygon class="st11" points="543.1,475.4 538.9,475.4 535.5,507.8 539.7,507.8 						"/>
						<polygon class="st12" points="548.5,481.4 544.4,481.4 541.6,507.8 545.7,507.8 						"/>
						<polygon class="st13" points="553.4,491.6 549.3,491.6 547.6,507.8 551.7,507.8 						"/>
						<polygon class="st14" points="558,505.3 553.9,505.3 553.7,507.8 557.8,507.8 						"/>
						<polygon class="st11" points="566.8,479.6 562.6,479.6 559.7,507.8 563.8,507.8 						"/>
						<polygon class="st12" points="573.4,474 569.3,474 565.7,507.8 569.8,507.8 						"/>
					</g>
				</g>
			</g>
		</g>
		<g>
			<polygon class="st15" points="582.1,370.2 475.3,370.2 475.5,368.5 582.3,368.5 			"/>
			<polygon class="st15" points="558.4,373.3 474.9,373.3 475.1,371.6 558.6,371.6 			"/>
			<g>
				<polygon class="st16" points="498.3,415.3 476.5,415.3 476.7,413.6 498.5,413.6 				"/>
				<polygon class="st15" points="491.1,418.4 482.9,418.4 483.1,416.7 491.3,416.7 				"/>
			</g>
			<polygon class="st12" points="526.6,366.1 475.6,366.1 475.9,363.3 527,363.3 			"/>
			<polygon class="st15" points="540,442.5 467.1,442.5 467.3,440.8 540.1,440.8 			"/>
			<polygon class="st15" points="523.8,445.6 466.9,445.6 467,443.9 524,443.9 			"/>
			<polygon class="st12" points="518.6,438.4 467.6,438.4 467.9,435.6 518.9,435.6 			"/>
			<g>
				<g>
					<polygon class="st15" points="482.8,382.7 481.9,380.1 477.8,380.1 477.8,379.8 482,379.8 482.1,379.9 483,382.6 					"/>
				</g>
				<g>
					<polygon class="st15" points="482.6,378.8 477.9,378.8 478,377.8 482.8,377.8 					"/>
				</g>
				<g>
					<polygon class="st15" points="491.2,392.3 492.7,389.7 496.9,389.7 496.9,389.5 492.6,389.5 492.6,389.5 491,392.2 					"/>
				</g>
				<g>
					<polygon class="st15" points="492.3,388.4 497,388.4 497.1,387.4 492.4,387.4 					"/>
				</g>
				<g>
					<polygon class="st15" points="500.7,387.9 502.2,385.3 506.4,385.3 506.4,385.1 502.1,385.1 502.1,385.1 500.5,387.8 					"/>
				</g>
				<g>
					<polygon class="st15" points="501.8,384 506.5,384 506.6,383 501.9,383 					"/>
				</g>
				<polygon class="st17" points="483.5,382.7 486.5,396.6 489.5,410.4 480.2,410.4 470.8,410.4 477.2,396.6 				"/>
				<polygon class="st18" points="490.9,393.2 492.7,401.8 494.6,410.4 488.8,410.4 483,410.4 486.9,401.8 				"/>
				<polygon class="st12" points="500.4,388.7 502.7,399.6 505.1,410.4 497.8,410.4 490.4,410.4 495.4,399.6 				"/>
			</g>
			<g>
				<polygon class="st16" points="537,415.3 515.1,415.3 515.3,413.6 537.2,413.6 				"/>
				<polygon class="st15" points="529.8,418.4 521.6,418.4 521.8,416.7 530,416.7 				"/>
			</g>
			<g>
				<g>
					<g>
						<polygon class="st15" points="529.5,384 528.6,381.4 524.5,381.4 524.6,381.2 528.8,381.2 528.9,381.3 529.8,383.9 						"/>
					</g>
					<g>
						<polygon class="st15" points="529.4,380.1 524.7,380.1 524.8,379.1 529.5,379.1 						"/>
					</g>
				</g>
				<g>
					<g>
						<polygon class="st15" points="521.5,392 520.5,389.4 516.5,389.4 516.5,389.1 520.7,389.1 520.8,389.2 521.7,391.9 						"/>
					</g>
					<g>
						<polygon class="st15" points="521.3,388.1 516.6,388.1 516.7,387.1 521.5,387.1 						"/>
					</g>
				</g>
				<g>
					<g>
						<polygon class="st15" points="538.4,387.8 539.9,385.2 544,385.2 544,384.9 539.8,384.9 539.8,385 538.2,387.7 						"/>
					</g>
					<g>
						<polygon class="st15" points="539.5,383.8 544.2,383.8 544.3,382.8 539.6,382.8 						"/>
					</g>
				</g>
				<polygon class="st17" points="522.1,393.2 524,401.8 525.8,410.4 520,410.4 514.2,410.4 518.2,401.8 				"/>
				<polygon class="st18" points="529.9,384.6 532.7,397.5 535.4,410.4 526.7,410.4 518,410.4 524,397.5 				"/>
				<polygon class="st12" points="537.7,388.7 540,399.6 542.4,410.4 535.1,410.4 527.7,410.4 532.7,399.6 				"/>
			</g>
			<g>
				<polygon class="st16" points="574.6,415.3 552.8,415.3 553,413.6 574.8,413.6 				"/>
				<polygon class="st15" points="567.4,418.4 559.2,418.4 559.4,416.7 567.6,416.7 				"/>
			</g>
			<g>
				<g>
					<g>
						<polygon class="st15" points="557,401.8 556.1,399.2 552,399.2 552,399 556.3,399 556.3,399 557.2,401.7 						"/>
					</g>
					<g>
						<polygon class="st15" points="556.8,397.9 552.1,397.9 552.2,396.9 557,396.9 						"/>
					</g>
				</g>
				<g>
					<g>
						<polygon class="st15" points="573.2,392.3 574.7,389.7 578.8,389.7 578.9,389.5 574.6,389.5 574.5,389.5 573,392.2 						"/>
					</g>
					<g>
						<polygon class="st15" points="574.3,388.4 579,388.4 579.1,387.4 574.4,387.4 						"/>
					</g>
				</g>
				<g>
					<g>
						<polygon class="st15" points="568.3,385.2 569.8,382.6 573.9,382.6 574,382.4 569.7,382.4 569.7,382.4 568.1,385.1 						"/>
					</g>
					<g>
						<polygon class="st15" points="569.4,381.3 574.1,381.3 574.2,380.3 569.5,380.3 						"/>
					</g>
				</g>
				<polygon class="st17" points="557.4,402.6 558.2,406.5 559,410.4 556.4,410.4 553.8,410.4 555.6,406.5 				"/>
				<polygon class="st18" points="567.8,386.1 570.4,398.2 573,410.4 564.8,410.4 556.6,410.4 562.2,398.2 				"/>
				<polygon class="st12" points="572.9,393.2 574.8,401.8 576.6,410.4 570.8,410.4 565,410.4 569,401.8 				"/>
			</g>
		</g>
	</g>
	<g>
		<path class="st19" d="M271.5,278.2c0,58-47,105.1-105.1,105.1c-58.1,0-105.1-47.1-105.1-105.1s47-105.1,105.1-105.1
			C224.4,173.1,271.5,220.2,271.5,278.2z"/>
		<path class="st20" d="M268.3,278.2c0,56.3-45.6,101.9-101.9,101.9c-56.3,0-101.9-45.7-101.9-101.9c0-56.3,45.6-101.9,101.9-101.9
			C222.7,176.4,268.3,221.9,268.3,278.2z"/>
		<path class="st19" d="M246.6,278.2c0,44.3-35.9,80.2-80.3,80.2c-44.3,0-80.3-35.9-80.3-80.2c0-44.3,35.9-80.2,80.3-80.2
			C210.7,198,246.6,233.9,246.6,278.2z"/>
		<g>
			<path class="st20" d="M160.7,325.4c-5.3-0.5-10.2-1.8-14.6-4c-4.4-2.1-8.1-4.9-11.4-8.1l3.5-5.4c0.3-0.5,0.8-0.9,1.3-1.2
				c0.6-0.4,1.2-0.5,1.8-0.5c0.8,0,1.8,0.5,2.8,1.3c1.1,0.9,2.4,1.8,3.9,2.9c1.5,1,3.4,2.1,5.5,3.2c2.1,1,4.7,1.7,7.7,2l2.5-35.1
				c-3.1-0.9-6.1-1.9-9.1-3.1c-3-1.1-5.7-2.7-8-4.5c-2.3-1.9-4.2-4.3-5.7-7.1c-1.4-2.8-2.2-6.4-2.2-10.7c0-3.2,0.7-6.4,1.9-9.4
				c1.3-3,3.1-5.8,5.5-8.2c2.4-2.4,5.3-4.4,8.9-5.9c3.5-1.5,7.6-2.3,12.2-2.3l0.7-9.6c0.1-0.8,0.4-1.6,1-2.2c0.6-0.6,1.3-1,2.3-1
				h4.4l-0.9,13.1c4.6,0.6,8.6,1.8,11.9,3.6c3.4,1.8,6.4,4,9,6.6l-2.8,4.4c-0.9,1.4-1.9,2-3.1,2c-0.6,0-1.3-0.3-2.3-0.8
				c-0.9-0.5-2-1.2-3.3-1.9c-1.3-0.7-2.8-1.4-4.4-2.2c-1.7-0.7-3.6-1.3-5.8-1.6l-2.2,32c3.2,1,6.3,2.1,9.4,3.2
				c3.1,1.1,5.9,2.6,8.3,4.4c2.5,1.8,4.5,4.1,6,6.8c1.6,2.7,2.3,6.1,2.3,10.2c0,4-0.7,7.7-2,11.2c-1.3,3.5-3.3,6.6-5.8,9.2
				c-2.5,2.6-5.7,4.8-9.3,6.5c-3.7,1.7-7.9,2.5-12.6,2.5l-0.8,11.8c-0.1,0.9-0.4,1.6-1,2.2c-0.6,0.6-1.3,1-2.3,1h-4.4L160.7,325.4z
				 M150,253.8c0,2.1,0.4,4,1.1,5.5c0.7,1.6,1.8,2.9,3.1,4.1c1.3,1.2,2.8,2.2,4.6,3.1c1.8,0.9,3.7,1.7,5.7,2.4l2-29.8
				c-2.9,0.2-5.3,0.8-7.5,1.7c-2,0.9-3.8,2-5.2,3.3c-1.3,1.3-2.3,2.9-3,4.5C150.4,250.2,150,251.9,150,253.8z M186.7,297.7
				c0-2.2-0.4-4.1-1.2-5.6c-0.8-1.6-1.9-3-3.3-4.1c-1.4-1.1-3-2.1-5-3c-1.9-0.8-3.9-1.6-6.1-2.3l-2.3,32.9c2.9-0.2,5.4-0.9,7.6-1.9
				c2.2-1,4.1-2.3,5.6-3.8c1.5-1.5,2.7-3.3,3.5-5.4C186.3,302.4,186.7,300.2,186.7,297.7z"/>
		</g>
	</g>
	<g>
		<path class="st21" d="M214.9,539.9l7.4-29.3l-14.8-7.3c0-4.3-0.2-8.6-0.8-13l14.6-7.8l-8.3-29l-18.3,1.2c-1.9-3.4-4-6.5-6.3-9.6
			l9.6-15.4l-21.7-21l-16.2,10.9c-3-1.8-6.1-3.4-9.3-4.8l0.7-19.1l-29.3-7.4l-8.8,17.8c-3.4-0.1-6.8,0-10.3,0.3l-9-17l-29,8.3
			l1.3,19.2c-3.2,1.7-6.4,3.5-9.4,5.5l-15.7-9.8l-21,21.7l10,14.9c-2.3,3.4-4.3,6.9-6.1,10.5l-17-0.6L0,488.3l14.5,7.1
			c-0.3,4.6-0.4,9.2,0,13.8l-13.3,7.1l8.3,29l14.3-1c2.2,4.7,4.8,9.1,7.7,13.3l-7.1,11.4l21.7,21l10.9-7.3c4.5,3,9.3,5.7,14.3,8
			l-0.4,12.4l29.3,7.4l5.6-11.4c5.5,0.3,11,0.1,16.6-0.5l5.8,10.9l29-8.3l-0.9-13.3c4.8-2.5,9.3-5.4,13.4-8.6l11.2,7l21-21.7
			l-8.2-12.3c2.5-4.2,4.7-8.5,6.6-13.1L214.9,539.9z M122.1,542.5c-22,6.3-44.9-6.5-51.2-28.5c-6.3-22,6.5-44.9,28.5-51.2
			c22-6.3,44.9,6.5,51.2,28.5C156.9,513.3,144.1,536.2,122.1,542.5z"/>
		<path class="st22" d="M93.3,441.1c-34,9.7-53.7,45.1-44,79.1c9.7,34,45.1,53.7,79.1,44c34-9.7,53.7-45.1,44-79.1
			C162.7,451.1,127.3,431.4,93.3,441.1z M124.7,551.5c-27,7.7-55-8-62.7-34.9c-7.7-26.9,8-55,34.9-62.7c27-7.7,55,8,62.7,34.9
			C167.3,515.7,151.6,543.8,124.7,551.5z"/>
	</g>
	<g>
		<path class="st19" d="M1088.9,600l11.5-45.7l-23.2-11.4c0-6.7-0.4-13.5-1.3-20.2l22.8-12.1l-12.9-45.3l-28.5,1.9
			c-3-5.2-6.3-10.2-9.8-15l15-23.9l-33.8-32.8l-25.3,16.9c-4.7-2.8-9.5-5.3-14.4-7.5l1-29.8l-45.7-11.5l-13.7,27.8
			c-5.3-0.1-10.6,0-16,0.4l-14.1-26.5l-45.3,12.9l2,29.9c-5.1,2.6-9.9,5.5-14.6,8.6l-24.4-15.3l-32.8,33.8l15.5,23.2
			c-3.5,5.3-6.7,10.8-9.5,16.4l-26.4-0.9l-11.5,45.7l22.5,11.1c-0.5,7.1-0.6,14.3-0.1,21.6l-20.8,11.1l12.9,45.3l22.4-1.5
			c3.5,7.3,7.5,14.2,12,20.7l-11.1,17.8l33.8,32.8l17.1-11.4c7.1,4.8,14.6,8.9,22.3,12.4l-0.7,19.4l45.7,11.5l8.8-17.8
			c8.6,0.5,17.2,0.2,25.9-0.9l9,17l45.3-12.9l-1.4-20.7c7.4-3.9,14.4-8.5,21-13.5l17.4,10.9l32.8-33.8l-12.8-19.1
			c3.9-6.5,7.3-13.3,10.3-20.4L1088.9,600z M948.2,618.1c-42,12-85.8-12.4-97.8-54.4c-12-42,12.4-85.8,54.4-97.8
			c42-12,85.8,12.4,97.8,54.4C1014.6,562.3,990.2,606.1,948.2,618.1z"/>
		<path class="st20" d="M895.4,432.7c-60.4,17.2-95.4,80.1-78.2,140.4c17.2,60.4,80.1,95.4,140.4,78.2c60.4-17.2,95.4-80,78.2-140.4
			C1018.7,450.5,955.8,415.5,895.4,432.7z M951.2,628.6c-47.8,13.6-97.7-14.1-111.3-62c-13.6-47.9,14.1-97.7,62-111.3
			c47.8-13.6,97.7,14.1,111.3,62C1026.8,565.2,999,615,951.2,628.6z"/>
	</g>
	<path class="st21" d="M596.9,223.9c28.1-14.9,56.1-16.3,81.1-9.7s34.6,12.7,31,42.5c-3.5,29.8-13.4,46.8-27.6,46.3
		c-40.4-1.6-50.7-2.5-71.9-0.7l6.8,15.5l-17.1-14.6c-21.3,0.8-24.5-9-25.8-16.6C573.4,286.5,568.8,238.8,596.9,223.9z"/>
	<g>
		<path class="st20" d="M310.6,328.8c26.8,0.7,84.2,0,103.7-5.5c19.7-5.6,21.6-75.4,12.3-86.1c-9.5-10.5-43.3-13.6-60.2-14.5
			c-42.3-2.2-81.5,0.7-83.4,32.6C281,288.6,281.6,328.1,310.6,328.8z"/>
		<path class="st20" d="M386.6,320.2c0,0-1,14.8-21.1,23.2c0,0,10.4-20.5,1-30.6C360.9,306.8,386.6,320.2,386.6,320.2z"/>
		<rect x="324.8" y="257.3" class="st23" width="67.8" height="5.2"/>
		<rect x="324.8" y="270.4" class="st23" width="67.8" height="5.2"/>
		<rect x="324.8" y="283.4" class="st23" width="67.8" height="5.2"/>
	</g>
	<g>
		<g>
			<path class="st9" d="M345.7,339l-3.5-24.3c-4.4-4.7-10.1-7.2-15.9-6.4c-11.2,1.6-18.5,15-16.4,29.9c2.1,14.9,12.9,25.7,24.1,24.1
				c7.8-1.1,13.8-8,15.9-17.2C347.7,343.9,346,341.7,345.7,339z"/>
			<path class="st9" d="M301.2,352.9c-0.4,3.9,3.6,7.5,9.1,8.1l12.5,1.4c5.5,0.6,10.3-2,10.7-5.9l4-35.4c0.4-3.9-3.6-7.5-9.1-8.1
				l-12.5-1.4c-5.5-0.6-10.3,2-10.7,5.9L301.2,352.9z"/>
			<path class="st5" d="M333.7,368.2c7.4,3.2,11.1,2.2,5.4,4.6c-2.7,3.3-37.4-1.4-39.3-5.7c-0.3-0.7,13.8-2.8,13.9-3.3
				c0.9-6.2,1.2-11.5-0.5-18.5c0.1-0.5,0.5-1,0.9-1c2.6,0.1,5.3,0.1,7.9,0.2c0.4,0,5.6,1.2,4.5,3.6
				C325.9,354.9,325.9,364.8,333.7,368.2z"/>
			<path class="st5" d="M336.1,347.7c0.1-0.3,0.2-0.5,0.3-0.8c0-0.1,0.1-0.1,0.1-0.2c0.1-0.3,0.3-0.6,0.4-1c0-0.1,0.1-0.2,0.1-0.3
				c0.1-0.3,0.2-0.5,0.3-0.8c0-0.1,0.1-0.3,0.1-0.4c0.1-0.2,0.1-0.4,0.2-0.6c0-0.1,0.1-0.3,0.1-0.5c0.1-0.3,0.2-0.6,0.2-0.9
				c0-0.2,0.1-0.4,0.2-0.7c0-0.2,0.1-0.4,0.1-0.6c0-0.2,0.1-0.4,0.1-0.6c0-0.2,0.1-0.4,0.1-0.5c0-0.1,0.1-0.3,0.1-0.4c0,0,0,0,0,0
				c0.4-2.5-0.4-14.4-2.4-20c-0.2-0.7-1-1.2-2-1.1c-6.1,0.7-24.7-0.2-19.9,16.7v0c0,0,0.3,1.5,0.4,2.2c0,0.1,0,0.1,0,0.2
				c0.2,0.7,0.3,1.3,0.5,2c0,0,0,0.1,0,0.1c0.2,0.7,0.4,1.3,0.6,1.9c0,0,0,0,0,0.1c2.6,8,7.3,13.3,12.2,12.9
				c2.9-0.2,5.4-2.3,7.3-5.6l0,0c0,0,0,0,0-0.1c0.2-0.3,0.3-0.5,0.4-0.8C336,347.8,336,347.8,336.1,347.7z"/>
			<path class="st24" d="M404.3,365.3c0,0,1.3,0.6,1.8-0.4c0.9-1.6,1.2-5.3,1.3-6.6c0.1-1.5-0.8-8.5-0.8-8.5s-1.4,2.2-1.1,5
				C406,359,404.3,365.3,404.3,365.3z"/>
			<path class="st24" d="M404.4,364.4c1.2-2.4,0.6-5.4-1-8.8c-1.5-3.2-0.4-5.2-0.4-5.2s1.2,2,3,7.2c0.5,1.5,1,3.1,0.9,4.6
				C406.7,366.8,401.4,370.5,404.4,364.4z"/>
			<path class="st5" d="M340.4,710.9c0,0-2.7-1.2-10.3-2.8c-4.5-0.9-7.8-1-9.4-2.7c-2.6-2.8-0.8-11.5-2.1-11.2
				c-6.3,1.3-9,16.3-5.3,18.2c3.7,1.9,24.5,1.6,26.2,1.5C341.2,713.8,341,710.5,340.4,710.9z"/>
			<path class="st24" d="M314.2,500.8c-8.1-1.5-16.1-1.8-23.6-1.2c1.1,10.3,2.8,21.5,4.8,33.5c8.3-10.2,26-6,30.3-1.5
				c1-6.9,1.7-14,2.2-21.3c0.1-2.1,0.2-4.2,0.3-6.3C323.7,502.8,319,501.7,314.2,500.8z"/>
			<path class="st24" d="M265,428.4c-12.5,10.2-66.7,24.3-66.7,24.3s-11.7-2.9,57-31.6C258.7,419.6,268.1,425.8,265,428.4z"/>
			<g>
				<path class="st24" d="M195,455.4c0,0-4.3,1.6-5.6,3.5c-0.9,1.3-4.2,8.3-4.2,8.3s2.6-1.2,3.9-4C191,459.1,195,455.4,195,455.4z"
					/>
				<path class="st24" d="M191.3,459.2c-2.8,0.7-4.9,3.4-6.5,7.1c-1.6,3.5-4,4.1-4,4.1s0.8-2.4,3.8-7.6c0.8-1.5,1.8-2.9,2.7-4.3
					C190.4,453.9,198.6,457.3,191.3,459.2z"/>
				<path class="st24" d="M199.3,453.6c-0.5,2-3.6,4.2-3.5,5.5c0.3,3.7,1.5,5.6,1.5,5.6c-4.2-0.5-4.2-6.6-5.8-8.7
					C189.9,454,200.5,448.5,199.3,453.6z"/>
				<path class="st24" d="M221,443.5c-7.4,1.9-15.9,3.9-19.4,6.6c-5,3.8-6,8-10.2,9.1c-0.5,0.1-0.9,0.3-1.3,0.5
					c-1.2,0.5-2.6,0.8-3.1,1.1c-0.5,0.3-1.9,1.3-1.5,0.7c3.5-5.6,8-11.5,9.4-12.2c2.9-1.6,19.2-9.5,25.8-11.2
					C228,436.1,231,441,221,443.5z"/>
				<path class="st24" d="M191.2,458.6c0,0-0.4-1.5-1.6-1.3c-2,0.4-5.3,2.8-6.4,3.7c-1.3,1-6.4,6.7-6.4,6.7s2.8-0.4,4.9-2.7
					C184.8,461.7,191.2,458.6,191.2,458.6z"/>
				<path class="st24" d="M230.8,432.8c4.9,2,19-1.9,19,0.9c-13,7.8-52.4,14.2-52.4,14.2L230.8,432.8z"/>
			</g>
			<path class="st5" d="M354.7,393.7c6.8,5,12.7,22.5,17.4,33.6c2.6,6.3,1.7,11,1.7,11s-2.3,14.7-19.8-25.3
				C349.5,402.9,352.1,391.8,354.7,393.7z"/>
			<path class="st5" d="M368.1,437.6c0.1-14.8,26.5-53.7,26.5-53.7s13.9-11.7-11.5,45.5C375.6,446.6,368.1,441.3,368.1,437.6z"/>
			<path class="st5" d="M404.4,361.5l1.1,0.7l0.8,4.5c0,0-2,8-3.9,10.8c-1.9,2.7-4.7,15.1-5.4,16.5s-8.1,1.3-8.1,1.3
				s5.9-11.7,7.8-16.6c1.9-4.9,2.3-12.7,3-14.6c1.2-3.3,1.6-5,1.6-5s1.7,0.9,0.1,6.1c-0.4,1.4,1.4,1.1,1.4,1.1L404.4,361.5z"/>
			<path class="st5" d="M340.4,548.9c-2.9-1.6-8.3,2.1-12.2,9.4c-7.6,14.4-10.2,34.2-11.9,58.8c-1.8,26-2.2,45.4-2.1,61.4
				c0.1,15.8-7,37.8,5,36c-1-21.8,3.2-54,9.9-70.8C351.9,586.4,349.4,553.7,340.4,548.9z"/>
			<path class="st24" d="M299.5,722c0,0-2-1.3-8-3.7c-3.5-1.4-6.3-1.9-7.3-3.4c-1.6-2.4-0.6-9.3-1.7-9.3c-5.5-0.1-7.6,12.3-6.3,14.3
				c1.7,2.6,20.4,3.8,21.8,4C299.5,724.1,300,721.8,299.5,722z"/>
			<path class="st24" d="M308.8,596c-2.6-1,0.3-10-4.8-4.1c-8.3,9.6-15.7,31.5-17.2,43.4c-2.4,18.8-6.7,48.7-7.8,61.4
				c-1,11.5-6.6,25,3.6,23.1c0-16.1,6.8-39.5,11.9-51.9C311.7,625.3,316.6,599,308.8,596z"/>
			<path class="st25" d="M299.5,721.9c-3,3.5-15-1.4-18.5-2.2c-6-1.4-5.3-3.5-5.3-3.5c-0.6,1.9-1.5,4.6,1.8,6c3,1.3,6.7,1.6,9.6,2.6
				c3.1,1.1,20.7,5.4,21.9,3.3C310.7,725.5,299.5,721.8,299.5,721.9z"/>
			<path class="st24" d="M322.7,472.1c-4.4-1.1-4.7,2.2-8.5,10.4c-7.4,16-12.7,39.9-12.3,65.6c0.5,30.1,4.7,56.4,10.9,73
				c6.8-11.7,11.5-18.4,16.7-44.5C340.9,518.7,336.2,475.5,322.7,472.1z"/>
			<path class="st24" d="M314.3,583c-2.3-1.2-7,3.9-10.4,8.8c-6.8,9.7-9.7,21.8-13.6,38.6c-4.6,19.6-6.4,37.2-5.6,48.7
				c5.4-8.5,10-19.5,16.2-30.9C338.7,579.3,321.4,586.6,314.3,583z"/>
			<path class="st5" d="M323.9,468.4c-4.4-0.9-4.6,2.1-8,9.6c-6.8,14.8-11,36.7-9.6,60.1c1.3,21.9,4.8,41.5,9.6,56.2
				c1.2,3.7,6.1,3.8,7.1,0.5c3-10.6,5.1-22.6,7-35.6C337.5,506.1,337.4,471.3,323.9,468.4z"/>
			<polygon class="st25" points="342,419 295.7,418.6 290,365.6 345,370.8 			"/>
			<path class="st25" d="M285.3,578.3c26.2-3.8,52.4-7.7,78.5-11.5c3,0-16.8-48.3-21.8-148.3c-15.6-0.3-31.1-0.6-46.7-0.9
				C299,437.1,259.7,472.5,285.3,578.3z"/>
			<path class="st25" d="M265.7,427.3l26.1-39l6.7-17.5c-0.5-1.5-1.4-2.7-2.7-3.6l-0.9-0.6c-3.4-2.2-8.2-0.7-10.7,3.3l-29.9,49.4
				L265.7,427.3z"/>
			<path class="st25" d="M360.5,431.9L344.6,398l-6.4-23.7c0.8-1.2,2-2.1,3.5-2.7l1-0.4c3.8-1.4,8.1,0.5,9.5,4.3l19.2,46.7
				L360.5,431.9z"/>
			<path class="st5" d="M319.3,701.6c0,0.1,0.1,0.3,0.3,0.3l0.5,0c0.1,0,0.3-0.1,0.3-0.3l0,0c0-0.1-0.1-0.3-0.3-0.3l-0.5,0
				C319.4,701.4,319.3,701.5,319.3,701.6L319.3,701.6z"/>
			<path class="st25" d="M336.1,709.5c1.1,5-14.1,2.7-18.1,1.4c-3.8-1.3-6.2-1.7-6.2-1.7c-0.2,0-0.3,0-0.5,0c0,0.1-0.1,0.2-0.1,0.4
				c0,2.7-1.3,6.3,3,6.4l27.4,0.5C364.2,716.8,336.1,709.4,336.1,709.5z"/>
			<path class="st5" d="M404.7,367.2c0,0,1.3-4,0.6-6c-0.5-1.4-3.7-7.7-3.7-7.7s-0.6,2.5,0.7,5.1
				C404.2,362.2,404.7,367.2,404.7,367.2z"/>
			<path class="st24" d="M402.7,366.2c0,0-1.2,0.3-1.6-0.1c0,0.4,0.1,0.8,0.1,1.1c0.1,0.7-0.3,5.4-0.3,5.4s0.9-3.4,1.4-4.3
				c0.3-0.6,0.6-2,0.9-3.2c0-0.1,0-0.4,0-0.7L402.7,366.2z"/>
			<path class="st24" d="M401.4,365.1c1-3.5,0.6-5.1,0.2-5.7c-0.2,0.8-0.7,2.2-1.3,4c-0.2,0.7-0.4,2.1-0.7,3.8
				c0,0.3,1.2,0.6,1.7,3.5c0.1,0.5,1-2.6,1.2-4.5C402,366.3,401.1,366.2,401.4,365.1z"/>
			<path class="st9" d="M324.6,342.8c-2.2-1.4-3.8-3.6-4.2-6.3l-3.5-24.3c-0.2-0.2-0.4-0.4-0.7-0.6l-0.4,0c-5.5-0.6-10.3,2-10.7,5.9
				l-4,35.4c-0.3,3,2,5.8,5.6,7.3c0.6,0,1.3,0,1.9-0.1C316.5,358.9,322.5,352,324.6,342.8z"/>
		</g>
	</g>
	<g>
		<g>
			<path class="st26" d="M210.4,424.7h-8.3v4.3C204,426.4,207,424.7,210.4,424.7z"/>
			<path class="st26" d="M212.9,424.7v11.8c0,5.7-4.6,10.3-10.3,10.3h-0.5v18.1h36.7v-40.2H212.9z"/>
		</g>
		<g>
			<g>
				<path class="st27" d="M184.7,642.5c-2.8,0-7.2-0.6-11.1-4c-5.5-4.8-8-13.4-7.2-25.5c0.5-8.2,3.8-16.5,7.2-25.2
					c5.7-14.8,12.2-31.5,8.8-53.6l6.3-1c3.7,23.8-3.5,42.1-9.2,56.9c-3.4,8.7-6.3,16.1-6.8,23.3c-0.7,9.8,1,16.8,4.9,20.2
					c3.7,3.2,8.3,2.4,8.5,2.4l1.3,6.3C187.4,642.2,186.3,642.5,184.7,642.5z"/>
			</g>
			<g>
				<path class="st27" d="M228.9,642.5c-2.8,0-7.2-0.6-11.1-4c-5.5-4.8-8-13.4-7.2-25.5c0.5-8.2,3.8-16.5,7.2-25.2
					c5.7-14.8,12.2-31.5,8.8-53.6l6.3-1c3.7,23.8-3.5,42.1-9.2,56.9c-3.4,8.7-6.3,16.1-6.8,23.3c-0.7,9.8,1,16.8,4.9,20.2
					c3.7,3.2,8.3,2.4,8.5,2.4l1.3,6.3C231.6,642.2,230.5,642.5,228.9,642.5z"/>
			</g>
			<g>
				<g>
					<path class="st28" d="M233.7,693.1l6.2,9.5l-52.3,16.7c0,0-3.5-3.3,9.3-10C211.9,701.5,233.7,693.1,233.7,693.1z"/>
					<path class="st28" d="M243,693.1l-6.2,9.5l52.3,16.7c0,0,3.5-3.3-9.3-10C264.7,701.5,243,693.1,243,693.1z"/>
				</g>
				<rect x="232.9" y="664.9" class="st28" width="10.9" height="38.9"/>
				<g>
					<path class="st29" d="M233,695.1l5.3,9l-44.7,16c0,0-3-3.2,8-9.6C214.3,703.1,233,695.1,233,695.1z"/>
					<path class="st29" d="M243.7,695.1l-5.3,9l44.7,16c0,0,3-3.2-8-9.6C262.3,703.1,243.7,695.1,243.7,695.1z"/>
				</g>
				<path class="st8" d="M198.6,723.8c0,2.1-1.7,3.8-3.8,3.8c-2.1,0-3.8-1.7-3.8-3.8c0-2.1,1.7-3.8,3.8-3.8
					C196.9,720,198.6,721.7,198.6,723.8z"/>
				<ellipse class="st8" cx="281.5" cy="723.8" rx="3.8" ry="3.8"/>
				<path class="st27" d="M189.4,723.8c0,2.1-1.7,3.8-3.8,3.8c-2.1,0-3.8-1.7-3.8-3.8c0-2.1,1.7-3.8,3.8-3.8
					C187.7,720,189.4,721.7,189.4,723.8z"/>
				<path class="st27" d="M294.5,723.8c0,2.1-1.7,3.8-3.8,3.8c-2.1,0-3.8-1.7-3.8-3.8c0-2.1,1.7-3.8,3.8-3.8
					C292.8,720,294.5,721.7,294.5,723.8z"/>
			</g>
			<rect x="234.2" y="650.7" class="st27" width="8" height="14"/>
			<path class="st27" d="M248.2,643.3c0,4.3-3.5,7.8-7.8,7.8H236c-4.3,0-7.8-3.5-7.8-7.8l0,0c0-4.3,3.5-7.8,7.8-7.8h4.4
				C244.7,635.5,248.2,639,248.2,643.3L248.2,643.3z"/>
			<path class="st1" d="M297.5,636.2c0.2-0.9,0.3-6.7,0.3-7.7c0-6.3-4.1-11.4-9.1-11.4H187.6c-5,0-9.1,5.1-9.1,11.4
				c0,1,0.1,6.7,0.3,7.7H297.5z"/>
			<path class="st27" d="M177.6,639.2c0,1.9,1.1,3.5,2.5,3.5h116.2c1.4,0,2.5-1.6,2.5-3.5l0,0c0-1.9-1.1-3.5-2.5-3.5H180.1
				C178.7,635.8,177.6,637.3,177.6,639.2L177.6,639.2z"/>
			<g>
				<path class="st1" d="M183.2,577.7c2.5,0.2,18.4,0.5,21.1,0.5c17.4,0.2,32.3-3,33.2-7.3c3.4-17.8,3.6-36,0.5-53.8
					c-0.7-4.3-15.9-7.5-33.7-7.3c-2.8,0-19,0.3-21.5,0.5C188.2,532.5,188.3,555.6,183.2,577.7z"/>
				<path class="st27" d="M180.8,510.3c-1.9,0-3.3,1-3,2.1c4.8,20.8,5,42.5,0.5,63.3c-0.2,1.1,1.1,2,3,2.1l0,0c1.9,0,3.7-0.9,3.9-2
					c4.5-20.9,4.4-42.6-0.4-63.5C184.6,511.2,182.8,510.3,180.8,510.3L180.8,510.3z"/>
				<path class="st30" d="M181.3,577.3c0.5,0.2,4,0.3,4.5,0.3c3.8,0,7.7-3.3,8.4-7.5c3.2-17.5,3.1-35.5-0.2-53
					c-0.8-4.2-4.8-7.5-8.6-7.5c-0.6,0-4.1,0.1-4.6,0.3C186.2,532.1,186.4,555.2,181.3,577.3z"/>
			</g>
		</g>
		<g>
			<path class="st7" d="M233,450.4c0,0-14.4,5.1-0.6,46.4c13.8,41.3,23,36.3,23,36.3l11.4-1.1l21.9-26L277,495.6l-2.4,1
				c0,0-3-1.3-3.4-4.1c-0.3-2.8-5.9-14.7-10.1-39C259.2,442.3,235.8,449.4,233,450.4z"/>
			<path class="st5" d="M285.7,506.4c0,0,28.4,14.5,46.3-13.6c5.3-8.4,3,1.3,0.1,10.4s-20.6,29.8-40.6,31.2
				c-20.1,1.4-27.7,0.3-31.5-6.7C256.3,520.8,285.7,506.4,285.7,506.4z"/>
			<path class="st4" d="M261.3,499.8l7.2-4.7l3-1.7c0.8,2.1,3.2,3.1,3.2,3.1l-6,2.5l-6.5,4.2l-6.8,8.1L261.3,499.8z"/>
			<path class="st7" d="M259.6,568.9l-53.8-1.2l-22.4-74.9c0,0-10.2-45.1,8.9-45.9c27.8-1.1,64.2-0.6,64.2-0.6
				S275.3,462.7,259.6,568.9z"/>
			<path class="st4" d="M240.3,564.8c2.1,0.3,4.2,0.6,6.3,0.9c3.4-39.3-0.2-79.3-10.7-117.3c-1.7,0.6-3.4,1.1-5.2,1.7
				C240.7,487.5,243.9,526.5,240.3,564.8z"/>
			<path class="st9" d="M348.1,727.9c0,0-5.2,8.1-7.9,3.1c-8-14.8-15.3-61.7-15.7-80.9c-0.6-25.6-1.8-41.3-1.8-41.3l25.8-9.3
				L348.1,727.9z"/>
			<path class="st9" d="M257.7,568.3l91,31.2l-23.9,13.3c0,0-93.9,16.5-95.5-18.4C227.9,565.1,257.7,568.3,257.7,568.3z"/>
			<path class="st6" d="M315.8,728.6c0,0-4.7,4.3-7.4-0.6c-8-14.8-21.2-54.3-21.6-73.5c-0.6-25.6,3.6-43.5,3.6-43.5l26.3-9.2
				L315.8,728.6z"/>
			<path class="st6" d="M229.5,569.3l86.8,32.7L292.5,615c0,0-88.1,16.5-89.8-18.4C201,561.8,229.5,569.3,229.5,569.3z"/>
			<path class="st6" d="M201.2,598.6c-0.2,2.4,1.2,10.4,3.8,13.6c8.2,9.9,27.7,6.6,43.2,6.6c0.8,0,5.2-12.1,5.2-12.1l6.5-39.6
				l-54.4,0.9C205.5,568.1,203,578.6,201.2,598.6z"/>
			<path class="st5" d="M289.5,544.1l19.9-3.6c0,0,3.1-0.3,3.2,1.8c0.2,2.8-0.3,12-0.3,12l-3.6-2.2l-5.1,3.1l-6-7.9
				c0,0-3.1,0.6-5.6-0.1C291.2,547.1,289.5,544.1,289.5,544.1z"/>
			<path class="st5" d="M240.7,538.4l52.7,5.8c0,0-28.3,14.5-41.2,14.5c-13,0.1-25.1-2.9-25.1-2.9L240.7,538.4z"/>
			<path class="st4" d="M214.7,483.8l26.3,49.9l-1.5,4l4,0.8L231.3,558l-19.3-4.4l-34.7-68.8c0,0-7.3-20.8,9.3-36.6
				C194.8,440.3,212.3,479.8,214.7,483.8z"/>
			<path class="st7" d="M221.4,550.6c0,0,12.5-9.5,18.8-14.7l-0.7,1.8l4,0.8l-4.3,6.7l-7.5,8.7l-4.3-1.6l1.6-3L221.4,550.6z"/>
			<g>
				<g>
					<path class="st9" d="M238,412.2c0,3.6-2.9,6.5-6.5,6.5h-24.6c-3.6,0-6.5-2.9-6.5-6.5l0,0c0-3.6,2.9-6.5,6.5-6.5h24.6
						C235,405.7,238,408.6,238,412.2L238,412.2z"/>
					<path class="st9" d="M233.4,423.5c0,6.6-5.4,12-12,12h-12.8c-6.7,0-12-5.4-12-12l0,0c0-6.6,5.4-12,12-12h12.8
						C228,411.4,233.4,416.8,233.4,423.5L233.4,423.5z"/>
					<path class="st5" d="M243.1,442.8v-37.7c0-6-4.9,0-10.9,0h-5.8c-6,0-10.9,4.9-10.9,10.9v26.8L243.1,442.8L243.1,442.8z"/>
					<path class="st5" d="M220.4,424.4c0,2.6-2.1,4.8-4.8,4.8l0,0c-2.6,0-4.8-2.1-4.8-4.8l0,0c0-2.6,2.1-4.8,4.8-4.8l0,0
						C218.3,419.6,220.4,421.7,220.4,424.4L220.4,424.4z"/>
					<path class="st5" d="M240,431c0,1.5,1.2,2.8,2.7,2.8h2.2c1.5,0,2.7-1.2,2.7-2.8c0,0-4.9-14.3-6.4-14.3c0,0-1.2,1.2-1.2,2.8
						L240,431L240,431z"/>
					<path class="st9" d="M227.9,440.7c-10.9,0-12-3.3-12.3-7.1c0,0-2.9,9.5-2.9,12.6v3.4c0,6.6,6.8,12,15.2,12h15.2v-16.9v-4
						L227.9,440.7L227.9,440.7z"/>
					<path class="st9" d="M243.1,433.7h-8.7c-4,0-7.2,3.2-7.2,7.2c0,0.6,0.1,1.2,0.3,1.8h15.7V433.7z"/>
					<path class="st5" d="M231.9,441.3v2.4c0,0.7,0.5,1.2,1.2,1.2h7c0.7,0,1.2-0.5,1.2-1.2v-2.4H231.9z"/>
					<path class="st9" d="M239.4,398.4h-22.3c-2.4,0-4.3,2-4.3,4.4v8.7h26.6V398.4z"/>
					<path class="st9" d="M253.2,404.9c0,3.6-2.9,6.6-6.6,6.6h-15.1c-3.6,0-6.6-2.9-6.6-6.6l0,0c0-3.6,2.9-6.6,6.6-6.6h15.1
						C250.2,398.4,253.2,401.3,253.2,404.9L253.2,404.9z"/>
				</g>
				<rect x="215.3" y="408.3" class="st9" width="6" height="15.9"/>
				<rect x="217.2" y="401.5" class="st9" width="17.7" height="18.7"/>
				<path class="st5" d="M221.4,420.4c0-5,4-9,9-9h4.6c5,0,7.6,4,7.6,9l0,0c0,5-4,9-9,9h-3.3C225.4,429.4,221.4,425.4,221.4,420.4
					L221.4,420.4z"/>
			</g>
			<g>
				<path class="st5" d="M329.8,502.6c0,0-4.3-10.3-2.7-13c1.5-2.8,7.8-12.6,7.8-12.6l1.8-2.4c0,0,3.7,0.6-0.6,7.1s-0.4,4.5-0.4,4.5
					l6.2-4.5l8-4.9l3.3-2.6c0,0,1.7-1.6,2.5-1.6c2.2-0.1,1.4,1.6,1.4,1.6l-11.8,11.2L359,478c0,0,1.9-0.7,2.6,0.1
					c0.6,0.8,0.1,1.1,0.1,1.1l-13.6,12l7.5-3c0,0,1.9-0.6,2.6,0.1c0.8,0.8,1,1,1,1l-27.7,15.5L329.8,502.6z"/>
				<path class="st5" d="M347.4,487.3l10-4.7c0,0,2.1-1.3,3.5-1.3c1.5,0,1.6,1.4,1.6,1.4l-14.4,8.5L347.4,487.3z"/>
			</g>
			<path class="st6" d="M324.3,736.6c0.5,0.8,0.1,2.8,0.1,2.8s-8.1,1.3-10.7,0.5c-0.7-0.2-1.8-1-2.9-1.8c-0.2-0.1-0.5-1-0.7-1.1
				c-0.3-0.3-0.5,0.2-0.8,0c-0.7-0.6-1.2-1.1-1.2-1.2c-0.7-5.1,0.3-7.1,0.3-7.1s6.9-3.2,8.2-1.1
				C319.6,732.7,323.3,734.9,324.3,736.6z"/>
			<path class="st9" d="M339.4,730.2l1.2,7.4h6.2c0,0,0.3-1,0.9-1c0.4,0,1,1,1.6,1c1.3,0,2.7,0,3.3,0c1.2,0,12.3,0,12.3,0
				s0.3-1.5-0.1-2.1c-0.2-0.3-1.2-0.8-1.9-1c-3.2-1.1-12.8-3.5-14.9-6.9C346.2,725,339.4,730.2,339.4,730.2z"/>
		</g>
		<g>
			<path class="st31" d="M290.3,554.9C290.3,554.9,290.3,554.8,290.3,554.9v-2.7h106.9v2.6c0,0,0,0.1,0,0.1l-0.3,0.5
				c-1.4,2.2-3.8,2.6-6.7,2.6h-93c-2.8,0-5.3-0.4-6.7-2.6L290.3,554.9z"/>
			<path class="st32" d="M316.1,555.3C316.1,555.3,316.1,555.4,316.1,555.3l-0.3,0.5c-0.4,0.6-1,1-1.6,1.3H298
				c-2.7,0-5.1-0.3-6.4-2.1l-0.3-0.4c0,0,0,0,0-0.1l0-1.3h24.8L316.1,555.3L316.1,555.3z"/>
			<g>
				<rect x="330.5" y="552.8" class="st33" width="53.4" height="1.8"/>
			</g>
			<g>
				<path class="st34" d="M316.6,552.2l13.8-52.5c0.4-1.4,1.8-2.5,3.2-2.5h75c1.4,0,2.2,1.1,1.8,2.5l-13.9,52.5H316.6z"/>
				<path class="st31" d="M359,524.7c-0.7,2.7,0.9,4.9,3.6,4.9s5.4-2.2,6.1-4.9c0.7-2.7-0.9-4.9-3.6-4.9
					C362.5,519.8,359.7,522,359,524.7z"/>
			</g>
		</g>
		<g>
			<polygon class="st29" points="503.5,738.4 514.5,738.4 496.4,563.6 480.6,563.6 			"/>
			<polygon class="st28" points="481.6,571.7 488.6,624.6 496.8,567.6 496.4,563.6 482.6,563.6 			"/>
			<polygon class="st29" points="388.7,738.4 377.8,738.4 395.8,563.6 411.7,563.6 			"/>
			<polygon class="st28" points="410.6,571.7 389.4,625.6 395.4,567.6 395.8,563.6 409.7,563.6 			"/>
			<polygon class="st29" points="264,738.4 275,738.4 256.9,563.6 241.1,563.6 			"/>
			<polygon class="st28" points="242.1,571.7 249.1,624.6 257.3,567.6 256.9,563.6 243.1,563.6 			"/>
			<polygon class="st29" points="149.2,738.4 138.3,738.4 156.3,563.6 172.2,563.6 			"/>
			<polygon class="st28" points="171.1,571.7 149.9,625.6 155.9,567.6 156.3,563.6 170.2,563.6 			"/>
			<rect x="141" y="558" class="st11" width="370.2" height="10.2"/>
			<rect x="266.8" y="558" class="st1" width="244.4" height="10.2"/>
		</g>
	</g>
	<g>
		<g>
			<path class="st35" d="M405.6,556h1.2c0.4,0,0.7-0.3,0.7-0.8v-5.2c0-0.4-0.3-0.8-0.7-0.8h-1.2v-1.6h89c1.2,0,2.1,1,2.1,2.3v5.2
				c0,1.3-0.9,2.3-2.1,2.3h-89V556z"/>
			<path class="st36" d="M405.6,556h1.2c0.4,0,0.7-0.3,0.7-0.8v-5.2c0-0.4-0.3-0.8-0.7-0.8h-1.2v-1.6H459v9.9h-53.4V556z"/>
			<path class="st23" d="M407.5,555.2v-5.2c0-0.4-0.3-0.8-0.7-0.8h87.8c0.4,0,0.7,0.3,0.7,0.8v5.2c0,0.4-0.3,0.8-0.7,0.8h-87.8
				C407.2,556,407.5,555.6,407.5,555.2z"/>
			<path class="st37" d="M407.5,555.2v-5.2c0-0.4-0.3-0.8-0.7-0.8h53.6c0.4,0,0.7,0.3,0.7,0.8v5.2c0,0.4-0.3,0.8-0.7,0.8h-53.6
				C407.2,556,407.5,555.6,407.5,555.2z"/>
			
				<linearGradient id="SVGID_1_" gradientUnits="userSpaceOnUse" x1="4287.0586" y1="380.4128" x2="4287.0586" y2="388.4528" gradientTransform="matrix(1 0 0 -1 -3798.1636 941.2828)">
				<stop  offset="0.863" style="stop-color:#FFDA7D"/>
				<stop  offset="1" style="stop-color:#FEAC22"/>
			</linearGradient>
			<polygon class="st38" points="485.5,560.9 488.9,558.8 492.3,560.9 492.3,552.8 488.9,552.8 485.5,552.8 			"/>
		</g>
		<g>
			<path class="st23" d="M490.6,524.8c-0.4,2.2-0.6-2.8-0.6-0.4c0,2.7,0.3,5.3,0.7,7.7h-57.3v-7.3H490.6z"/>
			<path class="st39" d="M490.6,524.8c-0.1,0.5-0.2,1-0.2,1.5h-51.6v-1.5H490.6z"/>
			<path class="st25" d="M431.2,522.5h60c0.4,0,0.7,0.3,0.7,0.6v1.6h-27.5v7.3h27.5v1.6c0,0.4-0.3,0.7-0.7,0.7h-60
				c-0.4,0-0.7-0.3-0.7-0.7v-10.6C430.6,522.8,430.9,522.5,431.2,522.5z"/>
			<path class="st40" d="M416.4,522.5h46.4c-0.4,0-0.7,0.3-0.7,0.6v10.6c0,0.4,0.3,0.6,0.7,0.6h-46.4c-0.4,0-0.7-0.3-0.7-0.6v-10.6
				C415.8,522.8,416.1,522.5,416.4,522.5z"/>
			<path class="st41" d="M416.4,522.5h46.4c-0.4,0-0.7,0.3-0.7,0.6v2.2h-46.4v-2.2C415.8,522.8,416.1,522.5,416.4,522.5z"/>
		</g>
		<g>
			<path class="st35" d="M485.2,546.1h-1.1c-0.4,0-0.7-0.4-0.7-0.8v-8.5c0-0.4,0.3-0.8,0.7-0.8h1.1v-1.6h-72c-1.1,0-2,1.1-2,2.4v8.5
				c0,1.3,0.9,2.4,2,2.4h72V546.1z"/>
			<path class="st42" d="M485.2,546.1h-1.1c-0.4,0-0.7-0.4-0.7-0.8v-8.5c0-0.4,0.3-0.8,0.7-0.8h1.1v-1.6h-37.4v13.3h37.4V546.1z"/>
			<path class="st20" d="M483.4,545.3v-8.5c0-0.4,0.3-0.8,0.7-0.8h-70.9c-0.4,0-0.7,0.4-0.7,0.8v8.5c0,0.4,0.3,0.8,0.7,0.8h70.9
				C483.7,546.1,483.4,545.7,483.4,545.3z"/>
			<path class="st43" d="M483.4,545.3v-8.5c0-0.4,0.3-0.8,0.7-0.8h-37.6c-0.4,0-0.7,0.4-0.7,0.8v8.5c0,0.4,0.3,0.8,0.7,0.8h37.6
				C483.7,546.1,483.4,545.7,483.4,545.3z"/>
		</g>
	</g>
	<g>
		<g>
			<path class="st1" d="M506.5,708.9c0,0,6-21.4,15.4-28.7c9.4-7.3,16.3-17.5,28.7-22.3s15.4-13.3,10.7-16.3
				c-4.7-3-20.1-11.6-39,8.1c-18.8,19.7-23.5,35.1-23.1,53.5C499.6,721.7,505.6,719.6,506.5,708.9z"/>
			<g>
				<path class="st44" d="M502.9,699l-2.3-0.1c0.9-18.4,17.7-36.8,25.7-42.8c8.6-6.5,27-11.9,27.8-12.2l0.7,2.2
					c-0.2,0.1-18.7,5.6-27,11.8C520,663.6,503.8,681.3,502.9,699z"/>
			</g>
		</g>
		<g>
			<path class="st25" d="M501.3,715.7c0,0-9.7-27.4-13.7-36c-4-8.6-3.4-29.1,2.8-37.1c6.3-8,16.6-20,12-37.7
				c-4.6-17.7-2.3-28.5,6.3-21.7s23.6,22,24,46.2c0.3,18.5-5.2,29.4-15.4,42.8C509,683.2,500.8,703.2,501.3,715.7z"/>
			<g>
				<path class="st45" d="M497.2,709.4c-0.2-1.1-5.2-27.9,0.1-39.2c1.2-2.6,2.8-5.7,4.5-9c5.5-10.8,13.1-25.7,13.8-36
					c1.2-16.5-9.1-32.5-9.2-32.7l1.9-1.3c0.4,0.7,10.9,16.8,9.6,34.1c-0.8,10.8-8.2,25.2-14.1,36.8c-1.7,3.3-3.3,6.4-4.4,8.9
					c-4.9,10.7,0,37.6,0.1,37.8L497.2,709.4z"/>
			</g>
		</g>
		<g>
			<path class="st6" d="M463.2,675.1c-11.1-2.1-12-15-3.4-17.5c8.6-2.6,22.7-2.1,29.5,6.8c7.9,10.4,11.1,29.1,8.6,42.4
				s0-5.1-5.6-14.1C486.8,683.6,472.4,676.8,463.2,675.1z"/>
			<g>
				<path class="st8" d="M498.4,703.4c-2-13.2-6.8-23.3-14.7-30.9c-10.3-9.8-25.2-7.1-25.4-7l-0.3-1.7c0.6-0.1,16-3,26.9,7.5
					c8.2,7.9,13.2,18.3,15.2,31.9L498.4,703.4z"/>
			</g>
		</g>
		<polygon class="st1" points="519.8,741.7 488.9,741.7 483.8,692 524.9,692 		"/>
	</g>
	<g>
		<path class="st21" d="M807.1,357.5c0.6-23-12.7-41.9-37.7-42.6c-25-0.7-39.4,17.5-40,40.5c-0.5,17.9,11.9,24.5,22.1,39.6
			c2,3-0.4,14.5-0.4,14.5l31.3,0.9c0,0-1.8-11.6,0.4-14.5C793.9,381.2,806.7,375.4,807.1,357.5z"/>
		<path class="st46" d="M764.5,402.1c-14.2-20.9-31.3-30-30.6-54.7c0.2-5.3,0.8-10.5,2-15.3c-4,6.6-6.2,14.6-6.4,23.3
			c-0.5,17.9,11.9,24.5,22.1,39.6c2,3-0.4,14.5-0.4,14.5l14.3,0.4C765.7,406.6,765.5,403.6,764.5,402.1z"/>
		<path class="st47" d="M750.6,409.4l-0.1,4.3c-0.2,7.1,5.4,13.1,12.6,13.3l6.5,0.2c7.2,0.2,13.1-5.5,13.3-12.6l0.1-4.3L750.6,409.4
			z"/>
		<g>
			<polygon class="st45" points="780.9,358.1 776.1,351.5 770.9,357.8 766.2,351.2 761,357.5 756.2,350.9 752.4,355.6 749.9,353.6 
				756.4,345.6 761.2,352.2 766.3,345.9 771.1,352.5 776.2,346.1 781,352.8 786.2,346.4 792.2,354.7 789.6,356.6 786,351.7 			"/>
		</g>
		<g>
			<polygon class="st45" points="764.2,409.2 761,409.1 761.7,382.2 755.2,360.9 758.3,359.9 765,381.8 			"/>
		</g>
		<g>
			<polygon class="st45" points="774.2,409.5 770.9,409.4 771.7,382 771.8,381.7 779.5,360.5 782.5,361.6 774.9,382.6 			"/>
		</g>
		
			<rect x="767.7" y="403.7" transform="matrix(2.730075e-02 -0.9996 0.9996 2.730075e-02 334.7199 1171.6899)" class="st48" width="3.4" height="20.2"/>
		
			<rect x="764.7" y="412.6" transform="matrix(2.720082e-02 -0.9996 0.9996 2.720082e-02 325.8632 1174.5559)" class="st48" width="3.4" height="14.6"/>
	</g>
	<g>
		<g>
			
				<rect x="613.3" y="252.1" transform="matrix(0.707 -0.7072 0.7072 0.707 7.5661 527.3204)" class="st23" width="53.7" height="4.9"/>
		</g>
		<g>
			<path class="st23" d="M628.8,253.2c-5.6,0-10.1-4.5-10.1-10.1s4.5-10.1,10.1-10.1c5.6,0,10.1,4.5,10.1,10.1
				C638.9,248.7,634.4,253.2,628.8,253.2z M628.8,238c-2.8,0-5.1,2.3-5.1,5.1c0,2.8,2.3,5.1,5.1,5.1c2.8,0,5.1-2.3,5.1-5.1
				C633.9,240.3,631.6,238,628.8,238z"/>
		</g>
		<g>
			<path class="st23" d="M649.7,276c-5.6,0-10.1-4.5-10.1-10.1c0-5.6,4.5-10.1,10.1-10.1c5.6,0,10.1,4.5,10.1,10.1
				C659.8,271.5,655.2,276,649.7,276z M649.7,260.8c-2.8,0-5.1,2.3-5.1,5.1c0,2.8,2.3,5.1,5.1,5.1c2.8,0,5.1-2.3,5.1-5.1
				C654.8,263.1,652.5,260.8,649.7,260.8z"/>
		</g>
		<g>
			<polygon class="st23" points="661.7,250.7 656.7,250.7 656.7,238 644,238 644,233.1 661.7,233.1 			"/>
		</g>
	</g>
	<g>
		<g>
			<path class="st20" d="M820.2,329.7c-10.5-13.7-15-30.7-12.8-47.8c2.1-15.6,9.6-29.7,21.3-40l11.3,14.8
				c-17.1,15.9-19.6,42.8-5.2,61.6c14.5,18.9,41,23.4,60.9,11l11.3,14.8c-13,8.6-28.5,12.3-44.2,10.2
				C845.9,352.2,830.7,343.4,820.2,329.7z"/>
			<path class="st6" d="M835,237.1c11.9-8.1,26-12,40.4-11.1l-2.4,18.5c-9.5-0.3-18.7,2.3-26.6,7.4L835,237.1z"/>
			<path class="st21" d="M902.2,324.7c17.7-15.9,20.5-43.1,5.8-62.3c-6.8-8.9-16.3-14.8-27.1-17.1l2.4-18.4
				c15.7,2.9,29.6,11.4,39.4,24.2c20.9,27.3,16.6,66.2-9.2,88.4L902.2,324.7z"/>
		</g>
	</g>
	<g>
		<g>
			<g>
				<path class="st27" d="M835.9,662.3c2.8,0,7.2-0.6,11.1-4c5.6-4.8,8-13.4,7.2-25.5c-0.6-8.2-3.8-16.5-7.2-25.2
					c-5.7-14.8-12.2-31.5-8.8-53.6l-6.3-1c-3.7,23.8,3.5,42.1,9.2,56.9c3.4,8.7,6.3,16.1,6.8,23.3c0.7,9.8-1,16.8-4.9,20.2
					c-3.7,3.2-8.3,2.4-8.4,2.4l-1.3,6.3C833.2,662.1,834.3,662.3,835.9,662.3z"/>
			</g>
			<g>
				<path class="st27" d="M791.7,662.3c2.8,0,7.2-0.6,11.1-4c5.6-4.8,8-13.4,7.2-25.5c-0.5-8.2-3.8-16.5-7.2-25.2
					c-5.7-14.8-12.2-31.5-8.8-53.6l-6.3-1c-3.7,23.8,3.5,42.1,9.2,56.9c3.4,8.7,6.3,16.1,6.8,23.3c0.7,9.8-1,16.8-4.9,20.2
					c-3.7,3.2-8.3,2.4-8.4,2.4l-1.3,6.3C789,662.1,790.1,662.3,791.7,662.3z"/>
			</g>
			<g>
				<g>
					<path class="st28" d="M786.9,713l-6.2,9.5l52.3,16.8c0,0,3.5-3.3-9.3-10C808.7,721.3,786.9,713,786.9,713z"/>
					<path class="st28" d="M777.6,713l6.2,9.5l-52.3,16.8c0,0-3.5-3.3,9.3-10C755.9,721.3,777.6,713,777.6,713z"/>
				</g>
				<rect x="776.8" y="684.7" class="st28" width="10.9" height="38.9"/>
				<g>
					<path class="st29" d="M787.6,715l-5.3,9l44.8,16c0,0,3-3.2-8-9.6C806.3,723,787.6,715,787.6,715z"/>
					<path class="st29" d="M776.9,715l5.3,9l-44.8,16c0,0-3-3.2,8-9.6C758.3,723,776.9,715,776.9,715z"/>
				</g>
				<path class="st8" d="M822,743.6c0,2.1,1.7,3.8,3.8,3.8c2.1,0,3.8-1.7,3.8-3.8c0-2.1-1.7-3.8-3.8-3.8
					C823.7,739.8,822,741.5,822,743.6z"/>
				<path class="st8" d="M735.3,743.6c0,2.1,1.7,3.8,3.8,3.8c2.1,0,3.8-1.7,3.8-3.8c0-2.1-1.7-3.8-3.8-3.8
					C737,739.8,735.3,741.5,735.3,743.6z"/>
				<path class="st27" d="M831.1,743.6c0,2.1,1.7,3.8,3.8,3.8c2.1,0,3.8-1.7,3.8-3.8c0-2.1-1.7-3.8-3.8-3.8
					C832.8,739.8,831.1,741.5,831.1,743.6z"/>
				<path class="st27" d="M726.1,743.6c0,2.1,1.7,3.8,3.8,3.8c2.1,0,3.8-1.7,3.8-3.8c0-2.1-1.7-3.8-3.8-3.8
					C727.8,739.8,726.1,741.5,726.1,743.6z"/>
			</g>
			<rect x="778.4" y="670.5" class="st27" width="8" height="14"/>
			<path class="st27" d="M772.4,663.1c0,4.3,3.5,7.8,7.8,7.8h4.4c4.3,0,7.8-3.5,7.8-7.8l0,0c0-4.3-3.5-7.8-7.8-7.8h-4.4
				C775.9,655.3,772.4,658.8,772.4,663.1L772.4,663.1z"/>
			<path class="st1" d="M723,656c-0.2-0.9-0.3-6.7-0.3-7.7c0-6.3,4.1-11.4,9.1-11.4H833c5,0,9.1,5.1,9.1,11.4c0,1-0.1,6.7-0.3,7.7
				H723z"/>
			<path class="st27" d="M843,659.1c0,1.9-1.1,3.5-2.5,3.5H724.3c-1.4,0-2.5-1.6-2.5-3.5l0,0c0-1.9,1.1-3.5,2.5-3.5h116.2
				C841.9,655.6,843,657.1,843,659.1L843,659.1z"/>
			<g>
				<path class="st1" d="M837.4,597.5c-2.5,0.2-18.4,0.5-21.1,0.5c-17.4,0.2-32.3-3-33.2-7.3c-3.4-17.8-3.6-36-0.4-53.8
					c0.7-4.3,15.9-7.5,33.7-7.3c2.8,0,19,0.3,21.5,0.5C832.4,552.3,832.2,575.4,837.4,597.5z"/>
				<path class="st27" d="M839.7,530.1c1.9,0,3.3,1,3,2.1c-4.8,20.8-5,42.5-0.5,63.3c0.2,1.1-1.1,2-3,2.1l0,0c-1.9,0-3.7-0.9-3.9-2
					c-4.5-20.9-4.4-42.6,0.4-63.5C836,531,837.8,530.1,839.7,530.1L839.7,530.1z"/>
				<path class="st30" d="M839.3,597.1c-0.5,0.2-3.9,0.3-4.6,0.3c-3.8,0-7.7-3.3-8.4-7.5c-3.2-17.5-3.1-35.5,0.2-53
					c0.8-4.2,4.8-7.5,8.6-7.5c0.6,0,4.1,0.1,4.6,0.3C834.4,551.9,834.2,575,839.3,597.1z"/>
			</g>
		</g>
		<g>
			<g>
				<g>
					<path class="st49" d="M746,531.5c6.2,10,19.5,13,29.7,6.6c10.2-6.3,13.4-19.6,7.2-29.6c-6.2-10-19.5-13-29.7-6.6
						C743,508.3,739.8,521.6,746,531.5z"/>
					<path class="st49" d="M737.9,559.7c7.8,12.6,24.6,16.3,37.5,8.3s17-24.7,9.1-37.3c-7.8-12.6-24.6-16.3-37.5-8.3
						S730.1,547.1,737.9,559.7z"/>
					<g>
						<g>
							<g>
								<path class="st24" d="M763.7,586.7c0,0,1.2,3.5-15.5,9.5c-16.6,6.1-42.6,10.9-42.6,10.9l37.1-17.6
									C742.7,589.5,757.2,583.5,763.7,586.7z"/>
								<path class="st24" d="M719.2,603.6c-7.8,3.1-9.6,8.4-12.2,10.9c-2.6,2.5-5,5.6-5,5.5c0.4-4,2.9-5.2,3.7-6.7
									c0.8-1.6,0.7-0.9-2.2,0c-1.6,0.5-3.3,4.4-4.7,6.8c-1.2,2-2.2,2.6-2.2,2.6s0.9-3.6,2.6-6.9c2-4,4.9-7.8,5.7-8.6
									c1.4-1.3,6.6-3.6,10.5-4.6C719.8,601.3,724.8,601.3,719.2,603.6z"/>
								<path class="st24" d="M705.4,607.1c0,0-5.4,3.9-6.1,5.1c-0.5,0.8-2.3,5.3-2.3,5.3s2.1-1.3,2.9-3
									C700.7,612.8,705.4,607.1,705.4,607.1z"/>
							</g>
							<path class="st25" d="M753.6,582.5c0,0,15.5-5.2,18.1,4.2c1.5,5.3-1.3,8.5-6,10c-8.8,2.8-18.9,5.4-18.9,5.4l-9.9-12.2
								L753.6,582.5z"/>
						</g>
						<path class="st25" d="M751.9,574.7l0-43.8c0,0-1.5-11.3,2.6-11.5c5.9-0.3,8.1,9.4,8.9,12.9c1.8,7.1,3.6,9.7,5.3,27.8
							c1.1,11.1,3.2,23.6,3.2,31.2c0.1,5.2-5.6,0-10.9,0C751.2,591.3,751.9,574.7,751.9,574.7z"/>
					</g>
					<polygon class="st5" points="669.2,705.9 657.9,738.8 637.9,741.3 627.5,740.3 648.8,732.9 657.5,702.5 					"/>
					<path class="st8" d="M656.2,744l-2.7-0.3l-1.8-3.1l-16.1,2.4l-13.3-1.1c0,0,0.2-1,0.7-1.4c2.2-1.5,12.3-3.1,12.3-3.1
						s-0.8,2.9,0.4,3.4c1.2,0.5,13.6-1.6,16.6-2.3c5.1-1.3,7.6-2.8,7.5-2.1C659.5,737.3,656.2,744,656.2,744z"/>
					<path class="st9" d="M742.8,633.8l-47.5,3.6L668,718.3l-15.2-4.3l24.9-96.5c0,0,2.1-6.2,16.4-7.6c13.9-1.4,69.9-8.7,76.5-7.6
						C786.2,605,738.9,621.3,742.8,633.8z"/>
					<path class="st49" d="M763.3,502c6.2,10,19.5,13,29.7,6.6c10.2-6.3,13.4-19.6,7.2-29.6c-6.2-10-19.5-13-29.7-6.6
						C760.4,478.7,757.1,492,763.3,502z"/>
					<path class="st49" d="M740.5,497.4c4.8,7.7,14.8,10,22.5,5.3l-0.6-8.8c7.7-4.8,10-14.9,5.3-22.5l-3.2-5.2
						c-4.8-7.7-14.8-10-22.5-5.3l-3.5,2.2c-7.7,4.8-10,14.9-5.3,22.5L740.5,497.4z"/>
					<path class="st5" d="M733.4,473.6c0.8,1.3,1.7,2.5,2.8,3.7c6.9,8,16.6,11.5,23,8.6c2.7,3.9,5.8,7,8.6,9.5c3.3,2.8,9.7,4,9.7,4
						c4.9,5.6,4.3,23.2-10.8,26.6c-9,2-8.2-7.8-5.6-14.1c1.2-3,2.3-6.4,1.8-7.9c-1.7-5.4-3.8-6-7.3-7.5c-5.7-1.8-10.5,1.2-10.5,1.2
						c-0.5,0.3-1,0.4-1.5,0.2c-0.8-0.7-1.6-1.6-2.2-2.6l-7.1-11.5C732.4,480.6,732.2,476.8,733.4,473.6z"/>
					<path class="st50" d="M795.9,612.9c0,0-6.8,2.1-8.7,3.1c-2.5,1.2-10.1,0.8-10.1,0.8s-4.8-37.1-7.9-49.9
						c-3.2-12.8-6.9-16-7.3-20c-0.6-6.5-0.3-8.1,0.4-13.2c0.6-5.2-3.4-11.5-2.1-10.3c2.1,1.9,9.3,4.4,14.9-3.4
						C776.1,518.5,795.9,612.9,795.9,612.9z"/>
					<path class="st45" d="M760.3,508c0,0-8.5,10.5-7.8,13.6c0.7,3.1,1.1,16.3,4.7,30.1c3.6,13.8,5.7,17,7.1,27.2
						c1.4,10.2-0.7,12.7,1.4,25.1c1.7,9.8,4.1,18.3,4.1,18.3s4.6,0.8,7.6-3.2s-1.7-38-3.8-46.3c-2.1-8.3-9.3-29.8-9.6-35.7
						c-0.3-5.9,0.2-20.1,1-22C767.1,510.2,761,508.4,760.3,508z"/>
					<path class="st25" d="M760.1,507.1c0,0,0.6,0.8,1.3,1.1c1.3,0.7,3,2.2,3,2.2s-2-0.7-2.5,1c-0.7,2.1-0.8,6.7-0.8,6.7
						s-4.1-5.4-3.4-7.3C758.9,507.4,760.1,507.1,760.1,507.1z"/>
					<path class="st49" d="M775.4,528.4c4.8,11.3,18.1,16.5,29.6,11.5c11.5-4.9,17-18.1,12.2-29.4s-18.1-16.5-29.6-11.5
						C776,504,770.6,517.2,775.4,528.4z"/>
					<polygon class="st5" points="716.6,708 718.2,730.1 714.2,735.8 703,743.9 694,743.2 708.4,730 707.1,706.8 					"/>
					<path class="st8" d="M718,734.9l-3.7,3.3l-1.3-0.8l-12.6,8.7c0,0-6.7,4.3-8.8,2.2c-0.7-0.7-0.2-3.2,1.9-5.1
						c1.6-1.5,2.7-2.1,2.7-2.1s0.6,1.7,4.7,1.9c1.3,0.1,8.7-6,11.2-7.6c4.6-2.9,6.2-6.5,6.5-6.3C719.3,729.9,718,734.9,718,734.9z"
						/>
					<path class="st6" d="M798.4,582.4l-4.3,14.1l-9.7,2.2l-78.7,13.2c0,0-7.3-1.5-10.7,10.2c-4.8,16.6,11.8,95.6,11.8,95.6
						l11.7-1.4l-1.4-75.9c0,0,77.5,5.5,98.8-3.5c8.2-3.5,13.1-19,10.3-33.9c-2.2-11.7-11.1-21.7-11.1-21.7L798.4,582.4z"/>
					<path class="st45" d="M790.6,611.8c0,0-7.1-32.8-10.8-48.4c-3.7-15.5-5.9-42-6.8-45.7c-0.9-3.7-3.4-9-3.4-9s2.9-9,8-9.2
						c4.4-0.2,18.8,3,25.8,5.1c4.8,1.4,7.8,54.6,8.5,57.4c2.5,9.9,8.7,20.9,12.7,28.5c3.2,6.1,6.1,15.3,6.1,15.3
						S805,605.5,790.6,611.8z"/>
					<path class="st25" d="M776.3,497.1l-3.3,4.6c0,0-4.5,7.7-2.9,6.5c2-1.5,5.3,5.7,5.3,5.7l5.5-14.9L776.3,497.1z"/>
					<g>
						<path class="st5" d="M815,574.7c0,0,6.2,3.5-15.5,8c-21.7,4.5-54.5,6.2-54.5,6.2l49.1-14.6C794.1,574.3,807.7,570.1,815,574.7
							z"/>
						<path class="st5" d="M762.4,586.9c-10.3,2.4-13.5,8.1-17.2,10.5c-3.7,2.4-7.2,5.6-7.2,5.5c1.3-4.5,4.6-5.4,5.9-7.1
							c1.3-1.7,1.1-0.9-2.6-0.3c-2.1,0.3-4.9,4.5-7.1,7c-1.9,2.1-3.3,2.6-3.3,2.6s1.8-4,4.6-7.5c3.3-4.2,7.7-8.2,8.8-8.9
							c2-1.3,8.8-3.1,13.8-3.7C763.6,584.4,769.7,585.1,762.4,586.9z"/>
						<path class="st5" d="M744.7,588.8c0,0-7.4,3.7-8.6,4.9c-0.8,0.9-3.9,5.7-3.9,5.7s2.8-1.1,4.2-3
							C737.8,594.6,744.7,588.8,744.7,588.8z"/>
					</g>
					<path class="st25" d="M801.4,569.8l-12.1-47.5c0,0,0.7-10.1,3.5-13.8c3.2-4.4,10.3-3.9,10.3-3.9s8.8,5.9,13.3,44
						c3.1,26.1,6.6,36.6-4.6,38.9c-10.4,2.1-22.3,4-22.3,4l-9.6-15L801.4,569.8z"/>
				</g>
				<g>
					<polygon class="st51" points="744.7,603.5 675.6,610.5 675.4,609.1 744.6,602 					"/>
					<path class="st51" d="M714.1,605.1c0.1,1.1-0.6,2.1-1.5,2.2l-35.5,3.6c-1,0.1-2.3-0.5-3.8-3.2l-20.8-30.2
						c-0.1-1.4,0.8-2.3,1.8-2.2l36.5-2.7c1,0.1,1.8,0.8,2.5,2.2L714.1,605.1z"/>
					<path class="st15" d="M709.9,607l0.4,0l34.6-3.6c-1.2,0.8-3.2,1.4-5.6,1.7l-29,3l-0.4,0l-29,3c-2.3,0.2-4.5,0-5.8-0.5
						L709.9,607z"/>
				</g>
			</g>
		</g>
	</g>
</g>
</svg>
