<?xml version="1.0" encoding="utf-8"?>
<!-- Generator: Adobe Illustrator 23.0.3, SVG Export Plug-In . SVG Version: 6.00 Build 0)  -->
<svg version="1.1" id="Layer_1" xmlns="http://www.w3.org/2000/svg" xmlns:xlink="http://www.w3.org/1999/xlink" x="0px" y="0px"
	 viewBox="0 0 1443.6 726.1" style="enable-background:new 0 0 1443.6 726.1;" xml:space="preserve">
<style type="text/css">
	.st0{fill:#D1F5FF;}
	.st1{fill:none;}
	.st2{fill:#E4EFFF;}
	.st3{clip-path:url(#SVGID_2_);fill:#BFE4FF;}
	.st4{fill:#CFD9E8;}
	.st5{fill:#ACD5F4;}
	.st6{opacity:0.7;}
	.st7{fill:#93CEF5;}
	.st8{fill:#7DBFE8;}
	.st9{opacity:0.3;}
	.st10{opacity:0.2;fill:#FFFFFF;enable-background:new    ;}
	.st11{fill:#36A6C2;}
	.st12{fill:#E9D6B8;}
	.st13{fill:#194866;}
	.st14{fill:#3BB6D5;}
	.st15{fill:#161711;}
	.st16{fill:#163F59;}
	.st17{fill:#B0BFDE;}
	.st18{fill:#AEBDDC;}
	.st19{fill:#F1F0F6;}
	.st20{fill:#D9E1E4;}
	.st21{fill:#BAC2C6;}
	.st22{opacity:0.34;fill:#FFFFFF;enable-background:new    ;}
	.st23{fill:#FFC40E;}
	.st24{fill:#165670;}
	.st25{fill:#367082;}
	.st26{fill:#88BDDA;}
	.st27{fill:#001F46;}
	.st28{fill:#3DC7C9;}
	.st29{fill:#33A8B5;}
	.st30{fill:#DCE5EA;}
	.st31{fill:#B4C0C7;}
	.st32{fill:#D6E3EB;}
	.st33{fill:#8599A4;}
	.st34{fill:#D7DFE2;}
	.st35{fill:#E2C59C;}
	.st36{fill:#FECE40;}
	.st37{fill:#D1DBEA;}
	.st38{fill:#D0DEE6;}
	.st39{fill:#B6C2C9;}
	.st40{fill:#86BBD8;}
	.st41{fill:url(#SVGID_3_);}
	.st42{fill:#F8C44F;}
	.st43{fill:#36AFB1;}
	.st44{fill:#2C5B6A;}
	.st45{fill:#FFFFFF;}
	.st46{fill:#3096AF;}
	.st47{fill:#F4DA80;}
</style>
<path class="st0" d="M-697.4,2199"/>
<line class="st1" x1="-769.4" y1="941" x2="-920.4" y2="-800.2"/>
<path class="st2" d="M803.8-626.7"/>
<line class="st1" x1="1609.4" y1="-516.2" x2="1609.4" y2="2188"/>
<g>
	<defs>
		<rect id="SVGID_1_" x="-565" y="-349.1" width="2000.7" height="1146.2"/>
	</defs>
	<clipPath id="SVGID_2_">
		<use xlink:href="#SVGID_1_"  style="overflow:visible;"/>
	</clipPath>
	<path class="st3" d="M1207.4,528.9c-108.7-8.4-359.4-24.3-564.9-33.7c-381-17.3-790.7,73.1-585.7,115.2
		c57.3,11.8-105.9,91.6,297.3,101.6c353.9,8.8,713.9-30.5,888.1-47.7c174.2-17.2,254.3-43.5,291.5-55.4
		C1566.4,598.5,1549.6,555.2,1207.4,528.9z"/>
</g>
<g>
	<rect x="896.9" y="41.2" class="st2" width="354.6" height="274.5"/>
	<rect x="891" y="27.4" class="st4" width="366.5" height="14.9"/>
	<rect x="891" y="25.6" class="st2" width="366.5" height="11.7"/>
	<rect x="912.3" y="56.7" class="st5" width="323.8" height="243.6"/>
	<g>
		<g class="st6">
			<rect x="975.2" y="83.7" class="st7" width="93.8" height="194.7"/>
			<rect x="971.2" y="273.3" class="st7" width="101.8" height="25.7"/>
			<rect x="971.2" y="275.2" class="st7" width="15.3" height="23.7"/>
			<rect x="1057.6" y="275.2" class="st7" width="15.3" height="23.7"/>
			<rect x="981.5" y="275.2" class="st8" width="87" height="23.7"/>
			<rect x="975.2" y="83.7" class="st8" width="93.8" height="9.8"/>
			<rect x="970.5" y="74" class="st7" width="103.1" height="12.1"/>
			<g>
				<rect x="982.3" y="100.4" class="st8" width="15.7" height="15.7"/>
				<rect x="1003.6" y="100.4" class="st8" width="15.7" height="15.7"/>
				<rect x="1024.9" y="100.4" class="st8" width="15.7" height="15.7"/>
				<rect x="1046.1" y="100.4" class="st8" width="15.7" height="15.7"/>
			</g>
			<g>
				<rect x="982.3" y="121.2" class="st8" width="15.7" height="15.7"/>
				<rect x="1003.6" y="121.2" class="st8" width="15.7" height="15.7"/>
				<rect x="1024.9" y="121.2" class="st8" width="15.7" height="15.7"/>
				<rect x="1046.1" y="121.2" class="st8" width="15.7" height="15.7"/>
			</g>
			<g>
				<rect x="982.3" y="142" class="st8" width="15.7" height="15.7"/>
				<rect x="1003.6" y="142" class="st8" width="15.7" height="15.7"/>
				<rect x="1024.9" y="142" class="st8" width="15.7" height="15.7"/>
				<rect x="1046.1" y="142" class="st8" width="15.7" height="15.7"/>
			</g>
			<g>
				<rect x="982.3" y="162.8" class="st8" width="15.7" height="15.7"/>
				<rect x="1003.6" y="162.8" class="st8" width="15.7" height="15.7"/>
				<rect x="1024.9" y="162.8" class="st8" width="15.7" height="15.7"/>
				<rect x="1046.1" y="162.8" class="st8" width="15.7" height="15.7"/>
			</g>
			<g>
				<rect x="982.3" y="183.6" class="st8" width="15.7" height="15.7"/>
				<rect x="1003.6" y="183.6" class="st8" width="15.7" height="15.7"/>
				<rect x="1024.9" y="183.6" class="st8" width="15.7" height="15.7"/>
				<rect x="1046.1" y="183.6" class="st8" width="15.7" height="15.7"/>
			</g>
			<g>
				<rect x="982.3" y="204.4" class="st8" width="15.7" height="15.7"/>
				<rect x="1003.6" y="204.4" class="st8" width="15.7" height="15.7"/>
				<rect x="1024.9" y="204.4" class="st8" width="15.7" height="15.7"/>
				<rect x="1046.1" y="204.4" class="st8" width="15.7" height="15.7"/>
			</g>
			<g>
				<rect x="982.3" y="225.2" class="st8" width="15.7" height="15.7"/>
				<rect x="1003.6" y="225.2" class="st8" width="15.7" height="15.7"/>
				<rect x="1024.9" y="225.2" class="st8" width="15.7" height="15.7"/>
				<rect x="1046.1" y="225.2" class="st8" width="15.7" height="15.7"/>
			</g>
			<g>
				<rect x="982.3" y="246" class="st8" width="15.7" height="15.7"/>
				<rect x="1003.6" y="246" class="st8" width="15.7" height="15.7"/>
				<rect x="1024.9" y="246" class="st8" width="15.7" height="15.7"/>
				<rect x="1046.1" y="246" class="st8" width="15.7" height="15.7"/>
			</g>
		</g>
		<g>
			<polygon class="st7" points="1236.7,232.2 1113.7,232.2 1113.7,147.4 1236.7,167.6 			"/>
			<polygon class="st8" points="1236.7,171.2 1111.2,151 1111.2,144.2 1236.7,164.4 			"/>
			<rect x="1042.5" y="234.4" class="st7" width="194.2" height="64.6"/>
			<rect x="1193.5" y="275.4" class="st7" width="26.9" height="23.5"/>
			<rect x="1057" y="254" class="st8" width="69" height="31.2"/>
			<rect x="1140" y="254" class="st8" width="82.7" height="11.5"/>
			<rect x="1113.7" y="186.4" class="st8" width="91.2" height="31.2"/>
			<rect x="1038.4" y="231.2" class="st8" width="198.3" height="6.8"/>
		</g>
		<g class="st9">
			<g>
				<polygon class="st7" points="974.1,299 932.9,299 932.9,249 953,234 974.1,249 				"/>
				<polygon class="st8" points="953,234.7 974.9,250.7 974.9,247 953,229.8 932.1,247 932.1,250.7 				"/>
			</g>
			<rect x="950.4" y="259" class="st8" width="6.2" height="13.2"/>
		</g>
	</g>
	<polygon class="st10" points="986,300.3 1174.1,56.7 1146.6,56.7 958.5,300.3 	"/>
	<polygon class="st10" points="1011.6,300.3 1199.7,56.7 1187.3,56.7 999.2,300.3 	"/>
	<rect x="1066.5" y="52" class="st2" width="15.4" height="252.9"/>
</g>
<g>
	<g>
		<path class="st11" d="M488,104.6c0,0-7.4,11,6,23.5c22.9,21.4,52.4,33.3,58.2,35.7c5.7,2.5,23.1,6.5,28.9-1.1
			c5.8-7.7-12.1-22-12.1-22s-20.1-11.1-38.2-22.6C512.8,106.6,488,104.6,488,104.6z"/>
		<path class="st11" d="M608.4,83.3c0,0-22.2-11.1-24.1-5.5c-8.1,24.4-20.6,50.7-21.9,56.8c-1.3,6.1-2,23.9,6.7,28.2
			c8.7,4.3,19.2-16.1,19.2-16.1s7-21.9,14.9-41.9C611.1,84.8,608.4,83.3,608.4,83.3z"/>
		<g>
			<path class="st12" d="M508.5,104.1c-0.5,6.4-4,12-7.6,12.2c-3.4,0-6.9,0-10.3,0c-3.6-0.3-7.1-5.8-7.6-12.2
				c-0.8-10.6-1.7-21.2-2.5-31.7c-0.6-6.4,1.9-19.1,7.4-22.8c5-3.4,10.8-3.4,15.8,0c5.5,3.8,8,16.5,7.4,22.8
				C510.2,82.9,509.4,93.5,508.5,104.1z"/>
			<path class="st12" d="M429.4,210.6l27.6,44.9c0,0-41.1-19.7-38.9-38.1C420.2,199.1,429.4,210.6,429.4,210.6z"/>
			<path class="st13" d="M493.3,261.6c0,0,15.4,73,31.5,111.7c14.2,34.3,30.8-10.3,30.8-10.3l-26-132.7l-42.8-3.2
				C486.8,227,483.9,228,493.3,261.6z"/>
			<path class="st13" d="M496.9,227.3l5.3,56.8l-7.4,4.4c0,0-4.3,84.4-5.7,88.7c-8,24.4-28.8,9.8-31.6,1.6
				c-2.8-8.2-7.5-68.4-6.6-112.4c1-44,1-44,1-44L496.9,227.3z"/>
			<path class="st14" d="M534.2,120.9l-27.5-14l-7.4,3l-21.3-2.3l-33,11.3c0,0-6.7,8.7-0.7,40.1c6,31.2,6.5,81.6,6.5,81.6l82.3,4.9
				C533.1,245.4,544.1,114,534.2,120.9z"/>
			<path class="st14" d="M459.1,120.2c0,0-11.2-9.7-24.1,8.2c-19.2,26.5-30.4,57.1-32.6,63.3c-2.1,6.1-5,24.5,3.5,29.9
				c8.5,5.4,8.5,5.4,8.5,5.4l18.9-11l-3.3-6l-2.2-2.7c0,0,9.9-21.8,20.5-41.5C459.1,146,459.1,120.2,459.1,120.2z"/>
			<polygon class="st11" points="500.6,109.1 495.3,119.3 478.9,107.3 482.1,101.5 			"/>
			<polygon class="st11" points="509.4,101.8 502,109.1 509.2,117.7 513.3,106.8 			"/>
			<path class="st15" d="M458.9,518.3c-0.7,1-0.2,3.6-0.2,3.6s12.7,1.6,16.8,0.6c1.1-0.3,2.9-1.3,4.5-2.4c0.3-0.2,0.8-1.3,1.1-1.5
				c0.5-0.3,0.8,0.2,1.2-0.1c1.1-0.8,1.9-1.4,1.9-1.5c1.1-6.5-0.4-9.2-0.4-9.2s-10.8-4.1-12.9-1.3
				C466.3,513.2,460.5,516.1,458.9,518.3z"/>
			<path class="st15" d="M549.5,503.9l1.9,10.6h10.3c0,0,0.6-1.5,1.4-1.5c0.7,0,1.7,1.5,2.7,1.5c2.2,0,4.6,0,5.5,0
				c1.9,0,20.7,0,20.7,0s0.5-2.2-0.1-3c-0.3-0.4-2-1.1-3.2-1.4c-5.3-1.6-20.6-6.5-23.2-11.8C562.4,491.7,549.5,503.9,549.5,503.9z"
				/>
			<path class="st13" d="M487.2,354.9c0,0,3.4,16,2.9,46.2c-0.3,19.1-2.1,69.8-5.4,107.5c-0.2,2.3-17.9,0.6-17.9,0.6
				S456,386.7,455.1,363.1C454.8,355.9,473.1,338.1,487.2,354.9z"/>
			<path class="st13" d="M548.4,360.9c0,0-5.6-2.2-20.8,2.2C517.8,366,548,505.6,548,505.6l22.4-8.2l-15.4-137.9L548.4,360.9z"/>
			<g>
				<path class="st16" d="M497.3,42v-7.3h3h8h4.8c5.3,0,9.7,4.3,9.7,9.7v7.3h-3h-8h-4.8C501.6,51.7,497.3,47.3,497.3,42z"/>
				<path class="st12" d="M482.1,86.6c0,4.7,3.8,8.6,8.6,8.6h19.5c4.7,0,8.6-3.8,8.6-8.6v-39c0-4.7-3.8-8.6-8.6-8.6h-19.5
					c-4.7,0-8.6,3.9-8.6,8.6V86.6z"/>
				<path class="st16" d="M496.6,34.7c-3.4,0-6.3,1.7-8.1,4.4h-3.3c-4.1,0-7.5,3.4-7.5,7.5V65h5.3v-7.5c0-2.9,2.4-5.3,5.3-5.3h3.1h8
					h4.8c5.3,0,9.7-4.3,9.7-9.7v-7.9H496.6z"/>
				<path class="st12" d="M484.7,69.8c0-2.5-2.1-4.6-4.6-4.6h-0.4c-2.5,0-4.6,2-4.6,4.6v5.6c0,2.5,2.1,4.6,4.6,4.6h0.4
					c1.9,0,3.5-1.1,4.2-2.7L484.7,69.8z"/>
			</g>
		</g>
		<g>
			<g>
				<polygon class="st17" points="585,117.6 581,106.4 565.7,497.8 570.2,497.8 				"/>
				<polygon class="st17" points="568.3,497.8 570.2,497.8 585,117.6 583.3,113 				"/>
			</g>
			<polygon class="st17" points="632.4,316.4 565.8,316.4 575.3,74.6 641.9,74.6 			"/>
			<g>
				<polygon class="st4" points="794,275.2 799.9,268.3 822.4,510.1 815.8,510.1 				"/>
				<polygon class="st18" points="818.5,510.1 815.8,510.1 794,275.2 796.4,272.4 				"/>
			</g>
			<g>
				<polygon class="st4" points="604.7,275.2 610.7,268.3 633.2,510.1 626.6,510.1 				"/>
				<polygon class="st18" points="629.3,510.1 626.6,510.1 604.7,275.2 607.2,272.4 				"/>
			</g>
			<polygon class="st19" points="598.5,316.4 814.1,316.4 791.6,74.6 576,74.6 			"/>
		</g>
		<g>
			<path class="st12" d="M596,68.8c-3.4,0.4-11.8,4.9-11.8,4.9l12.5,0.4c0.3,1.6,0.1,2.6,0.1,2.6l0.4,7.9l-0.1,3.7
				c0,0-0.2,2.1,0.2,2.6c1.1,1.6,1.8,0.2,1.8,0.2l1.7-14.2l2,13.6c0,0,0.6,1.7,1.5,1.8c0.9,0,0.8-0.5,0.8-0.5l1.3-15.9l1.8,6.9
				c0,0,0.6,1.6,1.5,1.8c1,0.1,1.3,0.2,1.3,0.2l-1.8-14.5C609.1,70.1,602.8,68.1,596,68.8z"/>
			<path class="st12" d="M603.3,77.4l2,9.5c0,0,0.2,2.2,0.9,3.1c0.8,1.1,1.8,0.4,1.8,0.4l-1.6-14.6L603.3,77.4z"/>
		</g>
	</g>
	<g>
		<g>
			<polygon class="st20" points="709.4,104.4 605.4,104.4 605,100.1 709,100.1 			"/>
		</g>
		<g>
			<polygon class="st20" points="638.3,95.3 604.6,95.3 604.2,91 637.9,91 			"/>
		</g>
		<g>
			<g>
				<g>
					<g>
						<g>
							<path class="st21" d="M788.9,297.6H626.2l-16.1-184.3h162.6L788.9,297.6z M626.4,297.4h162.2l-16.1-184H610.3L626.4,297.4z"
								/>
						</g>
						<g>
							<rect x="624" y="271.1" class="st21" width="162.4" height="0.2"/>
						</g>
						<g>
							<rect x="621.7" y="244.8" class="st21" width="162.4" height="0.2"/>
						</g>
						<g>
							<rect x="619.4" y="218.5" class="st21" width="162.4" height="0.2"/>
						</g>
						<g>
							<rect x="617.1" y="192.1" class="st21" width="162.4" height="0.2"/>
						</g>
						<g>
							<rect x="614.8" y="165.8" class="st21" width="162.4" height="0.2"/>
						</g>
						<g>
							<rect x="612.5" y="139.5" class="st21" width="162.4" height="0.2"/>
						</g>
						<g>
							<polygon class="st21" points="734.5,297.5 718.4,113.3 718.6,113.3 734.7,297.5 							"/>
						</g>
						<g>
							<polygon class="st21" points="680.4,297.5 664.3,113.3 664.5,113.3 680.6,297.5 							"/>
						</g>
					</g>
					<g>
						
							<rect x="600.7" y="117.5" transform="matrix(0.6728 -0.7398 0.7398 0.6728 111.4062 487.0964)" class="st21" width="11.4" height="0.2"/>
					</g>
					<g>
						
							<rect x="603" y="143.8" transform="matrix(0.6739 -0.7388 0.7388 0.6739 92.1885 496.6203)" class="st21" width="11.4" height="0.2"/>
					</g>
					<g>
						<polygon class="st21" points="607.2,174.4 607.1,174.3 614.8,165.9 614.9,166 						"/>
					</g>
					<g>
						<polygon class="st21" points="609.5,200.7 609.4,200.6 617.1,192.2 617.2,192.3 						"/>
					</g>
					<g>
						<polygon class="st21" points="611.8,227 611.7,226.9 619.4,218.5 619.5,218.6 						"/>
					</g>
					<g>
						
							<rect x="612.3" y="248.9" transform="matrix(0.6753 -0.7376 0.7376 0.6753 16.9929 536.6429)" class="st21" width="11.4" height="0.2"/>
					</g>
					<g>
						<polygon class="st21" points="616.4,279.6 616.3,279.5 624,271.1 624.1,271.2 						"/>
					</g>
					<g>
						<path class="st21" d="M609,280.3L609,280.3l-0.8,0.5l-0.2-0.5l1-0.6h0.6l0.4,4.8h-0.6L609,280.3z"/>
						<path class="st21" d="M614.7,282c0.1,1.6-0.4,2.5-1.4,2.5c-0.9,0-1.6-0.9-1.8-2.5c-0.1-1.6,0.5-2.5,1.4-2.5
							C613.9,279.6,614.5,280.5,614.7,282z M612.1,282.1c0.1,1.2,0.6,2,1.1,2c0.7,0,0.9-0.8,0.8-2c-0.1-1.2-0.5-2-1.1-2
							C612.3,280.1,612,280.8,612.1,282.1z"/>
					</g>
					<g>
						<path class="st21" d="M605.7,258.3l0-0.4l0.5-0.5c1.1-1.2,1.6-1.8,1.6-2.5c0-0.5-0.3-0.9-1-0.9c-0.4,0-0.8,0.2-1,0.4l-0.3-0.5
							c0.3-0.3,0.8-0.5,1.3-0.5c1,0,1.5,0.7,1.6,1.4c0.1,0.9-0.5,1.6-1.4,2.6l-0.3,0.3v0h2.1l0.1,0.5L605.7,258.3L605.7,258.3z"/>
						<path class="st21" d="M612.4,255.9c0.1,1.6-0.4,2.5-1.4,2.5c-0.9,0-1.6-0.9-1.8-2.5c-0.1-1.6,0.5-2.5,1.4-2.5
							C611.6,253.5,612.3,254.4,612.4,255.9z M609.8,255.9c0.1,1.2,0.6,2,1.1,2c0.7,0,0.9-0.8,0.8-2c-0.1-1.2-0.5-2-1.1-2
							C610,254,609.7,254.6,609.8,255.9z"/>
					</g>
					<g>
						<path class="st21" d="M603.5,231.4c0.2,0.1,0.6,0.3,1.1,0.3c0.8,0,1-0.5,1-0.9c-0.1-0.7-0.7-1-1.3-1h-0.4l0-0.5h0.4
							c0.5,0,1-0.2,1-0.8c0-0.4-0.3-0.7-0.9-0.7c-0.4,0-0.7,0.2-0.9,0.3l-0.2-0.5c0.2-0.2,0.7-0.4,1.2-0.4c0.9,0,1.4,0.6,1.5,1.1
							c0,0.5-0.2,0.9-0.8,1.1v0c0.6,0.1,1.1,0.6,1.2,1.2c0.1,0.8-0.5,1.4-1.6,1.4c-0.5,0-1-0.2-1.3-0.3L603.5,231.4z"/>
						<path class="st21" d="M610.1,229.8c0.1,1.6-0.4,2.5-1.4,2.5c-0.9,0-1.6-0.9-1.8-2.5c-0.1-1.6,0.5-2.5,1.4-2.5
							C609.3,227.3,610,228.2,610.1,229.8z M607.5,229.8c0.1,1.2,0.6,2,1.1,2c0.7,0,0.9-0.8,0.8-2c-0.1-1.2-0.5-2-1.1-2
							C607.8,227.8,607.4,228.5,607.5,229.8z"/>
					</g>
					<g>
						<path class="st21" d="M603.1,206.1l-0.1-1.3h-2.2l0-0.4l1.9-3h0.7l0.3,3h0.7l0,0.5h-0.7l0.1,1.3H603.1z M602.9,204.3l-0.1-1.6
							c0-0.3,0-0.5,0-0.8h0c-0.1,0.3-0.2,0.5-0.3,0.7l-1,1.6v0H602.9z"/>
						<path class="st21" d="M607.8,203.6c0.1,1.6-0.4,2.5-1.4,2.5c-0.9,0-1.6-0.9-1.8-2.5c-0.1-1.6,0.5-2.5,1.4-2.5
							C607,201.2,607.7,202.1,607.8,203.6z M605.2,203.7c0.1,1.2,0.6,2,1.1,2c0.7,0,0.9-0.8,0.8-2c-0.1-1.2-0.5-2-1.1-2
							C605.5,201.7,605.1,202.4,605.2,203.7z"/>
					</g>
					<g>
						<path class="st21" d="M601.3,175.7h-1.8l-0.1,1.2c0.1,0,0.2,0,0.4,0c0.4,0,0.7,0.1,1.1,0.3c0.4,0.2,0.7,0.6,0.8,1.2
							c0.1,0.9-0.6,1.6-1.6,1.6c-0.5,0-1-0.2-1.2-0.3l0.1-0.5c0.2,0.1,0.6,0.3,1,0.3c0.6,0,1.1-0.4,1-1c-0.1-0.6-0.5-1.1-1.5-1.1
							c-0.3,0-0.5,0-0.7,0l0.1-2.3h2.3L601.3,175.7z"/>
						<path class="st21" d="M605.5,177.5c0.1,1.6-0.4,2.5-1.4,2.5c-0.9,0-1.6-0.9-1.8-2.5c-0.1-1.6,0.5-2.5,1.4-2.5
							C604.8,175.1,605.4,176,605.5,177.5z M603,177.6c0.1,1.2,0.6,2,1.1,2c0.7,0,0.9-0.8,0.8-2c-0.1-1.2-0.5-2-1.1-2
							C603.2,175.6,602.8,176.3,603,177.6z"/>
					</g>
					<g>
						<path class="st21" d="M598.9,149.5c-0.1,0-0.3,0-0.5,0c-1,0.2-1.5,0.9-1.5,1.7h0c0.2-0.3,0.6-0.5,1.1-0.5
							c0.8,0,1.5,0.6,1.6,1.5c0.1,0.9-0.4,1.7-1.4,1.7c-1,0-1.8-0.8-1.9-2c-0.1-0.9,0.2-1.7,0.6-2.1c0.4-0.4,0.9-0.6,1.5-0.7
							c0.2,0,0.3,0,0.5,0L598.9,149.5z M598.9,152.3c-0.1-0.7-0.5-1.1-1.1-1.1c-0.4,0-0.7,0.2-0.9,0.6c0,0.1-0.1,0.2-0.1,0.3
							c0.1,0.8,0.5,1.4,1.2,1.4C598.7,153.4,599,152.9,598.9,152.3z"/>
						<path class="st21" d="M603.2,151.4c0.1,1.6-0.4,2.5-1.4,2.5c-0.9,0-1.6-0.9-1.8-2.5c-0.1-1.6,0.5-2.5,1.4-2.5
							C602.5,149,603.1,149.9,603.2,151.4z M600.7,151.5c0.1,1.2,0.6,2,1.1,2c0.7,0,0.9-0.8,0.8-2c-0.1-1.2-0.5-2-1.1-2
							C600.9,149.5,600.6,150.2,600.7,151.5z"/>
					</g>
					<g>
						<path class="st21" d="M596.9,122.9l0,0.4l-1.7,4.4h-0.7l1.7-4.2v0H594l-0.1-0.5L596.9,122.9L596.9,122.9z"/>
						<path class="st21" d="M601,125.3c0.1,1.6-0.4,2.5-1.4,2.5c-0.9,0-1.6-0.9-1.8-2.5c-0.1-1.6,0.5-2.5,1.4-2.5
							C600.2,122.9,600.8,123.8,601,125.3z M598.4,125.3c0.1,1.2,0.6,2,1.1,2c0.7,0,0.9-0.8,0.8-2c-0.1-1.2-0.5-2-1.1-2
							C598.6,123.4,598.3,124,598.4,125.3z"/>
					</g>
					<polygon class="st22" points="614.8,165.9 777.3,165.9 775,139.6 612.5,139.6 					"/>
					<polygon class="st22" points="619.4,218.6 781.9,218.6 779.6,192.2 617.1,192.2 					"/>
					<polygon class="st22" points="624,271.2 786.5,271.2 784.2,244.9 621.7,244.9 					"/>
				</g>
				<g>
					<polygon class="st23" points="685.9,143.8 612.9,143.8 612.5,139.6 685.5,139.6 					"/>
					<polygon class="st24" points="739.3,154.9 613.9,154.9 613.5,150.7 738.9,150.7 					"/>
					<polygon class="st14" points="659.5,165.9 614.8,165.9 614.5,161.7 659.2,161.7 					"/>
					<polygon class="st23" points="749.3,196.4 617.5,196.4 617.1,192.2 748.9,192.2 					"/>
					<polygon class="st24" points="672.6,207.5 618.5,207.5 618.1,203.3 672.2,203.3 					"/>
					<polygon class="st14" points="727.7,218.6 619.4,218.6 619.1,214.4 727.4,214.4 					"/>
					<polygon class="st23" points="676.3,249.4 622.1,249.4 621.8,245.2 675.9,245.2 					"/>
					<polygon class="st24" points="731.4,260.5 623.1,260.5 622.7,256.3 731,256.3 					"/>
					<polygon class="st14" points="713.4,271.5 624.1,271.5 623.7,267.3 713.1,267.3 					"/>
				</g>
			</g>
		</g>
	</g>
</g>
<g>
	<g>
		<path class="st25" d="M164.2,502.3c-3.7,0-9.5-0.8-14.6-5.3c-7.3-6.4-10.5-17.8-9.5-33.8c0.7-10.8,5-21.8,9.5-33.4
			c7.6-19.5,16.2-41.6,11.7-70.8l8.4-1.3c4.8,31.5-4.6,55.7-12.2,75.2c-4.5,11.5-8.3,21.3-8.9,30.8c-0.9,13,1.4,22.3,6.5,26.8
			c4.8,4.3,10.9,3.2,11.2,3.1l1.7,8.3C167.8,502.1,166.4,502.3,164.2,502.3z"/>
	</g>
	<g>
		<g>
			<path class="st26" d="M229,569.4l8.2,12.5l-69.1,22.1c0,0-4.6-4.4,12.3-13.3C200.2,580.4,229,569.4,229,569.4z"/>
			<path class="st26" d="M241.3,569.4l-8.2,12.5l69.1,22.1c0,0,4.6-4.4-12.3-13.3C270.1,580.4,241.3,569.4,241.3,569.4z"/>
		</g>
		<rect x="227.9" y="532" class="st26" width="14.4" height="51.4"/>
		<g>
			<path class="st5" d="M228.1,572l7,12L176,605.1c0,0-4-4.2,10.6-12.7C203.4,582.6,228.1,572,228.1,572z"/>
			<path class="st5" d="M242.2,572l-7,12l59.2,21.1c0,0,4-4.2-10.6-12.7C266.9,582.6,242.2,572,242.2,572z"/>
		</g>
		<path class="st27" d="M182.7,609.9c0,2.8-2.3,5-5,5s-5-2.3-5-5s2.3-5,5-5S182.7,607.1,182.7,609.9z"/>
		<path class="st27" d="M297.3,609.9c0,2.8-2.3,5-5,5s-5-2.3-5-5s2.2-5,5-5C295,604.9,297.3,607.1,297.3,609.9z"/>
		<path class="st25" d="M170.5,609.9c0,2.8-2.3,5-5,5s-5-2.3-5-5s2.3-5,5-5S170.5,607.1,170.5,609.9z"/>
		<path class="st25" d="M309.4,609.9c0,2.8-2.3,5-5,5s-5-2.3-5-5s2.3-5,5-5S309.4,607.1,309.4,609.9z"/>
	</g>
	<rect x="229.7" y="513.2" class="st25" width="10.6" height="18.5"/>
	<path class="st25" d="M248.2,503.4c0,5.7-4.6,10.3-10.3,10.3H232c-5.7,0-10.3-4.6-10.3-10.3l0,0c0-5.7,4.6-10.3,10.3-10.3h5.8
		C243.5,493.1,248.2,497.7,248.2,503.4L248.2,503.4z"/>
	<path class="st28" d="M313.5,494c0.3-1.2,0.4-8.8,0.4-10.1c0-8.3-5.4-15.1-12-15.1H168.1c-6.6,0-12,6.7-12,15.1
		c0,1.3,0.2,8.9,0.4,10.1H313.5z"/>
	<path class="st25" d="M154.8,498.1c0,2.5,1.5,4.6,3.3,4.6h153.6c1.8,0,3.3-2.1,3.3-4.6l0,0c0-2.5-1.5-4.6-3.3-4.6H158.1
		C156.3,493.5,154.8,495.6,154.8,498.1L154.8,498.1z"/>
	<g>
		<path class="st28" d="M162.3,416.8c3.3,0.3,24.3,0.6,27.9,0.7c23,0.3,42.7-4,43.8-9.7c4.5-23.5,4.7-47.6,0.6-71.1
			c-1-5.7-21-10-44.5-9.7c-3.7,0-25.1,0.4-28.5,0.7C168.9,356.9,169.1,387.5,162.3,416.8z"/>
		<path class="st25" d="M159.2,327.6c-2.6,0-4.4,1.3-4,2.7c6.4,27.6,6.6,56.1,0.7,83.7c-0.3,1.5,1.5,2.7,4,2.7l0,0
			c2.5,0,4.8-1.1,5.2-2.6c6-27.6,5.8-56.3-0.5-83.9C164.1,328.8,161.7,327.6,159.2,327.6L159.2,327.6z"/>
		<path class="st29" d="M158.1,416.7c0.7,0.2,5.2,0.4,6,0.4c5,0.1,10.2-4.3,11.2-9.9c4.2-23.2,4.1-46.9-0.3-70
			c-1-5.6-6.3-10-11.4-9.9c-0.8,0-5.4,0.2-6.1,0.4C164.6,357,164.9,387.4,158.1,416.7z"/>
	</g>
</g>
<g>
	<path class="st30" d="M283.4,207.3H272v5.8C274.6,209.6,278.7,207.3,283.4,207.3z"/>
</g>
<g>
	<path class="st18" d="M233.6,242.2c0,0-19.6,7-0.8,63.1c18.8,56.1,31.3,49.3,31.3,49.3l15.5-1.5l29.8-35.3l-16-14l-3.2,1.3
		c0,0-4.2-1.7-4.6-5.6c-0.5-3.9-8-20-13.7-53C269.3,231.2,237.4,240.8,233.6,242.2z"/>
	<path class="st12" d="M305.2,318.4c0,0,38.6,19.7,63-18.5c7.2-11.3,4.1,1.7,0.2,14.1c-4,12.4-28,40.6-55.2,42.4
		c-27.3,1.9-37.7,0.4-42.8-9.1C265.2,338,305.2,318.4,305.2,318.4z"/>
	<path class="st4" d="M272,309.4l9.8-6.3l4.1-2.3c1.1,2.9,4.3,4.2,4.3,4.2l-8.2,3.4l-8.9,5.7l-9.2,11L272,309.4z"/>
	<path class="st4" d="M269.7,403.3l-73.1-1.6c0,0-28.8-75.3-30.4-101.8c-1-15.4,8.2-49.3,23.9-56.9c3.5-1.7,14.4-6,19.7-6.4
		c30.8-2.1,55.8,0.1,55.8,0.1S291.1,258.9,269.7,403.3z"/>
	<path class="st16" d="M390.2,619.5c0,0-7.1,11-10.7,4.2c-10.9-20.2-20.7-83.9-21.3-110c-0.8-34.9-2.4-56.1-2.4-56.1l35.1-12.7
		L390.2,619.5z"/>
	<path class="st16" d="M267.1,402.6l123.7,42.4l-32.5,18.1c0,0-127.6,22.4-129.9-25C226.6,398.2,267.1,402.6,267.1,402.6z"/>
	<path class="st13" d="M346.2,620.5c0,0-6.4,5.9-10-0.8c-10.9-20.2-28.8-73.8-29.4-99.9c-0.8-34.8,4.9-59.1,4.9-59.1l35.8-12.4
		L346.2,620.5z"/>
	<path class="st13" d="M228.8,403.9l118,44.5L314.4,466c0,0-119.7,22.4-122-25C190.1,393.7,228.8,403.9,228.8,403.9z"/>
	<path class="st13" d="M190.3,443.7c-0.3,3.3,1.6,14.2,5.2,18.5c11.2,13.5,37.6,9,58.7,9c1.2,0,7-16.5,7-16.5l8.8-53.8l-74,1.3
		C196.1,402.2,192.9,416.6,190.3,443.7z"/>
	<path class="st12" d="M310.5,369.6l27.1-4.9c0,0,4.2-0.5,4.4,2.5c0.3,3.8-0.4,16.4-0.4,16.4l-4.9-3l-7,4.3l-8.1-10.7
		c0,0-4.2,0.8-7.7-0.1C312.8,373.8,310.5,369.6,310.5,369.6z"/>
	<path class="st12" d="M244,361.9l71.7,8c0,0-38.5,19.7-56.1,19.8s-34.1-3.9-34.1-3.9L244,361.9z"/>
	<path class="st18" d="M208.7,287.6l35.8,67.8l-2,5.5l5.5,1l-16.7,26.6l-26.3-6l-32.1-75.7c0,0-11.4-32.1,11.6-53.1
		C190.6,248.1,205.5,282.1,208.7,287.6z"/>
	<path class="st4" d="M217.8,378.5c0,0,17-13,25.6-20l-0.9,2.4l5.5,1l-5.9,9.2l-10.2,11.8l-5.8-2.1l2.2-4.2L217.8,378.5z"/>
	<g>
		<path class="st12" d="M365.2,313.2c0,0-5.8-13.9-3.7-17.7c2.1-3.8,10.6-17.1,10.6-17.1l2.5-3.2c0,0,5.1,0.8-0.8,9.7
			c-5.9,8.9-0.6,6.1-0.6,6.1l8.4-6.1l10.9-6.7l4.4-3.5c0,0,2.4-2.2,3.4-2.3c2.9-0.1,2,2.1,2,2.1l-16.1,15.3l18.7-10.1
			c0,0,2.6-0.9,3.5,0.2c0.9,1,0.1,1.5,0.1,1.5l-18.5,16.3l10.2-4.1c0,0,2.6-0.8,3.5,0.2c1,1.1,1.4,1.4,1.4,1.4l-37.6,21.1
			L365.2,313.2z"/>
		<path class="st12" d="M389.2,292.4l13.6-6.3c0,0,2.9-1.8,4.7-1.7c2.1,0,2.2,1.8,2.2,1.8l-19.5,11.6L389.2,292.4z"/>
	</g>
	<path class="st13" d="M357.7,631.4c0.6,1,0.1,3.8,0.1,3.8s-11,1.8-14.6,0.7c-0.9-0.3-2.5-1.3-3.9-2.5c-0.3-0.2-0.7-1.3-0.9-1.5
		c-0.5-0.3-0.7,0.3-1.1-0.1c-1-0.8-1.7-1.5-1.7-1.6c-0.9-6.9,0.4-9.7,0.4-9.7s9.4-4.4,11.2-1.4C351.3,626,356.3,629.1,357.7,631.4z"
		/>
	<path class="st16" d="M378.2,622.7l1.6,10h8.4c0,0,0.5-1.4,1.2-1.4c0.6,0,1.4,1.4,2.2,1.4c1.8,0,3.7,0,4.5,0c1.6,0,16.8,0,16.8,0
		s0.4-2.1-0.1-2.8c-0.2-0.4-1.6-1-2.6-1.3c-4.3-1.5-17.4-4.7-20.3-9.3C387.6,615.5,378.2,622.7,378.2,622.7z"/>
	
		<rect x="208.9" y="227.5" transform="matrix(0.4023 -0.9155 0.9155 0.4023 -87.8545 338.5696)" class="st18" width="12.9" height="18.2"/>
	<g>
		<g>
			<path class="st16" d="M238.8,187.4c0.8,4.8-2.5,9.4-7.4,10.1l-33.1,5.2c-4.8,0.8-9.4-2.5-10.1-7.4l0,0c-0.8-4.8,2.5-9.4,7.4-10.1
				l33.1-5.2C233.5,179.3,238,182.6,238.8,187.4L238.8,187.4z"/>
			<path class="st16" d="M235.1,203.6c1.4,8.9-4.7,17.3-13.6,18.7l-17.3,2.7c-8.9,1.4-17.3-4.7-18.7-13.6l0,0
				c-1.4-8.9,4.7-17.3,13.6-18.7l17.3-2.7C225.3,188.5,233.7,194.7,235.1,203.6L235.1,203.6z"/>
			<path class="st12" d="M252.2,227.4l-8-50.6c-1.3-8.1-6.5,1-14.6,2.3l-7.8,1.2c-8.1,1.3-13.6,8.8-12.3,16.9l5.7,36L252.2,227.4z"
				/>
			<path class="st12" d="M217.8,207.5c0.6,3.5-1.9,6.9-5.4,7.4l0,0c-3.5,0.6-6.9-1.9-7.4-5.4l0,0c-0.6-3.5,1.9-6.9,5.4-7.4l0,0
				C213.9,201.6,217.2,204,217.8,207.5L217.8,207.5z"/>
			<path class="st12" d="M245.5,212.3c0.3,2.1,2.2,3.5,4.2,3.2l3-0.5c2-0.3,3.3-2.2,3-4.3c0,0-9.6-18.2-11.6-17.8c0,0-1.4,1.9-1,4
				L245.5,212.3z"/>
			<path class="st16" d="M231.3,227.9c-14.6,2.3-16.8-1.9-18-7c0,0-1.9,13.4-1.2,17.5l0.7,4.6c1.4,8.9,11.7,14.7,23,12.9l20.4-3.2
				l-3.6-22.7l-0.8-5.4L231.3,227.9z"/>
			<path class="st16" d="M250.3,215.3l-11.7,1.8c-5.4,0.8-9,5.9-8.2,11.3c0.1,0.8,0.4,1.6,0.7,2.4l21-3.3L250.3,215.3z"/>
			<path class="st12" d="M236.8,227.9l0.5,3.2c0.1,0.9,1,1.5,1.9,1.4l9.5-1.5c0.9-0.1,1.5-1,1.4-1.9l-0.5-3.2L236.8,227.9z"/>
			<path class="st16" d="M237.8,168.7l-29.9,4.7c-3.2,0.5-5.4,3.5-4.9,6.8l1.8,11.7l35.8-5.6L237.8,168.7z"/>
			<path class="st16" d="M257.7,174.5c0.8,4.9-2.6,9.4-7.4,10.2l-20.3,3.2c-4.9,0.8-9.4-2.6-10.2-7.4l0,0c-0.8-4.9,2.6-9.4,7.4-10.2
				l20.3-3.2C252.4,166.3,256.9,169.6,257.7,174.5L257.7,174.5z"/>
		</g>
		
			<rect x="209.2" y="186.3" transform="matrix(0.9878 -0.1556 0.1556 0.9878 -28.0661 35.589)" class="st16" width="8.2" height="21.5"/>
		
			<rect x="210.5" y="175.5" transform="matrix(0.9878 -0.1556 0.1556 0.9878 -26.5639 36.9182)" class="st16" width="24.1" height="25.4"/>
		<path class="st12" d="M218.2,202c-1-6.7,3.5-12.9,10.1-13.9l6.2-1c6.7-1,11.1,3.8,12.1,10.4l0,0c1,6.7-3.5,12.9-10.2,13.9
			l-4.4,0.7C225.5,213.2,219.3,208.7,218.2,202L218.2,202z"/>
	</g>
</g>
<g>
	<path class="st31" d="M311.5,384.3c0,0,0-0.1-0.1-0.1l0.1-3.5h145.3v3.5c0,0,0,0.1,0,0.1l-0.4,0.7c-1.9,3-5.2,3.6-9,3.6H320.9
		c-3.8,0-7.2-0.5-9.1-3.6L311.5,384.3z"/>
	<path class="st32" d="M346.5,384.9C346.5,384.9,346.5,385,346.5,384.9l-0.4,0.6c-0.6,0.8-1.3,1.4-2.1,1.8h-22.1
		c-3.7,0-6.9-0.4-8.7-2.9l-0.3-0.5c0,0,0-0.1-0.1-0.1l0-1.7h33.7L346.5,384.9L346.5,384.9z"/>
	<g>
		<rect x="366.1" y="381.5" class="st33" width="72.6" height="2.5"/>
	</g>
	<g>
		<path class="st34" d="M347.3,380.6l18.8-71.4c0.5-1.9,2.4-3.4,4.3-3.4h101.9c1.9,0,3,1.5,2.5,3.4l-18.8,71.4H347.3z"/>
		<path class="st31" d="M405,343.2c-1,3.6,1.2,6.6,4.9,6.6c3.7,0,7.4-3,8.3-6.6c1-3.7-1.2-6.6-4.9-6.6
			C409.7,336.6,405.9,339.5,405,343.2z"/>
	</g>
</g>
<g>
	<g>
		<path class="st25" d="M1101.4,505.9c3.3,0,8.6-0.8,13.2-4.8c6.7-5.8,9.5-16.1,8.6-30.6c-0.7-9.8-4.5-19.7-8.6-30.2
			c-6.9-17.6-14.6-37.6-10.6-64.1l-7.6-1.2c-4.4,28.5,4.2,50.4,11,68c4,10.4,7.5,19.3,8.1,27.9c0.8,11.8-1.3,20.1-5.9,24.2
			c-4.4,3.9-9.9,2.9-10.1,2.8l-1.5,7.5C1098.1,505.7,1099.4,505.9,1101.4,505.9z"/>
	</g>
	<g>
		<g>
			<path class="st26" d="M1042.7,566.6l-7.4,11.3l62.5,20c0,0,4.2-4-11.2-12C1068.8,576.6,1042.7,566.6,1042.7,566.6z"/>
			<path class="st26" d="M1031.6,566.6l7.4,11.3l-62.5,20c0,0-4.2-4,11.2-12C1005.6,576.6,1031.6,566.6,1031.6,566.6z"/>
		</g>
		<rect x="1030.7" y="532.8" class="st26" width="13.1" height="46.5"/>
		<g>
			<path class="st5" d="M1043.6,569l-6.4,10.8l53.5,19.1c0,0,3.6-3.8-9.6-11.5C1065.9,578.5,1043.6,569,1043.6,569z"/>
			<path class="st5" d="M1030.8,569l6.4,10.8l-53.5,19.1c0,0-3.6-3.8,9.6-11.5C1008.5,578.5,1030.8,569,1030.8,569z"/>
		</g>
		<path class="st27" d="M1084.7,603.2c0,2.5,2,4.5,4.5,4.5s4.5-2,4.5-4.5c0-2.5-2-4.5-4.5-4.5
			C1086.7,598.7,1084.7,600.7,1084.7,603.2z"/>
		<path class="st27" d="M981,603.2c0,2.5,2,4.5,4.5,4.5s4.5-2,4.5-4.5c0-2.5-2-4.5-4.5-4.5S981,600.7,981,603.2z"/>
		<path class="st25" d="M1095.7,603.2c0,2.5,2,4.5,4.5,4.5c2.5,0,4.5-2,4.5-4.5c0-2.5-2-4.5-4.5-4.5
			C1097.7,598.7,1095.7,600.7,1095.7,603.2z"/>
		<path class="st25" d="M970,603.2c0,2.5,2,4.5,4.5,4.5c2.5,0,4.5-2,4.5-4.5c0-2.5-2-4.5-4.5-4.5C972,598.7,970,600.7,970,603.2z"/>
	</g>
	<rect x="1032.6" y="515.7" class="st25" width="9.6" height="16.7"/>
	<path class="st25" d="M1025.4,506.9c0,5.2,4.2,9.3,9.3,9.3h5.3c5.1,0,9.3-4.2,9.3-9.3l0,0c0-5.2-4.2-9.3-9.3-9.3h-5.3
		C1029.6,497.6,1025.4,501.7,1025.4,506.9L1025.4,506.9z"/>
	<path class="st28" d="M966.3,498.4c-0.2-1.1-0.4-8-0.4-9.2c0-7.5,4.9-13.6,10.9-13.6h121.1c6,0,10.9,6.1,10.9,13.6
		c0,1.2-0.1,8.1-0.4,9.2H966.3z"/>
	<path class="st25" d="M1109.9,502.1c0,2.3-1.3,4.2-3,4.2h-139c-1.7,0-3-1.9-3-4.2l0,0c0-2.3,1.3-4.2,3-4.2h139
		C1108.5,497.9,1109.9,499.8,1109.9,502.1L1109.9,502.1z"/>
	<g>
		<path class="st28" d="M1103.1,428.5c-3,0.2-22,0.6-25.2,0.6c-20.8,0.3-38.7-3.7-39.7-8.8c-4.1-21.3-4.3-43.1-0.5-64.3
			c0.9-5.1,19.1-9,40.3-8.8c3.3,0,22.7,0.4,25.8,0.6C1097.2,374.3,1097,401.9,1103.1,428.5z"/>
		<path class="st25" d="M1105.9,347.8c2.3,0,3.9,1.1,3.6,2.5c-5.8,24.9-6,50.8-0.7,75.7c0.3,1.3-1.3,2.4-3.6,2.5l0,0
			c-2.3,0-4.4-1-4.7-2.4c-5.4-25-5.3-50.9,0.5-75.9C1101.5,348.8,1103.6,347.8,1105.9,347.8L1105.9,347.8z"/>
		<path class="st29" d="M1106.9,428.4c-0.6,0.2-4.7,0.3-5.4,0.4c-4.5,0.1-9.2-3.9-10.1-9c-3.8-21-3.7-42.4,0.3-63.4
			c0.9-5,5.7-9,10.3-9c0.7,0,4.9,0.2,5.6,0.4C1101,374.3,1100.8,401.9,1106.9,428.4z"/>
	</g>
</g>
<g>
	<g>
		<g>
			<g>
				<path class="st35" d="M980.9,367.8c0,0-0.2,5.3-25.8,5.3c-25.7,0-63.3-6.3-63.3-6.3l59.2-5.6
					C950.9,361.3,973.7,360.2,980.9,367.8z"/>
				<path class="st35" d="M911.9,368.7c-12.2,0.4-17.2,6.7-22,8.7c-4.8,2-9.6,5.1-9.5,5c2.6-5.3,6.5-5.6,8.4-7.3s1.4-0.9-2.9-1.1
					c-2.5-0.1-6.7,4.4-9.7,6.9c-2.6,2.2-4.3,2.4-4.3,2.4s3-4.5,6.9-8.2c4.7-4.4,10.6-8.2,12-8.8c2.6-1.1,10.7-1.6,16.6-1.1
					C913.9,366,920.7,368.5,911.9,368.7z"/>
				<path class="st35" d="M891.5,366.6c0,0-9.3,2.7-10.9,4c-1.1,0.9-5.7,6-5.7,6s3.5-0.7,5.4-2.6C882.3,372,891.5,366.6,891.5,366.6
					z"/>
			</g>
			<path class="st17" d="M969.3,357.1c0,0,23.7,0.7,22.5,14.7c-0.6,8-5.9,10.9-13.1,10.6c-13.3-0.6-28.4-2-28.4-2l-7.5-21.5
				L969.3,357.1z"/>
		</g>
		<path class="st17" d="M974.3,358.9l20.7-72.9c0,0,3-10.7,8.7-8.9c8.2,2.6,4.5,11.3,3.9,16.5c-1.1,10.5,0,15-6.6,40.4
			c-4.1,15.7-7.4,33.7-11.1,44c-2.5,7.1-7.6-2.8-14.8-5.3C961.6,367.9,974.3,358.9,974.3,358.9z"/>
	</g>
	<path class="st13" d="M1014.3,262.5c3.6,15.9,19.6,25.8,35.8,22.2c16.2-3.6,26.4-19.4,22.9-35.3c-3.6-15.9-19.6-25.8-35.8-22.2
		C1021,230.8,1010.8,246.6,1014.3,262.5z"/>
	<path class="st13" d="M986.7,246.2c2.7,12.2,14.8,19.8,27,17.1l3.2-11.7c12.2-2.7,19.8-14.8,17.1-27l-1.9-8.3
		c-2.7-12.2-14.8-19.8-27-17.1l-5.5,1.2c-12.2,2.7-19.8,14.8-17.1,27L986.7,246.2z"/>
	<path class="st12" d="M988.2,211.7c0.5,2,1.1,4.1,1.9,6.1c5.4,13.7,16.4,22.5,26.1,21.7c1.7,6.3,4.3,11.8,7,16.4
		c3,5.2,10.9,9.6,10.9,9.6c3.8,9.5-34.4,41.5-36,40.6c-3.5-1.8,2.7-24.7,9-31.8c2.9-3.3,5.9-7.3,6-9.5c0.2-7.9-2.3-9.5-6.1-13.2
		c-6.7-5-14.3-3.2-14.3-3.2c-0.7,0.2-1.5,0-2-0.4c-0.8-1.3-1.4-2.8-1.7-4.5l-4.1-18.2C983.8,220.4,985.2,215.4,988.2,211.7z"/>
	<path class="st36" d="M1027.8,414.6c0,0-9.8,8.9-12.5,9.6c-3.7,1-14-3.4-14-3.4s2.8-45.9,1.8-64.1c-1.1-18.2-5.3-23.5-4.8-29.1
		c0.8-9-6.5-13.6-4.3-20.4s7.6-31.5,7.9-28c3.2,29.1,14.3,6.7,16.6,3.2C1019.6,280.4,1027.8,414.6,1027.8,414.6z"/>
	<path class="st37" d="M1007.4,271.4c0,0-12.9,9.5-12.8,13.9c0.2,4.4-6.7,17.3-3.9,36.8c3.2,22.2,4.4,37.2,3.7,51.3
		c-0.7,14.2-7.2,26.5-7.4,43.9c-0.2,13.7,3,14.9,3,14.9s6,2.2,11.1-2.4c5.1-4.7,4.2-51.5,3.4-63.3c-0.8-11.8-4.4-39.5-5.3-47.6
		c-1.1-10.1,0.5-19.9,1.1-22.8c1.8-10,3.9-16.1,5.4-19.7c0.3-0.6,3.6-3.3,3.8-3.8C1010.4,270.5,1008.4,270.2,1007.4,271.4z"/>
	<path class="st17" d="M1010.8,266.6c0,0,2.7-0.6,0.4,2.5c-1.3,1.7-1.3,3.2-1.3,3.2s-1.2-1.2-2.9,0.5c-1.6,1.6-4.1,3.6-4.1,3.6
		s1.6-4.6,2-4.9C1006.2,270.4,1010.8,266.6,1010.8,266.6z"/>
	<path class="st13" d="M1022.9,302.4c3.7,16.6,20.4,26.9,37.4,23.1s27.6-20.3,23.9-36.9s-20.4-26.9-37.4-23.1
		C1029.9,269.4,1019.2,285.9,1022.9,302.4z"/>
	<polygon class="st12" points="958.3,571.7 964.2,616.8 938.8,628.4 924.7,631.4 949.7,612.7 941.5,572.1 	"/>
	<path class="st15" d="M965.8,623.5l-5.5,1.4l-3.7-3.3l-20.3,9.8l-18,4.1c0,0-0.2-1.4,0.4-2.2c2.3-2.8,14.8-9.2,14.8-9.2
		s0.2,4.2,2,4.3c1.8,0.1,17.3-7.8,20.9-10c6.2-3.8,7.3-6.1,7.8-5.8C965.6,613.5,965.8,623.5,965.8,623.5z"/>
	<polygon class="st12" points="897.1,509.1 876.9,547.5 849,546.1 835.1,542.3 865.9,537.2 882.7,504.4 	"/>
	<path class="st15" d="M875.2,554.3l-5.5-1.3l-1.8-4.7l-25-0.4l-14.9-3.4c0,0,1.8-2,2.9-2.4c3.3-1.3,15.1-2,15.1-2s-1.3,3.3,0.3,4.2
		c1.5,0.9,18.7,1.5,22.9,1.2c7.2-0.5,9.3-2,9.6-1.6C879.6,545.3,875.2,554.3,875.2,554.3z"/>
	<path class="st13" d="M1044.4,394.4l-15,6.5l-6.5,19.6L926,404.6c0,0-9.9-3-16.1,12.5c-8.9,22.2-31.7,91-31.7,91l14.4,15l45.1-77.8
		c0,0,92.5,43.4,123,34c11.7-3.6,20.6-24.3,19-45.1c-1.3-16.3-4.6-31.4-4.6-31.4L1044.4,394.4z"/>
	<path class="st16" d="M1031.3,478.9l-74-5.3l6.4,114.2l-21.8,0.7l-16.1-133.7c0,0,4.3-19.9,18.5-16.9
		C958.3,440.8,992.5,467,1031.3,478.9z"/>
	<path class="st37" d="M1021.9,423.4c0,0-1.8-46.5-3.1-68.5c-1.4-22-1.1-64.6-1.4-69.9c-0.3-5.3,1.2-12.8,1.2-12.8
		s6.7-11.4,14.2-10.4c6.6,0.9,16.7,10,23,14.2c6.2,4.1,5.5,81.8,5.8,85.7c1.1,14.1,9.5,28,15.9,41.6c4.1,8.7,5,22.4,5,22.4
		S1044.8,418.6,1021.9,423.4z"/>
	<polygon class="st17" points="1030.4,258.2 1025.1,263.4 1017.6,271.4 1021.4,280.4 1034.6,261.9 	"/>
	<g>
		<path class="st12" d="M1040.6,379.6c0,0-0.8,5.7-31.2,2.3c-30.4-3.4-74.3-15.1-74.3-15.1l70.8,1.8
			C1005.8,368.5,1032.9,370.4,1040.6,379.6z"/>
		<path class="st12" d="M958.7,371.5c-14.5-1.2-21.2,4.9-27.1,6.5c-5.9,1.6-11.9,4.2-11.9,4.2c3.7-5.4,8.4-5.2,10.8-6.8
			c2.5-1.6,1.8-0.8-3.3-1.5c-2.9-0.4-8.4,3.8-12.4,6.2c-3.4,2-5.4,2-5.4,2s4.1-4.5,9.2-7.9c6.1-4.2,13.6-7.4,15.3-7.9
			c3.2-0.8,12.9-0.4,19.8,1C961.4,368.8,969.2,372.3,958.7,371.5z"/>
		<path class="st12" d="M934.7,366.5c0,0-11.3,1.7-13.3,2.8c-1.4,0.8-7.5,5.8-7.5,5.8s4.2-0.3,6.8-2.1
			C923.1,371.1,934.7,366.5,934.7,366.5z"/>
	</g>
	<path class="st17" d="M1028.1,366.5l3.4-71.9c0,0,3.9-15.1,9.5-18.5c6.7-4.1,15.9,3.5,15.9,3.5s4.7,11.2,1.6,64.2
		c-2.1,35.5-5.4,53.8-22.2,51.2c-15.7-2.4-33.4-5.9-33.4-5.9l-6.3-24.2L1028.1,366.5z"/>
</g>
<g>
	<path class="st38" d="M967.6,384.3c0,0,0-0.1,0.1-0.1l-0.1-3.6H819.9v3.6c0,0,0,0.1,0,0.1l0.4,0.7c1.9,3.1,5.3,3.7,9.2,3.7H958
		c3.9,0,7.3-0.6,9.2-3.7L967.6,384.3z"/>
	<path class="st39" d="M932,384.9C932,384.9,932,385,932,384.9l0.4,0.6c0.6,0.8,1.3,1.4,2.2,1.8H957c3.8,0,7-0.5,8.8-3l0.3-0.5
		c0,0,0.1-0.1,0.1-0.1l0-1.8H932L932,384.9L932,384.9z"/>
	<g>
		<rect x="838.3" y="381.5" class="st39" width="73.8" height="2.5"/>
	</g>
	<g>
		<path class="st34" d="M931.2,380.5L912.1,308c-0.5-1.9-2.5-3.5-4.4-3.5H804.1c-1.9,0-3.1,1.5-2.6,3.5l19.1,72.5H931.2z"/>
		<path class="st39" d="M872.6,342.5c1,3.7-1.2,6.7-4.9,6.7c-3.7,0-7.5-3-8.5-6.7c-1-3.7,1.2-6.7,4.9-6.7S871.6,338.8,872.6,342.5z"
			/>
	</g>
</g>
<g>
	<g>
		<polygon class="st7" points="351.6,637.9 366.7,637.9 341.8,396.4 319.8,396.4 		"/>
		<polygon class="st40" points="321.3,407.5 350.6,482 342.3,401.8 341.8,396.4 322.6,396.4 		"/>
	</g>
	<polygon class="st7" points="192.9,637.9 177.8,637.9 202.7,396.4 224.6,396.4 	"/>
	<polygon class="st40" points="223.2,407.5 213.6,480.6 202.2,401.8 202.7,396.4 221.9,396.4 	"/>
	<polygon class="st7" points="836.1,637.9 821,637.9 846,396.4 867.9,396.4 	"/>
	<polygon class="st40" points="866.4,407.5 856.8,480.6 845.4,401.8 846,396.4 865.1,396.4 	"/>
	<polygon class="st7" points="994.8,637.9 1009.9,637.9 985,396.4 963.1,396.4 	"/>
	<polygon class="st40" points="964.5,407.5 993.9,482 985.6,401.8 985,396.4 965.8,396.4 	"/>
	<rect x="541.9" y="388.5" class="st25" width="464.2" height="14.1"/>
	
		<radialGradient id="SVGID_3_" cx="215.3821" cy="234.9129" r="577.2768" gradientTransform="matrix(1 0 0 -1 0 426.5745)" gradientUnits="userSpaceOnUse">
		<stop  offset="1.574020e-03" style="stop-color:#CDF7F1"/>
		<stop  offset="1" style="stop-color:#5DCFCA"/>
	</radialGradient>
	<rect x="184.7" y="388.5" class="st41" width="647.7" height="14.1"/>
</g>
<g>
	<path class="st15" d="M663.7,642.4l-2.4,12.7h-12.9c0,0-0.7-1.8-1.8-1.8c-0.9,0-2.1,1.8-3.4,1.8c-2.7,0-5.7,0-6.9,0
		c-2.4,0-25.9,0-25.9,0s-0.6-2.7,0.1-3.6c0.3-0.5,2.5-1.3,4-1.7c6.7-1.9,25.8-7.7,29.1-14.1C647.6,627.9,663.7,642.4,663.7,642.4z"
		/>
	<path class="st16" d="M660,483.7c0,0,3.7,20.7,6.8,47.1c2.3,19.4,2.3,74.9-1.3,113.4c-0.2,2.4-24.7-4.8-24.7-4.8
		s-8.9-107.8-11-131.9C627.8,483.3,645.3,468.7,660,483.7z"/>
	<path class="st15" d="M701.3,619.5c-1-1.2-0.3-4.3-0.3-4.3s17-1.9,22.5-0.6c1.4,0.3,3.8,1.5,6.1,2.9c0.4,0.2,1.1,1.5,1.4,1.7
		c0.7,0.4,1-0.3,1.6,0.1c1.5,1,2.6,1.7,2.6,1.8c1.5,7.8-0.5,11-0.5,11s-14,4.3-17.2,1.5C709.5,626.2,703.4,622.1,701.3,619.5z"/>
	<path class="st16" d="M702.5,501.8c0,0-13.6-7.9-10.1,13.3c8.3,51.2,16,88.8,19.6,105.8c1.4,6.6,3.5,5.6,3.5,5.6l15.6,2.5l7.9-5.4
		l-14.5-115.8L702.5,501.8z"/>
	<g>
		<path class="st13" d="M640.8,505.1c2,2.7,71.8,37.9,75,37.9h57.3c3.2,0,26.5-3.4,31.6-18.7c5.3-16.2,0-45,0-45
			c0-3.3-2.6-6.1-5.8-6.1h-71.4c-3.2,0-9.7,2.7-9.7,6.1l-69.3-2.2C648.4,477,625.6,485.4,640.8,505.1z"/>
		<path class="st16" d="M772.8,522.3h-65.6c-0.7,0-57.3-15.5-58-15.6l6.8,22c0,3.3,56.6,14.4,59.8,14.4h57.3
			c3.2,0,26.5-3.4,31.6-18.7c1.6-4.9,2.3-11.1,2.4-17.2C798.8,519.4,776.1,522.3,772.8,522.3z"/>
		<path class="st12" d="M748.4,315.5l-3.1-14c0,0-10.9,0.8-13-4.6c-4.3-10.7-0.7-27.9,1.9-32.7c7.4-13.7,10.5-37.7,44.9-18.6
			c13.1,7.3-7.1,42.4-8.6,50c-1.5,7.6,3,16.4,3,16.4l-8.1,5.5L748.4,315.5z"/>
		<path class="st12" d="M691.7,411.6l59,20.9c0,0-69.5,5-69.8,1C679.4,411.2,691.7,411.6,691.7,411.6z"/>
		<path class="st42" d="M809.9,329.1c0,0,11.7,5.6,20.2,50.7c8.4,45.2,3.1,43.4,3.1,43.4l-1.5,10.3l-21.9,1.8l-11.8-39L809.9,329.1z
			"/>
		<path class="st36" d="M810.6,329.2l-28.9-12l-8-6.9l-30.7-0.7l-5.4,8.1l-23.8,9.4c0,0-5.9,8.4-0.8,39.7
			C718.8,401.5,713,491,713,491l97.2,1.4C810.2,492.4,802.1,346,810.6,329.2z"/>
		<path class="st36" d="M721.5,327.3c0,0-5.4-5.4-18.4,9.3c-22.3,25.2-33,56.5-35.3,62.5s-4.9,21,4.2,31c6.9,7.7,13.7,4.8,13.7,4.8
			l21.3-16.6l-6.8-3.5l-4.7-0.3c0,0,10.8-21.5,22.3-41C729.2,354.1,721.5,327.3,721.5,327.3z"/>
		<path class="st13" d="M743.9,268.2c0,0,3.9-2.2,4.5,0.5c0.6,2.7-1.5,8.7-3.3,9.3c-1.8,0.5-2.4,7.9-2.4,7.9l4.8,8.2h24.2
			c0,0,7.5-3,8.1-7.9c0.6-4.9,6.6-39.5,6.6-39.5l-17-8.2c0,0-9-4.1-15.3-5.7c-9.6-2.5-11.7,2.2-11.3,4.6c0.3,2.4-2.7,2.7-6.6,2.7
			c-3.9,0-8.7,2.7-6.6,4.4c0.9,0.7-3,2.8-1.5,5.4c2.2,3.7,9.5,4.9,10.1,10.9C738.5,263.6,739.7,272.6,743.9,268.2z"/>
	</g>
	<g>
		<path class="st43" d="M672.9,564.7c-0.2-1.1-0.4-8-0.4-9.2c0-7.5,4.9-13.6,10.9-13.6h121.1c6,0,10.9,6.1,10.9,13.6
			c0,1.2-0.1,8.1-0.4,9.2H672.9z"/>
		<path class="st44" d="M816.5,568.4c0,2.3-1.3,4.2-3,4.2h-139c-1.7,0-3-1.9-3-4.2l0,0c0-2.3,1.3-4.2,3-4.2h139
			C815.1,564.2,816.5,566.1,816.5,568.4L816.5,568.4z"/>
		<g>
			<g>
				<path class="st26" d="M760,632.9l-7.4,11.3l62.5,20c0,0,4.2-4-11.2-12C786,642.9,760,632.9,760,632.9z"/>
				<path class="st26" d="M748.8,632.9l7.4,11.3l-62.5,20c0,0-4.2-4,11.2-12C722.8,642.9,748.8,632.9,748.8,632.9z"/>
			</g>
			<rect x="747.9" y="599.1" class="st26" width="13.1" height="46.5"/>
			<g>
				<path class="st5" d="M760.8,635.3l-6.4,10.8l53.5,19.1c0,0,3.6-3.8-9.6-11.5C783.1,644.8,760.8,635.3,760.8,635.3z"/>
				<path class="st5" d="M748,635.3l6.4,10.8l-53.5,19.1c0,0-3.6-3.8,9.6-11.5C725.7,644.8,748,635.3,748,635.3z"/>
			</g>
			<path class="st27" d="M801.9,669.5c0,2.5,2,4.5,4.5,4.5s4.5-2,4.5-4.5s-2-4.5-4.5-4.5C803.9,665,801.9,667,801.9,669.5z"/>
			<path class="st27" d="M698.2,669.5c0,2.5,2,4.5,4.5,4.5s4.5-2,4.5-4.5s-2-4.5-4.5-4.5S698.2,667,698.2,669.5z"/>
			<path class="st25" d="M812.9,669.5c0,2.5,2,4.5,4.5,4.5c2.5,0,4.5-2,4.5-4.5s-2-4.5-4.5-4.5C814.9,665,812.9,667,812.9,669.5z"/>
			<path class="st25" d="M687.2,669.5c0,2.5,2,4.5,4.5,4.5c2.5,0,4.5-2,4.5-4.5s-2-4.5-4.5-4.5S687.2,667,687.2,669.5z"/>
		</g>
		<rect x="749.8" y="582.1" class="st44" width="9.6" height="16.7"/>
		<path class="st44" d="M742.6,573.2c0,5.2,4.2,9.3,9.3,9.3h5.3c5.1,0,9.3-4.2,9.3-9.3l0,0c0-5.2-4.2-9.3-9.3-9.3h-5.3
			C746.8,563.9,742.6,568.1,742.6,573.2L742.6,573.2z"/>
		<path class="st28" d="M692.6,564.7c-0.2-1.1-0.4-8-0.4-9.2c0-7.5,4.9-13.6,10.9-13.6h121.1c6,0,10.9,6.1,10.9,13.6
			c0,1.2-0.1,8.1-0.4,9.2H692.6z"/>
		<path class="st25" d="M836.2,568.4c0,2.3-1.3,4.2-3,4.2h-139c-1.7,0-3-1.9-3-4.2l0,0c0-2.3,1.3-4.2,3-4.2h139
			C834.8,564.2,836.2,566.1,836.2,568.4L836.2,568.4z"/>
	</g>
	<g>
		<path class="st29" d="M821.2,453.4c0,3.3-2.7,6.1-6,6.1c-38.1,0-76.3,0-114.4,0c-3.3,0-6.6-2.7-7.2-6c-4.4-24.7-4.4-50,0-74.7
			c0.6-3.3,3.9-6,7.2-6c38.1,0,76.3,0,114.4,0c3.3,0,6,2.7,6,6.1C821,403.7,821,428.6,821.2,453.4z"/>
		<path class="st28" d="M827.9,453.4c0,3.4-2.7,6.1-6.1,6.1c-38.1,0-76.3,0-114.4,0c-3.3,0-6.6-2.7-7.2-6c-4.2-24.7-4.2-50,0-74.7
			c0.6-3.3,3.8-6,7.2-6c38.1,0,76.3,0,114.4,0c3.3,0,6.1,2.7,6.1,6.1C827.9,403.7,827.9,428.5,827.9,453.4z"/>
	</g>
	<path class="st25" d="M723.6,572.9c17.6-63.3-16-126.7-1.5-190c0.8-3.4-1.2-6.1-4.5-6.1c-0.7,0-1.4,0-2.1,0c-3.3,0-6.8,2.7-7.6,6.1
		c-14.4,63.3,19.2,126.7,1.5,190C714.2,572.9,718.9,572.9,723.6,572.9z"/>
	<path class="st25" d="M823.8,572.9c17.6-63.3-16-126.7-1.5-190c0.8-3.4-1.2-6.1-4.5-6.1c-0.7,0-1.4,0-2.1,0c-3.3,0-6.8,2.7-7.6,6.1
		c-14.4,63.3,19.2,126.7,1.5,190C814.4,572.9,819.1,572.9,823.8,572.9z"/>
</g>
<g>
	<rect x="1153.1" y="578.7" class="st17" width="102.5" height="13.7"/>
	<rect x="1140.6" y="463.3" class="st17" width="127.5" height="118.4"/>
	<rect x="1140.6" y="473.9" class="st4" width="127.5" height="104.8"/>
	<rect x="1161.1" y="476.9" class="st2" width="86.5" height="36.4"/>
	<rect x="1191.3" y="483" class="st45" width="26.2" height="6.2"/>
	<rect x="1161.1" y="524" class="st2" width="86.5" height="36.4"/>
	<rect x="1191.3" y="530" class="st45" width="26.2" height="6.2"/>
	<rect x="1133.8" y="449.6" class="st4" width="141.2" height="13.7"/>
</g>
<g>
	<g>
		<path class="st14" d="M1200.1,416c0,0,6.3-22.4,16.1-30s17-18.4,30-23.3c13-4.9,16.1-13.9,11.2-17c-4.9-3.1-21-12.1-40.8,8.5
			c-19.7,20.6-24.6,36.7-24.2,56C1193,429.4,1199.2,427.2,1200.1,416z"/>
		<g>
			<path class="st46" d="M1196.4,405.6l-2.4-0.1c0.9-19.3,18.5-38.5,26.9-44.8c9-6.8,28.2-12.5,29-12.7l0.7,2.3
				c-0.2,0.1-19.6,5.8-28.3,12.3C1214.3,368.7,1197.3,387.1,1196.4,405.6z"/>
		</g>
	</g>
	<g>
		<path class="st42" d="M1194.7,423.1c0,0-10.2-28.7-14.3-37.6c-4.2-9-3.6-30.5,3-38.8c6.6-8.3,17.3-20.9,12.5-39.4
			c-4.8-18.5-2.4-29.8,6.6-22.7c9,7.2,24.7,23,25.1,48.4c0.3,19.4-5.4,30.8-16.1,44.8C1202.8,389.1,1194.1,410,1194.7,423.1z"/>
		<g>
			<path class="st47" d="M1190.4,416.5c-0.2-1.2-5.4-29.2,0.1-41c1.2-2.7,2.9-6,4.7-9.4c5.8-11.3,13.7-26.9,14.5-37.6
				c1.3-17.3-9.6-34-9.7-34.2l2-1.3c0.5,0.7,11.4,17.6,10.1,35.7c-0.8,11.3-8.5,26.4-14.7,38.5c-1.8,3.4-3.4,6.7-4.6,9.3
				c-5.2,11.2,0,39.3,0.1,39.6L1190.4,416.5z"/>
		</g>
	</g>
	<g>
		<path class="st13" d="M1154.9,380.6c-11.6-2.2-12.5-15.7-3.6-18.4c9-2.7,23.7-2.2,30.9,7.2c8.3,10.9,11.6,30.4,8.9,44.3
			c-2.7,13.9,0-5.4-5.8-14.8C1179.5,389.5,1164.5,382.4,1154.9,380.6z"/>
		<g>
			<path class="st15" d="M1191.6,410.3c-2.1-13.8-7.1-24.4-15.4-32.3c-10.7-10.3-26.4-7.4-26.5-7.4l-0.3-1.8
				c0.7-0.1,16.7-3.1,28.1,7.8c8.6,8.3,13.8,19.2,15.9,33.3L1191.6,410.3z"/>
		</g>
	</g>
	<polygon class="st17" points="1214,450.3 1181.8,450.3 1176.4,398.4 1219.4,398.4 	"/>
	<polygon class="st4" points="1179.6,398.4 1182.6,439.7 1205.8,439.7 1208.8,398.4 	"/>
</g>
</svg>
