<?xml version="1.0" encoding="utf-8"?>
<!-- Generator: Adobe Illustrator 23.0.3, SVG Export Plug-In . SVG Version: 6.00 Build 0)  -->
<svg version="1.1" id="Layer_1" xmlns="http://www.w3.org/2000/svg" xmlns:xlink="http://www.w3.org/1999/xlink" x="0px" y="0px"
	 viewBox="0 0 1325.7 721" style="enable-background:new 0 0 1325.7 721;" xml:space="preserve">
<style type="text/css">
	.st0{fill:#D1F5FF;}
	.st1{fill:none;}
	.st2{fill:#E1EEFE;}
	.st3{fill:#EDF4FC;}
	.st4{fill:#BCD0E2;}
	.st5{fill:#B0BFDE;}
	.st6{fill:#D1DBEA;}
	.st7{fill:#E4EFFF;}
	.st8{fill:#253858;}
	.st9{fill:#FFC40E;}
	.st10{fill:#3BB6D5;}
	.st11{fill:#3D7AA8;}
	.st12{fill:#4C5C7D;}
	.st13{fill:#4A6178;}
	.st14{fill:#FFAB01;}
	.st15{fill:#FEC12F;}
	.st16{fill:#FFFFFF;}
	.st17{fill:#D9E1E4;}
	.st18{fill:#BAC2C6;}
	.st19{opacity:0.34;fill:#FFFFFF;enable-background:new    ;}
	.st20{fill:#165670;}
	.st21{fill:#367082;}
	.st22{fill:#88BDDA;}
	.st23{fill:#ACD5F4;}
	.st24{fill:#001F46;}
	.st25{fill:#2F91AA;}
	.st26{fill:#163F59;}
	.st27{fill:#194866;}
	.st28{fill:#93CEF5;}
	.st29{fill:#86BBD8;}
	.st30{fill:#C4D1E1;}
	.st31{fill:#E9D6B8;}
	.st32{fill:#B6C2C9;}
	.st33{fill:#D8E5ED;}
	.st34{fill:#879BA6;}
	.st35{fill:#E2C59C;}
	.st36{fill:#0C1153;}
</style>
<path class="st0" d="M-722.3-2051.9"/>
<line class="st1" x1="-812.3" y1="992.1" x2="-812.3" y2="-1712.1"/>
<line class="st1" x1="1487.6" y1="-541.1" x2="1487.6" y2="2163.1"/>
<g>
	<g>
		<path class="st2" d="M361.8,486.6l17.9-49l-24.2-15.2c0.8-7.4,1.1-14.8,0.9-22.4l26.4-10.7l-9-51.3l-31.6-1.2
			c-2.7-6.1-5.7-12-9-17.6l19.2-24.6l-33.5-40l-29.8,15.7c-4.8-3.6-9.8-6.9-15-10l4.6-32.7l-48.9-17.9l-18.2,29
			c-5.8-0.8-11.7-1.2-17.6-1.4l-12.5-30.8l-51.3,9l-1.3,33.2c-5.9,2.3-11.6,4.9-17.1,7.8L86.8,237l-40,33.5l14.4,27.3
			c-4.5,5.4-8.6,11-12.3,17l-29-4.1L2,359.6l23.5,14.8c-1.4,7.8-2.3,15.7-2.5,23.7l-24.2,9.8l9,51.3l24.8,1
			c3,8.4,6.6,16.5,10.8,24.2l-14.3,18.3l33.5,40l20.1-10.6c7.3,6,15,11.5,23.2,16.2l-3,21.3l49,17.9l11.7-18.6
			c9.3,1.5,18.9,2.2,28.6,2l8,19.8l51.3-9l0.9-23c8.6-3.5,16.8-7.6,24.6-12.4l18,14l40-33.5L323,504.3c5.1-6.7,9.6-13.8,13.6-21.3
			L361.8,486.6z M202,474.5c-38.9,6.8-75.9-19.2-82.7-58c-6.8-38.9,19.2-75.9,58.1-82.7s75.9,19.2,82.7,58.1
			C266.9,430.7,240.9,467.7,202,474.5z"/>
		<path class="st3" d="M170.6,295.3c-60.1,10.5-100.3,67.8-89.8,127.9c10.5,60.1,67.8,100.3,127.9,89.8
			c60.1-10.5,100.3-67.8,89.8-127.9C288,325,230.7,284.8,170.6,295.3z M204.8,490.4c-47.6,8.3-93-23.5-101.3-71.1
			c-8.4-47.6,23.5-93,71.1-101.4c47.6-8.3,93,23.5,101.3,71.2C284.3,436.7,252.4,482,204.8,490.4z"/>
	</g>
	<g>
		<path class="st4" d="M928.4,275.5l12.7-50.7l-25.7-12.6c0-7.4-0.4-14.9-1.4-22.4l25.2-13.4L925,126.1l-31.6,2.1
			c-3.3-5.8-6.9-11.3-10.8-16.6l16.6-26.5l-37.5-36.4l-28.1,18.8c-5.2-3.1-10.5-5.9-16-8.4l1.2-33.1l-50.6-12.7L753,44.1
			c-5.9-0.2-11.8,0-17.7,0.5l-15.6-29.4l-50.2,14.3l2.2,33.2c-5.6,2.9-11,6.1-16.2,9.5l-27.1-16.9l-36.3,37.5l17.2,25.7
			c-3.9,5.8-7.4,11.9-10.5,18.2l-29.3-1l-12.7,50.7l25,12.3c-0.6,7.9-0.6,15.9-0.1,23.9l-23.1,12.3l14.3,50.2l24.8-1.6
			c3.9,8.1,8.3,15.8,13.3,23l-12.3,19.7l37.5,36.3l18.9-12.7c7.8,5.3,16.1,9.9,24.8,13.8l-0.8,21.5l50.6,12.8l9.7-19.8
			c9.5,0.5,19.1,0.2,28.7-1l10,18.9l50.2-14.3l-1.5-23c8.2-4.4,16-9.4,23.3-14.9l19.3,12.1l36.3-37.5l-14.2-21.2
			c4.3-7.2,8.1-14.8,11.3-22.6L928.4,275.5z M768,280c-38,10.8-77.7-11.2-88.5-49.3c-10.8-38,11.2-77.7,49.3-88.5
			s77.7,11.2,88.5,49.3C828.1,229.6,806,269.2,768,280z"/>
		<path class="st5" d="M718.1,104.7c-58.8,16.7-92.9,78-76.2,136.8s78,92.9,136.8,76.2c58.8-16.7,92.9-78,76.2-136.8
			C838.1,122.1,776.9,88,718.1,104.7z M772.4,295.6c-46.6,13.3-95.1-13.8-108.4-60.3c-13.3-46.6,13.8-95.1,60.3-108.4
			c46.6-13.3,95.1,13.8,108.4,60.4C846,233.8,819,282.3,772.4,295.6z"/>
	</g>
	<g>
		<path class="st6" d="M1140.7,254l18.7-24.2l-10.8-12.8c1.8-4,3.3-8.1,4.5-12.4l16.7-1.3l4.1-30.3l-17.4-6.3
			c-0.4-3.9-1.1-7.7-1.9-11.4l15.1-10.4l-11.6-28.3l-19.4,3.5c-2.1-2.9-4.3-5.6-6.6-8.2l8.3-17.5L1116,75.9l-15.3,13
			c-3.1-1.5-6.3-2.8-9.6-3.9l-1.5-19.4l-30.3-4.1l-6.6,18.3c-3.7,0.2-7.3,0.7-10.9,1.3l-10.6-15.4L1003,77.4l3.2,17.8
			c-3.4,2.2-6.8,4.7-9.9,7.3l-15.5-7.4l-18.7,24.2l10.5,12.4c-2.2,4.1-4,8.4-5.6,12.8l-15.3,1.2l-4.1,30.3l13.7,4.9
			c0.2,5.3,0.8,10.4,1.8,15.5l-11.2,7.7l11.6,28.3l13.1-2.4c3,4.7,6.3,9.1,10.1,13.2l-5.4,11.4l24.2,18.7l9.8-8.3
			c5,2.5,10.2,4.6,15.6,6.2l1,12.5l30.3,4.1l4.5-12.7c5.4-0.4,10.8-1.3,16-2.6l7.6,11l28.3-11.6l-2.7-14.7c4-2.9,7.8-6,11.4-9.5
			L1140.7,254z M1052.3,228.3c-28.1-3.8-47.8-29.6-44-57.7c3.8-28.1,29.6-47.8,57.7-44c28.1,3.8,47.8,29.6,44,57.7
			C1106.2,212.3,1080.4,232.1,1052.3,228.3z"/>
		<path class="st5" d="M1068.9,104.4c-40.3-5.4-77.5,22.9-82.9,63.3c-5.4,40.3,22.9,77.4,63.3,82.8c40.3,5.4,77.4-22.9,82.9-63.3
			C1137.6,146.9,1109.3,109.8,1068.9,104.4z M1051.4,235.3c-32-4.3-54.4-33.7-50.1-65.7c4.3-32,33.7-54.4,65.7-50.1
			c32,4.3,54.4,33.7,50.1,65.7C1112.7,217.2,1083.4,239.6,1051.4,235.3z"/>
	</g>
	<path class="st7" d="M348.2,558.5c86.1,4.2,352.9,16.2,515.3,15.6c301.1-1.2,544.4,43.6,381.4,69.3c-45.6,7.2,80.8,73.2-237.6,68.1
		c-279.5-4.5-562.2-45.8-699.2-64.4c-136.9-18.6-199.3-41.2-228.3-51.5C54.4,586.6,47.2,543.9,348.2,558.5z"/>
	<g>
		<g>
			<rect x="185.3" y="145.1" class="st8" width="475.4" height="371.6"/>
			<rect x="185.3" y="122.1" class="st2" width="475.4" height="22"/>
			<path class="st5" d="M201.4,133.1c0,2.4-2,4.4-4.4,4.4c-2.4,0-4.4-2-4.4-4.4s2-4.4,4.4-4.4C199.4,128.7,201.4,130.6,201.4,133.1z
				"/>
			<path class="st9" d="M215.3,133.1c0,2.4-2,4.4-4.4,4.4c-2.4,0-4.4-2-4.4-4.4s2-4.4,4.4-4.4C213.3,128.7,215.3,130.6,215.3,133.1z
				"/>
			<path class="st10" d="M229.2,133.1c0,2.4-2,4.4-4.4,4.4c-2.4,0-4.4-2-4.4-4.4s2-4.4,4.4-4.4C227.3,128.7,229.2,130.6,229.2,133.1
				z"/>
		</g>
		<g>
			<g>
				<rect x="257.6" y="177" class="st11" width="99.9" height="7"/>
			</g>
			<g>
				<rect x="265.9" y="193" class="st11" width="16.5" height="7"/>
			</g>
			<g>
				<rect x="265.9" y="209" class="st11" width="16.5" height="7"/>
			</g>
			<g>
				<rect x="265.9" y="224.9" class="st11" width="16.5" height="7"/>
			</g>
			<g>
				<rect x="314.7" y="193" class="st11" width="50.7" height="7"/>
			</g>
			<g>
				<rect x="314.7" y="209" class="st11" width="50.7" height="7"/>
			</g>
			<g>
				<rect x="314.7" y="224.9" class="st11" width="50.7" height="7"/>
			</g>
			<g>
				<rect x="289.5" y="193" class="st12" width="11.6" height="7"/>
			</g>
			<g>
				<rect x="289.5" y="209" class="st12" width="11.6" height="7"/>
			</g>
			<g>
				<rect x="289.5" y="224.9" class="st12" width="11.6" height="7"/>
			</g>
			<g>
				<rect x="306.2" y="193" class="st13" width="3.1" height="7"/>
			</g>
			<g>
				<rect x="306.2" y="209" class="st13" width="3.1" height="7"/>
			</g>
			<g>
				<rect x="306.2" y="224.9" class="st13" width="3.1" height="7"/>
			</g>
			<g>
				<rect x="258" y="193" class="st13" width="3.1" height="7"/>
			</g>
			<g>
				<rect x="258" y="209" class="st13" width="3.1" height="7"/>
			</g>
			<g>
				<rect x="258" y="224.9" class="st13" width="3.1" height="7"/>
			</g>
			<g>
				<rect x="265.9" y="256.9" class="st11" width="25.5" height="7"/>
			</g>
			<g>
				<rect x="326.7" y="256.9" class="st11" width="38.7" height="7"/>
			</g>
			<g>
				<rect x="298.5" y="256.9" class="st12" width="14.6" height="7"/>
			</g>
			<g>
				<rect x="318.2" y="256.9" class="st13" width="3.1" height="7"/>
			</g>
			<g>
				<rect x="366.9" y="288.8" class="st11" width="119.8" height="7"/>
			</g>
			<g>
				<rect x="300" y="288.8" class="st12" width="57.5" height="7"/>
			</g>
			<g>
				<rect x="410.4" y="256.9" class="st11" width="38.7" height="7"/>
			</g>
			<g>
				<rect x="376.3" y="256.9" class="st12" width="20.7" height="7"/>
			</g>
			<g>
				<rect x="401.9" y="256.9" class="st13" width="3.1" height="7"/>
			</g>
			<g>
				<rect x="453" y="256.9" class="st13" width="3.1" height="7"/>
			</g>
			<g>
				<rect x="258" y="256.9" class="st13" width="3.1" height="7"/>
			</g>
			<g>
				<rect x="265.9" y="320.7" class="st11" width="25.5" height="7"/>
			</g>
			<g>
				<rect x="258" y="320.7" class="st12" width="3.1" height="7"/>
			</g>
			<g>
				<rect x="296.3" y="320.7" class="st12" width="3.1" height="7"/>
			</g>
			<g>
				<rect x="246.3" y="384.6" class="st11" width="25.5" height="7"/>
			</g>
			<g>
				<rect x="238.5" y="384.6" class="st12" width="3.1" height="7"/>
			</g>
			<g>
				<rect x="276.8" y="384.6" class="st12" width="3.1" height="7"/>
			</g>
			<g>
				<rect x="279.4" y="304.8" class="st13" width="3.1" height="7"/>
			</g>
			<g>
				<rect x="279.4" y="272.8" class="st11" width="15" height="7"/>
			</g>
			<g>
				<rect x="300" y="272.8" class="st13" width="58.6" height="7"/>
			</g>
			<g>
				<rect x="401.1" y="193" class="st11" width="50.7" height="7"/>
			</g>
			<g>
				<rect x="401.1" y="209" class="st11" width="50.7" height="7"/>
			</g>
			<g>
				<rect x="401.1" y="224.9" class="st11" width="50.7" height="7"/>
			</g>
			<g>
				<rect x="454.4" y="193" class="st11" width="88.6" height="7"/>
			</g>
			<g>
				<rect x="454.4" y="209" class="st11" width="121.3" height="7"/>
			</g>
			<g>
				<rect x="454.4" y="224.9" class="st11" width="143.1" height="7"/>
			</g>
			<g>
				<rect x="375.9" y="193" class="st12" width="11.6" height="7"/>
			</g>
			<g>
				<rect x="375.9" y="209" class="st12" width="11.6" height="7"/>
			</g>
			<g>
				<rect x="375.9" y="224.9" class="st12" width="11.6" height="7"/>
			</g>
			<g>
				<rect x="392.6" y="193" class="st13" width="3.1" height="7"/>
			</g>
			<g>
				<rect x="392.6" y="209" class="st13" width="3.1" height="7"/>
			</g>
			<g>
				<rect x="392.6" y="224.9" class="st13" width="3.1" height="7"/>
			</g>
			<g>
				<rect x="554.6" y="193" class="st13" width="3.1" height="7"/>
			</g>
			<g>
				<rect x="584.4" y="209" class="st13" width="3.1" height="7"/>
			</g>
			<g>
				<rect x="604.7" y="224.9" class="st13" width="3.1" height="7"/>
			</g>
			<g>
				<rect x="257.6" y="240.9" class="st11" width="99.9" height="7"/>
			</g>
			<g>
				<rect x="245.6" y="418.6" class="st11" width="16.5" height="7"/>
			</g>
			<g>
				<rect x="284.3" y="450.5" class="st11" width="16.5" height="7"/>
			</g>
			<g>
				<rect x="333.1" y="450.5" class="st11" width="109.6" height="7"/>
			</g>
			<g>
				<rect x="258.7" y="434.6" class="st12" width="160.7" height="7"/>
			</g>
			<g>
				<rect x="307.9" y="450.5" class="st12" width="11.6" height="7"/>
			</g>
			<g>
				<rect x="324.6" y="450.5" class="st13" width="3.1" height="7"/>
			</g>
			<g>
				<rect x="237.7" y="418.6" class="st13" width="3.1" height="7"/>
			</g>
			<g>
				<rect x="265.9" y="418.6" class="st13" width="3.1" height="7"/>
			</g>
			<g>
				<rect x="306.4" y="466.5" class="st11" width="7.5" height="7"/>
			</g>
			<g>
				<rect x="298.5" y="466.5" class="st13" width="3.1" height="7"/>
			</g>
			<g>
				<rect x="317.7" y="466.5" class="st13" width="3.1" height="7"/>
			</g>
			<g>
				<rect x="327.5" y="498.4" class="st11" width="7.5" height="7"/>
			</g>
			<g>
				<rect x="319.6" y="498.4" class="st13" width="3.1" height="7"/>
			</g>
			<g>
				<rect x="338.7" y="498.4" class="st13" width="3.1" height="7"/>
			</g>
			<g>
				<rect x="276.4" y="450.5" class="st13" width="3.1" height="7"/>
			</g>
			<g>
				<rect x="319.9" y="482.5" class="st12" width="158.5" height="7"/>
			</g>
			<g>
				<rect x="446.5" y="450.5" class="st13" width="3.1" height="7"/>
			</g>
			<g>
				<rect x="257.6" y="336.7" class="st11" width="137.4" height="7"/>
			</g>
			<g>
				<rect x="257.6" y="352.7" class="st11" width="203.5" height="7"/>
			</g>
			<g>
				<rect x="257.6" y="368.7" class="st11" width="69.1" height="7"/>
			</g>
			<g>
				<rect x="202.8" y="177" class="st13" width="7.5" height="7"/>
			</g>
			<g>
				<rect x="202.8" y="193" class="st13" width="7.5" height="7"/>
			</g>
			<g>
				<rect x="202.8" y="209" class="st13" width="7.5" height="7"/>
			</g>
			<g>
				<rect x="202.8" y="224.9" class="st13" width="7.5" height="7"/>
			</g>
			<g>
				<rect x="202.8" y="240.9" class="st13" width="7.5" height="7"/>
			</g>
			<g>
				<rect x="202.8" y="256.9" class="st13" width="7.5" height="7"/>
			</g>
			<g>
				<rect x="202.8" y="272.8" class="st13" width="7.5" height="7"/>
			</g>
			<g>
				<rect x="202.8" y="288.8" class="st13" width="7.5" height="7"/>
			</g>
			<g>
				<rect x="202.8" y="304.8" class="st13" width="7.5" height="7"/>
			</g>
			<g>
				<rect x="202.8" y="320.7" class="st13" width="7.5" height="7"/>
			</g>
			<g>
				<rect x="202.8" y="336.7" class="st13" width="7.5" height="7"/>
			</g>
			<g>
				<rect x="202.8" y="352.7" class="st13" width="7.5" height="7"/>
			</g>
			<g>
				<rect x="202.8" y="368.7" class="st13" width="7.5" height="7"/>
			</g>
			<g>
				<rect x="202.8" y="384.6" class="st13" width="7.5" height="7"/>
			</g>
			<g>
				<rect x="202.8" y="400.6" class="st13" width="7.5" height="7"/>
			</g>
			<g>
				<rect x="202.8" y="416.6" class="st13" width="7.5" height="7"/>
			</g>
			<g>
				<rect x="202.8" y="432.5" class="st13" width="7.5" height="7"/>
			</g>
		</g>
	</g>
	<g>
		<g>
			<g>
				<path class="st14" d="M156.9,384.4c0,0,2.9-8.9-0.4-17.1c-1.2-3-5.8-7.1-8.8-5.8c-3.1,1.2-4,6-2.3,10.3
					C148.7,380,156.9,384.4,156.9,384.4z"/>
				<path class="st14" d="M161.4,398.4c0,0-4-7.1-11.2-9.7c-2.6-0.9-7.9-0.3-8.9,2.5c-1,2.8,1.5,6.2,5.3,7.6
					C153.8,401.4,161.4,398.4,161.4,398.4z"/>
				<path class="st14" d="M169.8,413.5c0,0-6.5-4.9-14.1-4.3c-2.8,0.2-7.3,3-7.1,5.9c0.2,2.9,3.9,5.1,7.9,4.8
					C164,419.3,169.8,413.5,169.8,413.5z"/>
				<path class="st14" d="M161.8,398.7c0,0,7-2.9,11-9.3c1.5-2.3,2.3-7.4,0.3-8.7c-2-1.3-5.6,0.6-7.7,4
					C161.4,391.2,161.8,398.7,161.8,398.7z"/>
				<path class="st14" d="M168.8,414c0,0,7.2-2.8,11.3-9.2c1.5-2.3,2.3-7.5,0.1-8.8c-2.2-1.4-5.8,0.5-7.9,3.9
					C168.2,406.3,168.8,414,168.8,414z"/>
				<path class="st14" d="M182.1,432.9c0,0,6.4-1.5,9.5-6.4c1.1-1.8,1.3-6-0.9-7.3c-2.2-1.4-5.3-0.2-7,2.4
					C180.7,426.5,182.1,432.9,182.1,432.9z"/>
				<path class="st14" d="M181.3,433.4c0,0-4.7-4.2-10.9-4.7c-2.2-0.2-6.2,1.3-6.4,3.4c-0.2,2.1,2.5,4,5.8,4.3
					C176,436.8,181.3,433.4,181.3,433.4z"/>
			</g>
			<g>
				<path class="st14" d="M218,519.2c-1.4,1.3-2.7,1.8-2.8,1.8l-0.5-1.5l0.2,0.7l-0.3-0.7c0.1,0,3.4-1.2,5-6.3
					c1.7-5.6,0.5-13.6-3.5-23.7c-5.5-13.9-16.4-31.4-32.2-52.1c-18.4-24-23.5-39.7-26.9-50.1c-0.9-2.7-1.6-5-2.4-6.8l1.4-0.6
					c0.8,2,1.6,4.3,2.5,7c3.3,10.3,8.4,25.8,26.7,49.6c35.3,46,39,67.5,36,77.3C220.4,516.4,219.2,518.1,218,519.2z"/>
			</g>
		</g>
		<path class="st14" d="M660.1,531.7c35.5-19.2,8.5-27.6-24.1-28.7c16.3-14.3,7.1-29-31.3-46.5c-17.2-7.9-38.6-4.7-59.8,3.8
			c-15.1-29.9-36.1-50.8-61.6-40.9c-21.1,8.1-36.8,18.4-46.8,29.6c-6.3-2.7-13.2-5.2-20.5-7.7c-16-5.2-28-2.2-36.9,5.9
			c-31-18.7-62.6-30.3-81.9-19c-33.5,19.6-38.4,37.3-17.7,55.8c-32.5-0.3-57.4,8.6-15.8,34.2c-38.5-5.5-66.2-2.8-50.5,19.7
			c35,50.2,207.9,65.5,337.9,48.5c81.7-0.8,150.2-12.1,164.1-36.3C725.7,532.2,697.3,528.8,660.1,531.7z"/>
		<g>
			<path class="st15" d="M229,489.7c36,15.9,59.8,48.2,66.7,84.5c-31.5,19.4-71.3,23.5-107.4,7.6c-36-15.9-59.8-48.2-66.7-84.5
				C153.1,477.9,192.9,473.8,229,489.7z"/>
			<g>
				<g>
					
						<rect x="211.3" y="452.7" transform="matrix(0.4041 -0.9147 0.9147 0.4041 -364.3952 514.1373)" class="st16" width="2.1" height="168.1"/>
				</g>
				<g>
					
						<rect x="140" y="522" transform="matrix(0.9043 -0.4268 0.4268 0.9043 -208.4907 115.8784)" class="st16" width="28.5" height="2.1"/>
				</g>
				<g>
					
						<rect x="159.9" y="535" transform="matrix(0.9043 -0.4268 0.4268 0.9043 -211.8305 127.0302)" class="st16" width="35.2" height="2.1"/>
				</g>
				<g>
					
						<rect x="163.7" y="551.7" transform="matrix(0.9044 -0.4268 0.4268 0.9044 -217.4276 135.2817)" class="st16" width="58.8" height="2.1"/>
				</g>
				<g>
					
						<rect x="191.3" y="562.9" transform="matrix(0.9043 -0.4268 0.4268 0.9043 -219.6594 147.8205)" class="st16" width="57.2" height="2.1"/>
				</g>
				<g>
					
						<rect x="241.7" y="569" transform="matrix(0.9043 -0.4268 0.4268 0.9043 -218.6896 164.4884)" class="st16" width="31.8" height="2.1"/>
				</g>
				<g>
					
						<rect x="158.9" y="487.3" transform="matrix(0.956 -0.2932 0.2932 0.956 -140.0181 68.9554)" class="st16" width="2.1" height="28.5"/>
				</g>
				<g>
					
						<rect x="182.9" y="483.3" transform="matrix(0.9561 -0.2932 0.2932 0.9561 -140.1193 76.1583)" class="st16" width="2.1" height="44.5"/>
				</g>
				<g>
					
						<rect x="207.4" y="483.9" transform="matrix(0.956 -0.2932 0.2932 0.956 -140.8788 83.6058)" class="st16" width="2.1" height="55.7"/>
				</g>
				<g>
					
						<rect x="233.5" y="494" transform="matrix(0.9561 -0.2932 0.2932 0.9561 -142.9061 91.7334)" class="st16" width="2.1" height="57.2"/>
				</g>
				<g>
					
						<rect x="260.8" y="513.4" transform="matrix(0.956 -0.2933 0.2933 0.956 -146.2724 100.4693)" class="st16" width="2.1" height="49.1"/>
				</g>
			</g>
		</g>
		<g>
			<path class="st15" d="M329.1,459.6c24.7,35.9,28.3,80,13.8,118.1c-40.8,0-80.7-19.3-105.4-55.1c-24.7-35.9-28.3-80-13.8-118.1
				C264.5,404.5,304.4,423.7,329.1,459.6z"/>
			<g>
				<g>
					
						<rect x="285.1" y="401.4" transform="matrix(0.824 -0.5666 0.5666 0.824 -229.6612 249.1821)" class="st16" width="2.3" height="185.7"/>
				</g>
				<g>
					
						<rect x="238.3" y="431.9" transform="matrix(0.1111 -0.9938 0.9938 0.1111 -232.0202 635.9914)" class="st16" width="2.3" height="31.5"/>
				</g>
				<g>
					
						<rect x="252.6" y="453.9" transform="matrix(0.111 -0.9938 0.9938 0.111 -244.8235 672.9755)" class="st16" width="2.3" height="38.8"/>
				</g>
				<g>
					
						<rect x="257.6" y="465.6" transform="matrix(0.1111 -0.9938 0.9938 0.1111 -264.9048 699.912)" class="st16" width="2.3" height="64.9"/>
				</g>
				<g>
					
						<rect x="276.4" y="492.6" transform="matrix(0.111 -0.9938 0.9938 0.111 -274.1887 741.8452)" class="st16" width="2.3" height="63.2"/>
				</g>
				<g>
					
						<rect x="308.3" y="534.3" transform="matrix(0.1111 -0.9938 0.9938 0.1111 -273.3597 798.1096)" class="st16" width="2.3" height="35.2"/>
				</g>
				<g>
					
						<rect x="241.7" y="429.6" transform="matrix(0.252 -0.9677 0.9677 0.252 -224.3087 571.3159)" class="st16" width="31.5" height="2.3"/>
				</g>
				<g>
					
						<rect x="253" y="447.1" transform="matrix(0.2519 -0.9677 0.9677 0.2519 -226.2306 603.9268)" class="st16" width="49.1" height="2.3"/>
				</g>
				<g>
					
						<rect x="266.3" y="467.2" transform="matrix(0.2519 -0.9677 0.9677 0.2519 -231.0946 637.8289)" class="st16" width="61.5" height="2.3"/>
				</g>
				<g>
					
						<rect x="283.6" y="492.5" transform="matrix(0.252 -0.9677 0.9677 0.252 -241.9913 674.3475)" class="st16" width="63.2" height="2.3"/>
				</g>
				<g>
					
						<rect x="304.9" y="522.9" transform="matrix(0.2519 -0.9677 0.9677 0.2519 -258.814 713.3325)" class="st16" width="54.3" height="2.3"/>
				</g>
			</g>
		</g>
	</g>
	<g>
		<g>
			<rect x="399.7" y="237.2" class="st4" width="622.7" height="355.7"/>
			<rect x="399.7" y="237.2" class="st2" width="622.7" height="22"/>
			<path class="st5" d="M415.8,248.2c0,2.4-2,4.4-4.4,4.4c-2.4,0-4.4-2-4.4-4.4c0-2.4,2-4.4,4.4-4.4
				C413.8,243.8,415.8,245.7,415.8,248.2z"/>
			<path class="st9" d="M429.7,248.2c0,2.4-2,4.4-4.4,4.4s-4.4-2-4.4-4.4c0-2.4,2-4.4,4.4-4.4C427.7,243.8,429.7,245.7,429.7,248.2z
				"/>
			<path class="st10" d="M443.6,248.2c0,2.4-2,4.4-4.4,4.4c-2.4,0-4.4-2-4.4-4.4c0-2.4,2-4.4,4.4-4.4
				C441.7,243.8,443.6,245.7,443.6,248.2z"/>
		</g>
		<rect x="465.8" y="282.1" class="st3" width="535.9" height="288.2"/>
		<g>
			<rect x="502.7" y="313.1" class="st17" width="115.3" height="4.8"/>
		</g>
		<g>
			<rect x="502.7" y="303" class="st17" width="37.4" height="4.7"/>
		</g>
		<g>
			<rect x="745" y="313.1" class="st17" width="115.3" height="4.8"/>
		</g>
		<g>
			<rect x="745" y="481.5" class="st9" width="5.8" height="4.8"/>
		</g>
		<g>
			<rect x="745" y="492.9" class="st17" width="97.1" height="4.7"/>
		</g>
		<g>
			<rect x="875.1" y="481.5" class="st10" width="5.8" height="4.8"/>
		</g>
		<g>
			<rect x="875.1" y="492.9" class="st17" width="97.1" height="4.7"/>
		</g>
		<g>
			<rect x="745" y="303" class="st17" width="37.4" height="4.7"/>
		</g>
		<g>
			<g>
				<g>
					<g>
						<g>
							<path class="st18" d="M687.5,532.1H507.1V327.7h180.3V532.1z M507.3,531.9h179.9v-204H507.3V531.9z"/>
						</g>
						<g>
							<rect x="507.2" y="502.7" class="st18" width="180.1" height="0.2"/>
						</g>
						<g>
							<rect x="507.2" y="473.6" class="st18" width="180.1" height="0.2"/>
						</g>
						<g>
							<rect x="507.2" y="444.4" class="st18" width="180.1" height="0.2"/>
						</g>
						<g>
							<rect x="507.2" y="415.2" class="st18" width="180.1" height="0.2"/>
						</g>
						<g>
							<rect x="507.2" y="386" class="st18" width="180.1" height="0.2"/>
						</g>
						<g>
							<rect x="507.2" y="356.9" class="st18" width="180.1" height="0.2"/>
						</g>
						<g>
							<rect x="627.2" y="327.8" class="st18" width="0.2" height="204.2"/>
						</g>
						<g>
							<rect x="567.2" y="327.8" class="st18" width="0.2" height="204.2"/>
						</g>
					</g>
					<g>
						
							<rect x="496" y="332.4" transform="matrix(0.7074 -0.7068 0.7068 0.7074 -87.959 452.4981)" class="st18" width="13.2" height="0.2"/>
					</g>
					<g>
						
							<rect x="496.1" y="361.5" transform="matrix(0.7072 -0.7071 0.7071 0.7072 -108.4796 461.2917)" class="st18" width="13.2" height="0.2"/>
					</g>
					<g>
						
							<rect x="496.1" y="390.7" transform="matrix(0.7072 -0.7071 0.7071 0.7072 -129.1052 469.835)" class="st18" width="13.2" height="0.2"/>
					</g>
					<g>
						
							<rect x="496" y="419.9" transform="matrix(0.7074 -0.7068 0.7068 0.7074 -149.8199 478.1066)" class="st18" width="13.2" height="0.2"/>
					</g>
					<g>
						
							<rect x="496" y="449.1" transform="matrix(0.7074 -0.7068 0.7068 0.7074 -170.4385 486.6404)" class="st18" width="13.2" height="0.2"/>
					</g>
					<g>
						
							<rect x="496" y="478.2" transform="matrix(0.7074 -0.7068 0.7068 0.7074 -191.0531 495.1763)" class="st18" width="13.2" height="0.2"/>
					</g>
					<g>
						
							<rect x="496" y="507.4" transform="matrix(0.7074 -0.7068 0.7068 0.7074 -211.6748 503.709)" class="st18" width="13.2" height="0.2"/>
					</g>
					<g>
						<path class="st18" d="M489.6,513L489.6,513l-0.9,0.5l-0.1-0.5l1.2-0.6h0.6v5.3h-0.7V513z"/>
						<path class="st18" d="M495.8,514.9c0,1.8-0.7,2.8-1.8,2.8c-1,0-1.7-1-1.8-2.7c0-1.8,0.8-2.8,1.8-2.8
							C495.1,512.2,495.8,513.2,495.8,514.9z M492.9,515c0,1.4,0.4,2.2,1.1,2.2c0.7,0,1.1-0.9,1.1-2.2c0-1.3-0.3-2.2-1.1-2.2
							C493.4,512.8,492.9,513.5,492.9,515z"/>
					</g>
					<g>
						<path class="st18" d="M488.1,488.6v-0.4l0.6-0.5c1.3-1.3,2-2,2-2.8c0-0.5-0.3-1-1.1-1c-0.5,0-0.9,0.2-1.1,0.5l-0.2-0.5
							c0.4-0.3,0.9-0.5,1.5-0.5c1.1,0,1.6,0.8,1.6,1.5c0,1-0.7,1.8-1.8,2.8l-0.4,0.4v0h2.4v0.6L488.1,488.6L488.1,488.6z"/>
						<path class="st18" d="M495.8,485.9c0,1.8-0.7,2.8-1.8,2.8c-1,0-1.7-1-1.8-2.7c0-1.8,0.8-2.8,1.8-2.8
							C495.1,483.2,495.8,484.2,495.8,485.9z M492.9,486c0,1.4,0.4,2.2,1.1,2.2c0.7,0,1.1-0.9,1.1-2.2c0-1.3-0.3-2.2-1.1-2.2
							C493.4,483.8,492.9,484.6,492.9,486z"/>
					</g>
					<g>
						<path class="st18" d="M488.3,458.8c0.2,0.1,0.7,0.3,1.2,0.3c0.9,0,1.2-0.6,1.2-1c0-0.7-0.7-1.1-1.4-1.1h-0.4v-0.5h0.4
							c0.5,0,1.2-0.3,1.2-0.9c0-0.4-0.3-0.8-0.9-0.8c-0.4,0-0.8,0.2-1.1,0.3l-0.2-0.5c0.3-0.2,0.8-0.4,1.4-0.4c1,0,1.5,0.6,1.5,1.3
							c0,0.5-0.3,1-1,1.3v0c0.7,0.1,1.2,0.6,1.2,1.4c0,0.8-0.7,1.6-1.9,1.6c-0.6,0-1.1-0.2-1.4-0.4L488.3,458.8z"/>
						<path class="st18" d="M495.8,457c0,1.8-0.7,2.8-1.8,2.8c-1,0-1.7-1-1.8-2.7c0-1.8,0.8-2.8,1.8-2.8
							C495.1,454.3,495.8,455.3,495.8,457z M492.9,457c0,1.4,0.4,2.2,1.1,2.2c0.7,0,1.1-0.9,1.1-2.2c0-1.3-0.3-2.2-1.1-2.2
							C493.4,454.8,492.9,455.6,492.9,457z"/>
					</g>
					<g>
						<path class="st18" d="M490.3,430.7v-1.4h-2.5v-0.5l2.4-3.4h0.8v3.3h0.7v0.6H491v1.4H490.3z M490.3,428.7v-1.8
							c0-0.3,0-0.5,0-0.8h0c-0.2,0.3-0.3,0.5-0.4,0.8l-1.3,1.8v0H490.3z"/>
						<path class="st18" d="M495.8,428c0,1.8-0.7,2.8-1.8,2.8c-1,0-1.7-1-1.8-2.7c0-1.8,0.8-2.8,1.8-2.8
							C495.1,425.3,495.8,426.3,495.8,428z M492.9,428.1c0,1.4,0.4,2.2,1.1,2.2c0.7,0,1.1-0.9,1.1-2.2c0-1.3-0.3-2.2-1.1-2.2
							C493.4,425.9,492.9,426.6,492.9,428.1z"/>
					</g>
					<g>
						<path class="st18" d="M491.2,397h-2l-0.2,1.4c0.1,0,0.2,0,0.4,0c0.4,0,0.8,0.1,1.1,0.3c0.4,0.2,0.8,0.7,0.8,1.4
							c0,1-0.8,1.8-2,1.8c-0.6,0-1.1-0.2-1.3-0.3l0.2-0.5c0.2,0.1,0.7,0.3,1.1,0.3c0.7,0,1.3-0.4,1.3-1.2c0-0.7-0.5-1.2-1.5-1.2
							c-0.3,0-0.5,0-0.7,0.1l0.3-2.5h2.5L491.2,397L491.2,397z"/>
						<path class="st18" d="M495.8,399c0,1.8-0.7,2.8-1.8,2.8c-1,0-1.7-1-1.8-2.7c0-1.8,0.8-2.8,1.8-2.8
							C495.1,396.3,495.8,397.3,495.8,399z M492.9,399.1c0,1.4,0.4,2.2,1.1,2.2c0.7,0,1.1-0.9,1.1-2.2c0-1.3-0.3-2.2-1.1-2.2
							C493.4,396.9,492.9,397.7,492.9,399.1z"/>
					</g>
					<g>
						<path class="st18" d="M491.1,368c-0.2,0-0.3,0-0.5,0c-1.1,0.2-1.7,1-1.8,1.9h0c0.3-0.3,0.7-0.6,1.3-0.6c0.9,0,1.6,0.7,1.6,1.7
							c0,1-0.7,1.9-1.8,1.9c-1.1,0-1.9-0.9-1.9-2.3c0-1,0.4-1.9,0.9-2.4c0.4-0.4,1-0.7,1.7-0.8c0.2,0,0.4,0,0.5,0V368z M490.9,371
							c0-0.8-0.4-1.2-1.1-1.2c-0.4,0-0.8,0.3-1,0.7c-0.1,0.1-0.1,0.2-0.1,0.3c0,0.9,0.4,1.5,1.2,1.5
							C490.5,372.3,490.9,371.8,490.9,371z"/>
						<path class="st18" d="M495.8,370.1c0,1.8-0.7,2.8-1.8,2.8c-1,0-1.7-1-1.8-2.7c0-1.8,0.8-2.8,1.8-2.8
							C495.1,367.4,495.8,368.4,495.8,370.1z M492.9,370.1c0,1.4,0.4,2.2,1.1,2.2c0.7,0,1.1-0.9,1.1-2.2c0-1.3-0.3-2.2-1.1-2.2
							C493.4,367.9,492.9,368.7,492.9,370.1z"/>
					</g>
					<g>
						<path class="st18" d="M491.5,338.5v0.5l-2.3,4.8h-0.7l2.3-4.7v0h-2.6v-0.6L491.5,338.5L491.5,338.5z"/>
						<path class="st18" d="M495.8,341.1c0,1.8-0.7,2.8-1.8,2.8c-1,0-1.7-1-1.8-2.7c0-1.8,0.8-2.8,1.8-2.8
							C495.1,338.4,495.8,339.4,495.8,341.1z M492.9,341.2c0,1.4,0.4,2.2,1.1,2.2c0.7,0,1.1-0.9,1.1-2.2c0-1.3-0.3-2.2-1.1-2.2
							C493.4,339,492.9,339.7,492.9,341.2z"/>
					</g>
					<g>
						<path class="st18" d="M526.2,542.8v-0.4l0.6-0.5c1.3-1.3,2-2,2-2.8c0-0.5-0.3-1-1.1-1c-0.5,0-0.9,0.2-1.1,0.5l-0.2-0.5
							c0.4-0.3,0.9-0.5,1.5-0.5c1.1,0,1.6,0.8,1.6,1.5c0,1-0.7,1.8-1.8,2.8l-0.4,0.4v0h2.4v0.6L526.2,542.8L526.2,542.8z"/>
						<path class="st18" d="M533.9,540.1c0,1.8-0.7,2.8-1.8,2.8c-1,0-1.7-1-1.8-2.7c0-1.8,0.8-2.8,1.8-2.8
							C533.2,537.4,533.9,538.4,533.9,540.1z M531,540.2c0,1.4,0.4,2.2,1.1,2.2c0.7,0,1.1-0.9,1.1-2.2c0-1.3-0.3-2.2-1.1-2.2
							C531.5,538,531,538.7,531,540.2z"/>
						<path class="st18" d="M536.1,538.2L536.1,538.2l-0.9,0.5l-0.1-0.5l1.2-0.6h0.6v5.3h-0.7V538.2z"/>
						<path class="st18" d="M542.2,537.5v0.5l-2.3,4.8h-0.7l2.3-4.7v0h-2.6v-0.6L542.2,537.5L542.2,537.5z"/>
					</g>
					<g>
						<path class="st18" d="M587.4,542.8v-0.4l0.6-0.5c1.3-1.3,2-2,2-2.8c0-0.5-0.3-1-1.1-1c-0.5,0-0.9,0.2-1.1,0.5l-0.2-0.5
							c0.4-0.3,0.9-0.5,1.5-0.5c1.1,0,1.6,0.8,1.6,1.5c0,1-0.7,1.8-1.8,2.8l-0.4,0.4v0h2.4v0.6L587.4,542.8L587.4,542.8z"/>
						<path class="st18" d="M595.1,540.1c0,1.8-0.7,2.8-1.8,2.8c-1,0-1.7-1-1.8-2.7c0-1.8,0.8-2.8,1.8-2.8
							C594.5,537.4,595.1,538.4,595.1,540.1z M592.3,540.2c0,1.4,0.4,2.2,1.1,2.2c0.7,0,1.1-0.9,1.1-2.2c0-1.3-0.3-2.2-1.1-2.2
							C592.7,538,592.3,538.7,592.3,540.2z"/>
						<path class="st18" d="M597.4,538.2L597.4,538.2l-0.9,0.5l-0.1-0.5l1.2-0.6h0.6v5.3h-0.7V538.2z"/>
						<path class="st18" d="M599.9,541.4c0-0.7,0.4-1.1,1.1-1.4l0,0c-0.6-0.3-0.8-0.7-0.8-1.2c0-0.8,0.7-1.4,1.6-1.4
							c1,0,1.5,0.6,1.5,1.3c0,0.5-0.2,0.9-0.9,1.2v0c0.7,0.3,1.1,0.7,1.1,1.4c0,0.9-0.8,1.5-1.8,1.5
							C600.6,542.9,599.9,542.2,599.9,541.4z M602.8,541.4c0-0.6-0.4-1-1.2-1.2c-0.6,0.2-0.9,0.6-0.9,1.1c0,0.5,0.4,1,1.1,1
							C602.3,542.4,602.8,542,602.8,541.4z M600.8,538.8c0,0.5,0.4,0.8,1,1c0.5-0.2,0.8-0.5,0.8-1c0-0.4-0.3-0.9-0.9-0.9
							C601.1,537.9,600.8,538.3,600.8,538.8z"/>
					</g>
					<g>
						<path class="st18" d="M648.7,542.8v-0.4l0.6-0.5c1.3-1.3,2-2,2-2.8c0-0.5-0.3-1-1.1-1c-0.5,0-0.9,0.2-1.1,0.5l-0.2-0.5
							c0.4-0.3,0.9-0.5,1.5-0.5c1.1,0,1.6,0.8,1.6,1.5c0,1-0.7,1.8-1.8,2.8l-0.4,0.4v0h2.4v0.6L648.7,542.8L648.7,542.8z"/>
						<path class="st18" d="M656.4,540.1c0,1.8-0.7,2.8-1.8,2.8c-1,0-1.7-1-1.8-2.7c0-1.8,0.8-2.8,1.8-2.8
							C655.7,537.4,656.4,538.4,656.4,540.1z M653.5,540.2c0,1.4,0.4,2.2,1.1,2.2c0.7,0,1.1-0.9,1.1-2.2c0-1.3-0.3-2.2-1.1-2.2
							C654,538,653.5,538.7,653.5,540.2z"/>
						<path class="st18" d="M658.6,538.2L658.6,538.2l-0.9,0.5l-0.1-0.5l1.2-0.6h0.6v5.3h-0.7V538.2z"/>
						<path class="st18" d="M661.6,542.3c0.2,0,0.3,0,0.6,0c0.4-0.1,0.8-0.2,1.1-0.5c0.3-0.3,0.6-0.8,0.7-1.4h0
							c-0.3,0.4-0.7,0.6-1.3,0.6c-0.9,0-1.6-0.7-1.6-1.6c0-1,0.7-1.9,1.8-1.9c1.1,0,1.8,0.9,1.8,2.2c0,1.2-0.4,2-0.9,2.5
							c-0.4,0.4-1,0.6-1.5,0.7c-0.3,0-0.5,0-0.7,0L661.6,542.3L661.6,542.3z M661.9,539.2c0,0.7,0.4,1.1,1,1.1c0.5,0,0.9-0.2,1-0.5
							c0-0.1,0.1-0.2,0.1-0.3c0-0.9-0.3-1.6-1.1-1.6C662.3,537.9,661.9,538.5,661.9,539.2z"/>
					</g>
					<rect x="507.2" y="357" class="st19" width="180.1" height="29.2"/>
					<rect x="507.2" y="415.3" class="st19" width="180.1" height="29.2"/>
					<rect x="507.2" y="473.7" class="st19" width="180.1" height="29.2"/>
				</g>
				<g>
					<rect x="507.2" y="357" class="st9" width="80.9" height="4.7"/>
					<rect x="507.2" y="369.2" class="st20" width="139" height="4.7"/>
					<rect x="507.2" y="381.5" class="st10" width="49.6" height="4.7"/>
					<rect x="507.2" y="415.3" class="st9" width="146.1" height="4.7"/>
					<rect x="507.2" y="427.6" class="st20" width="60" height="4.7"/>
					<rect x="507.2" y="439.8" class="st10" width="120.1" height="4.7"/>
					<rect x="507.2" y="474" class="st9" width="60" height="4.7"/>
					<rect x="507.2" y="486.3" class="st20" width="120.1" height="4.7"/>
					<rect x="507.2" y="498.6" class="st10" width="99.1" height="4.7"/>
				</g>
			</g>
		</g>
		<g>
			<g>
				<g>
					<rect x="928.7" y="327.1" class="st18" width="0.2" height="111.8"/>
				</g>
				<g>
					<rect x="883.1" y="327.1" class="st18" width="0.2" height="111.8"/>
				</g>
				<g>
					<rect x="837.6" y="327.1" class="st18" width="0.2" height="111.8"/>
				</g>
				<g>
					<rect x="792.1" y="327.1" class="st18" width="0.2" height="111.8"/>
				</g>
				<g>
					<rect x="837.7" y="327.1" class="st19" width="91.1" height="111.8"/>
					<g>
						<g>
							<path class="st18" d="M974.5,439H746.5V327h227.9V439z M746.8,438.7h227.4V327.2H746.8V438.7z"/>
						</g>
						<g>
							<rect x="746.7" y="420.1" class="st18" width="227.7" height="0.2"/>
						</g>
						<g>
							<rect x="746.7" y="401.5" class="st18" width="227.7" height="0.2"/>
						</g>
						<g>
							<rect x="746.7" y="382.9" class="st18" width="227.7" height="0.2"/>
						</g>
						<g>
							<rect x="746.7" y="364.2" class="st18" width="227.7" height="0.2"/>
						</g>
						<g>
							<rect x="746.7" y="345.6" class="st18" width="227.7" height="0.2"/>
						</g>
						<g>
							<path class="st18" d="M742.8,437.8c0,1.7-0.6,2.5-1.7,2.5c-0.9,0-1.6-0.9-1.6-2.5c0-1.6,0.7-2.5,1.7-2.5
								C742.2,435.4,742.8,436.3,742.8,437.8z M740.2,437.9c0,1.3,0.4,2,1,2c0.7,0,1-0.8,1-2c0-1.2-0.3-2-1-2
								C740.6,435.9,740.2,436.6,740.2,437.9z"/>
						</g>
						<g>
							<path class="st18" d="M737.2,417.4L737.2,417.4l-0.9,0.5l-0.1-0.5l1.1-0.6h0.6v4.8h-0.6L737.2,417.4L737.2,417.4z"/>
							<path class="st18" d="M742.8,419.1c0,1.7-0.6,2.5-1.7,2.5c-0.9,0-1.6-0.9-1.6-2.5c0-1.6,0.7-2.5,1.7-2.5
								C742.2,416.7,742.8,417.6,742.8,419.1z M740.2,419.2c0,1.3,0.4,2,1,2c0.7,0,1-0.8,1-2c0-1.2-0.3-2-1-2
								C740.6,417.2,740.2,417.9,740.2,419.2z"/>
						</g>
						<g>
							<path class="st18" d="M735.8,402.9v-0.4l0.5-0.5c1.2-1.2,1.8-1.8,1.8-2.5c0-0.5-0.2-1-1-1c-0.4,0-0.8,0.2-1,0.4l-0.2-0.5
								c0.3-0.3,0.8-0.5,1.4-0.5c1,0,1.5,0.7,1.5,1.4c0,0.9-0.7,1.6-1.7,2.6l-0.4,0.4v0h2.2v0.5L735.8,402.9L735.8,402.9z"/>
							<path class="st18" d="M742.8,400.5c0,1.7-0.6,2.5-1.7,2.5c-0.9,0-1.6-0.9-1.6-2.5c0-1.6,0.7-2.5,1.7-2.5
								C742.2,398,742.8,398.9,742.8,400.5z M740.2,400.5c0,1.3,0.4,2,1,2c0.7,0,1-0.8,1-2c0-1.2-0.3-2-1-2
								C740.6,398.5,740.2,399.2,740.2,400.5z"/>
						</g>
						<g>
							<path class="st18" d="M735.9,383.5c0.2,0.1,0.6,0.3,1.1,0.3c0.8,0,1.1-0.5,1.1-0.9c0-0.7-0.6-1-1.3-1h-0.4v-0.5h0.4
								c0.5,0,1.1-0.3,1.1-0.8c0-0.4-0.3-0.7-0.8-0.7c-0.4,0-0.8,0.2-1,0.3l-0.2-0.5c0.3-0.2,0.7-0.4,1.3-0.4c0.9,0,1.4,0.6,1.4,1.2
								c0,0.5-0.3,0.9-0.9,1.1v0c0.6,0.1,1.1,0.6,1.1,1.2c0,0.8-0.6,1.5-1.8,1.5c-0.5,0-1-0.2-1.3-0.3L735.9,383.5z"/>
							<path class="st18" d="M742.8,381.8c0,1.7-0.6,2.5-1.7,2.5c-0.9,0-1.6-0.9-1.6-2.5c0-1.6,0.7-2.5,1.7-2.5
								C742.2,379.3,742.8,380.2,742.8,381.8z M740.2,381.8c0,1.3,0.4,2,1,2c0.7,0,1-0.8,1-2c0-1.2-0.3-2-1-2
								C740.6,379.8,740.2,380.5,740.2,381.8z"/>
						</g>
						<g>
							<path class="st18" d="M737.8,365.6v-1.3h-2.3v-0.4l2.2-3.1h0.7v3h0.7v0.5h-0.7v1.3H737.8z M737.8,363.7v-1.6
								c0-0.3,0-0.5,0-0.8h0c-0.2,0.3-0.3,0.5-0.4,0.7l-1.2,1.7v0L737.8,363.7L737.8,363.7z"/>
							<path class="st18" d="M742.8,363.1c0,1.7-0.6,2.5-1.7,2.5c-0.9,0-1.6-0.9-1.6-2.5c0-1.6,0.7-2.5,1.7-2.5
								C742.2,360.6,742.8,361.5,742.8,363.1z M740.2,363.2c0,1.3,0.4,2,1,2c0.7,0,1-0.8,1-2c0-1.2-0.3-2-1-2
								C740.6,361.1,740.2,361.8,740.2,363.2z"/>
						</g>
						<g>
							<path class="st18" d="M738.7,342.6h-1.8l-0.2,1.2c0.1,0,0.2,0,0.4,0c0.4,0,0.8,0.1,1,0.3c0.4,0.2,0.7,0.6,0.7,1.2
								c0,1-0.8,1.7-1.8,1.7c-0.5,0-1-0.2-1.2-0.3l0.2-0.5c0.2,0.1,0.6,0.3,1,0.3c0.6,0,1.2-0.4,1.2-1c0-0.6-0.4-1.1-1.4-1.1
								c-0.3,0-0.5,0-0.7,0l0.3-2.3h2.3L738.7,342.6L738.7,342.6z"/>
							<path class="st18" d="M742.8,344.4c0,1.7-0.6,2.5-1.7,2.5c-0.9,0-1.6-0.9-1.6-2.5c0-1.6,0.7-2.5,1.7-2.5
								C742.2,342,742.8,342.9,742.8,344.4z M740.2,344.5c0,1.3,0.4,2,1,2c0.7,0,1-0.8,1-2c0-1.2-0.3-2-1-2
								C740.6,342.5,740.2,343.2,740.2,344.5z"/>
						</g>
						<g>
							<path class="st18" d="M768.7,445L768.7,445l-0.8,0.4l-0.1-0.5l1-0.5h0.5v4.5h-0.6V445z"/>
						</g>
						<g>
							<path class="st18" d="M812.9,449v-0.4l0.5-0.5c1.2-1.1,1.7-1.7,1.7-2.4c0-0.5-0.2-0.9-0.9-0.9c-0.4,0-0.8,0.2-1,0.4l-0.2-0.4
								c0.3-0.3,0.8-0.5,1.3-0.5c1,0,1.4,0.7,1.4,1.3c0,0.8-0.6,1.5-1.6,2.4l-0.4,0.3v0h2v0.5L812.9,449L812.9,449z"/>
						</g>
						<g>
							<path class="st18" d="M858.6,448.3c0.2,0.1,0.6,0.3,1,0.3c0.8,0,1-0.5,1-0.9c0-0.6-0.6-0.9-1.2-0.9h-0.3v-0.5h0.3
								c0.4,0,1-0.2,1-0.8c0-0.4-0.2-0.7-0.8-0.7c-0.4,0-0.7,0.2-0.9,0.3l-0.2-0.5c0.2-0.2,0.7-0.3,1.2-0.3c0.9,0,1.3,0.5,1.3,1.1
								c0,0.5-0.3,0.9-0.8,1.1v0c0.6,0.1,1,0.5,1,1.2c0,0.7-0.6,1.4-1.7,1.4c-0.5,0-1-0.2-1.2-0.3L858.6,448.3z"/>
						</g>
						<g>
							<path class="st18" d="M905.9,449v-1.2h-2.1v-0.4l2-2.9h0.7v2.8h0.6v0.5h-0.6v1.2L905.9,449L905.9,449z M905.9,447.2v-1.5
								c0-0.2,0-0.5,0-0.7h0c-0.1,0.3-0.3,0.5-0.4,0.7l-1.1,1.5v0L905.9,447.2L905.9,447.2z"/>
						</g>
						<g>
							<path class="st18" d="M952.3,444.9h-1.7l-0.2,1.2c0.1,0,0.2,0,0.4,0c0.3,0,0.7,0.1,1,0.3c0.4,0.2,0.7,0.6,0.7,1.2
								c0,0.9-0.7,1.5-1.7,1.5c-0.5,0-0.9-0.1-1.1-0.3l0.2-0.5c0.2,0.1,0.6,0.3,1,0.3c0.6,0,1.1-0.4,1.1-1c0-0.6-0.4-1-1.3-1
								c-0.3,0-0.5,0-0.6,0l0.3-2.2h2.2V444.9z"/>
						</g>
					</g>
				</g>
				<g>
					<g>
						<polygon class="st9" points="746.9,440.2 746.4,439 791.9,420.4 837.5,400.4 883.1,382 929.1,382 974.1,363.8 974.6,365 
							929.4,383.3 883.4,383.3 838,401.7 792.5,421.6 						"/>
					</g>
					<g>
						<polygon class="st10" points="837.7,421 792.2,402.3 746.9,420.9 746.4,419.6 792.2,400.9 792.5,401 837.7,419.5 882.9,402.4 
							928.4,346.3 928.5,346.2 974.1,326.5 974.6,327.7 929.2,347.4 883.7,403.5 						"/>
					</g>
					<g>
						<path class="st16" d="M931.4,346.9c0,1.4-1.2,2.6-2.6,2.6s-2.6-1.2-2.6-2.6s1.2-2.6,2.6-2.6S931.4,345.4,931.4,346.9z"/>
						<path class="st10" d="M928.8,350.2c-1.8,0-3.3-1.5-3.3-3.3c0-1.8,1.5-3.3,3.3-3.3s3.3,1.5,3.3,3.3
							C932.1,348.7,930.6,350.2,928.8,350.2z M928.8,345c-1.1,0-1.9,0.9-1.9,1.9s0.9,1.9,1.9,1.9s1.9-0.9,1.9-1.9
							C930.7,345.8,929.9,345,928.8,345z"/>
					</g>
					<g>
						<path class="st16" d="M885.9,402.9c0,1.4-1.2,2.6-2.6,2.6s-2.6-1.2-2.6-2.6s1.2-2.6,2.6-2.6S885.9,401.5,885.9,402.9z"/>
						<path class="st10" d="M883.3,406.2c-1.8,0-3.3-1.5-3.3-3.3c0-1.8,1.5-3.3,3.3-3.3c1.8,0,3.3,1.5,3.3,3.3
							C886.6,404.7,885.1,406.2,883.3,406.2z M883.3,401c-1.1,0-1.9,0.9-1.9,1.9s0.9,1.9,1.9,1.9s1.9-0.9,1.9-1.9
							C885.2,401.9,884.3,401,883.3,401z"/>
					</g>
					<g>
						<path class="st16" d="M840.3,420.2c0,1.4-1.2,2.6-2.6,2.6s-2.6-1.2-2.6-2.6s1.2-2.6,2.6-2.6S840.3,418.8,840.3,420.2z"/>
						<path class="st10" d="M837.7,423.5c-1.8,0-3.3-1.5-3.3-3.3s1.5-3.3,3.3-3.3s3.3,1.5,3.3,3.3C841,422,839.5,423.5,837.7,423.5z
							 M837.7,418.3c-1.1,0-1.9,0.9-1.9,1.9s0.9,1.9,1.9,1.9s1.9-0.9,1.9-1.9C839.7,419.2,838.8,418.3,837.7,418.3z"/>
					</g>
					<g>
						<path class="st16" d="M794.8,401.6c0,1.4-1.2,2.6-2.6,2.6s-2.6-1.2-2.6-2.6s1.2-2.6,2.6-2.6S794.8,400.2,794.8,401.6z"/>
						<path class="st10" d="M792.2,404.9c-1.8,0-3.3-1.5-3.3-3.3s1.5-3.3,3.3-3.3c1.8,0,3.3,1.5,3.3,3.3S794,404.9,792.2,404.9z
							 M792.2,399.7c-1.1,0-1.9,0.9-1.9,1.9s0.9,1.9,1.9,1.9s1.9-0.9,1.9-1.9S793.3,399.7,792.2,399.7z"/>
					</g>
					<g>
						<path class="st16" d="M884.8,382.9c0,1.4-1.2,2.6-2.6,2.6s-2.6-1.2-2.6-2.6s1.2-2.6,2.6-2.6
							C883.7,380.3,884.8,381.4,884.8,382.9z"/>
						<path class="st9" d="M882.2,386.2c-1.8,0-3.3-1.5-3.3-3.3s1.5-3.3,3.3-3.3c1.8,0,3.3,1.5,3.3,3.3
							C885.5,384.7,884,386.2,882.2,386.2z M882.2,381c-1.1,0-1.9,0.9-1.9,1.9s0.9,1.9,1.9,1.9s1.9-0.9,1.9-1.9
							C884.1,381.8,883.3,381,882.2,381z"/>
					</g>
					<g>
						<path class="st16" d="M931.4,382.9c0,1.4-1.2,2.6-2.6,2.6c-1.4,0-2.6-1.2-2.6-2.6s1.2-2.6,2.6-2.6
							C930.2,380.3,931.4,381.4,931.4,382.9z"/>
						<path class="st9" d="M928.8,386.2c-1.8,0-3.3-1.5-3.3-3.3s1.5-3.3,3.3-3.3s3.3,1.5,3.3,3.3
							C932.1,384.7,930.6,386.2,928.8,386.2z M928.8,381c-1.1,0-1.9,0.9-1.9,1.9s0.9,1.9,1.9,1.9s1.9-0.9,1.9-1.9
							C930.7,381.8,929.8,381,928.8,381z"/>
					</g>
				</g>
			</g>
		</g>
		<rect x="417.8" y="289.8" class="st5" width="8.2" height="4.1"/>
		<rect x="417.8" y="300.1" class="st5" width="34.9" height="4.1"/>
		<rect x="417.8" y="326.8" class="st5" width="8.2" height="4.1"/>
		<rect x="417.8" y="337.1" class="st5" width="34.9" height="4.1"/>
		<rect x="417.8" y="363.8" class="st5" width="8.2" height="4.1"/>
		<rect x="417.8" y="374" class="st5" width="34.9" height="4.1"/>
		<rect x="417.8" y="400.7" class="st5" width="8.2" height="4.1"/>
		<rect x="417.8" y="411" class="st5" width="34.9" height="4.1"/>
		<rect x="417.8" y="437.7" class="st5" width="8.2" height="4.1"/>
		<rect x="417.8" y="447.9" class="st5" width="34.9" height="4.1"/>
		<rect x="417.8" y="474.6" class="st5" width="8.2" height="4.1"/>
		<rect x="417.8" y="484.9" class="st5" width="34.9" height="4.1"/>
	</g>
	<g>
		<g>
			<path class="st15" d="M1098.2,354.2c-7.8,7.1-14.1,23.5-23.5,81c-0.3,1.9-22.6,16.5-22.6,16.5l41.7,8.7l1-26.4
				c0,0-2.2-15-1.9-58.9C1092.9,362.1,1098.6,353.7,1098.2,354.2z"/>
		</g>
		<g>
			<g>
				<path class="st21" d="M1193.4,563.4c2.8,0,7.1-0.6,10.9-3.9c5.5-4.8,7.8-13.2,7-25.1c-0.5-8-3.7-16.2-7.1-24.8
					c-5.6-14.5-12-31-8.7-52.7l-6.2-1c-3.6,23.4,3.4,41.4,9,55.9c3.3,8.5,6.2,15.9,6.7,22.9c0.7,9.7-1,16.5-4.8,19.9
					c-3.6,3.2-8.1,2.4-8.3,2.3l-1.3,6.2C1190.8,563.2,1191.8,563.4,1193.4,563.4z"/>
			</g>
			<g>
				<g>
					<path class="st22" d="M1145.2,613.3l-6.1,9.3l51.4,16.5c0,0,3.4-3.3-9.2-9.9C1166.6,621.5,1145.2,613.3,1145.2,613.3z"/>
					<path class="st22" d="M1136.1,613.3l6.1,9.3l-51.4,16.5c0,0-3.4-3.3,9.2-9.9C1114.7,621.5,1136.1,613.3,1136.1,613.3z"/>
				</g>
				<rect x="1135.3" y="585.5" class="st22" width="10.7" height="38.3"/>
				<g>
					<path class="st23" d="M1145.9,615.3l-5.2,8.9l44,15.7c0,0,2.9-3.1-7.9-9.4C1164.2,623.1,1145.9,615.3,1145.9,615.3z"/>
					<path class="st23" d="M1135.4,615.3l5.2,8.9l-44,15.7c0,0-2.9-3.1,7.9-9.4C1117.1,623.1,1135.4,615.3,1135.4,615.3z"/>
				</g>
				<path class="st24" d="M1179.7,643.4c0,2.1,1.7,3.7,3.7,3.7c2.1,0,3.7-1.7,3.7-3.7s-1.7-3.7-3.7-3.7
					C1181.4,639.7,1179.7,641.4,1179.7,643.4z"/>
				<path class="st24" d="M1094.4,643.4c0,2.1,1.7,3.7,3.7,3.7c2.1,0,3.7-1.7,3.7-3.7s-1.7-3.7-3.7-3.7
					C1096.1,639.7,1094.4,641.4,1094.4,643.4z"/>
				<path class="st21" d="M1188.7,643.4c0,2.1,1.7,3.7,3.7,3.7c2.1,0,3.7-1.7,3.7-3.7s-1.7-3.7-3.7-3.7
					C1190.4,639.7,1188.7,641.4,1188.7,643.4z"/>
				<path class="st21" d="M1085.4,643.4c0,2.1,1.7,3.7,3.7,3.7c2.1,0,3.7-1.7,3.7-3.7s-1.7-3.7-3.7-3.7
					C1087.1,639.7,1085.4,641.4,1085.4,643.4z"/>
			</g>
			<rect x="1136.9" y="571.5" class="st21" width="7.9" height="13.8"/>
			<path class="st21" d="M1131,564.3c0,4.2,3.4,7.7,7.7,7.7h4.3c4.2,0,7.7-3.4,7.7-7.7l0,0c0-4.2-3.4-7.7-7.7-7.7h-4.3
				C1134.4,556.6,1131,560,1131,564.3L1131,564.3z"/>
			<path class="st10" d="M1082.4,557.3c-0.2-0.9-0.3-6.6-0.3-7.5c0-6.2,4-11.2,8.9-11.2h99.5c4.9,0,8.9,5,8.9,11.2
				c0,1-0.1,6.6-0.3,7.5H1082.4z"/>
			<path class="st21" d="M1200.4,560.3c0,1.9-1.1,3.4-2.5,3.4h-114.3c-1.4,0-2.5-1.5-2.5-3.4l0,0c0-1.9,1.1-3.4,2.5-3.4h114.3
				C1199.3,556.9,1200.4,558.4,1200.4,560.3L1200.4,560.3z"/>
			<g>
				<path class="st10" d="M1194.8,499.8c-2.5,0.2-18.1,0.5-20.8,0.5c-17.1,0.2-31.8-3-32.6-7.2c-3.4-17.5-3.5-35.4-0.4-52.9
					c0.7-4.2,15.7-7.4,33.1-7.2c2.7,0,18.7,0.3,21.2,0.5C1190,455.3,1189.8,478,1194.8,499.8z"/>
				<path class="st21" d="M1197.2,433.5c1.9,0,3.3,0.9,3,2c-4.8,20.5-4.9,41.8-0.5,62.3c0.2,1.1-1.1,2-2.9,2l0,0
					c-1.9,0-3.6-0.8-3.8-2c-4.5-20.5-4.3-41.9,0.4-62.4C1193.5,434.3,1195.3,433.4,1197.2,433.5L1197.2,433.5z"/>
				<path class="st25" d="M1197.9,499.7c-0.5,0.2-3.9,0.3-4.5,0.3c-3.7,0-7.6-3.2-8.3-7.4c-3.1-17.2-3-34.9,0.2-52.1
					c0.8-4.1,4.7-7.4,8.5-7.4c0.6,0,4,0.1,4.6,0.3C1193.1,455.3,1192.9,478,1197.9,499.7z"/>
			</g>
		</g>
		<g>
			
				<rect x="1079.4" y="600.9" transform="matrix(0.8632 -0.5049 0.5049 0.8632 -160.8733 633.0558)" class="st21" width="16.4" height="25"/>
			<path class="st26" d="M1047.6,513.7l51.3,100.2l-17.6,7.5c0,0-62.2-94.6-58-101.9C1027.4,512.2,1044.9,509.2,1047.6,513.7z"/>
			<path class="st26" d="M1104,626.6l-10.3,6l-1.8-3.2l-2.7,5.8l-26.1,15.3c0,0-2.1-4.5,15.1-15.5c4.4-2.8,4-10.8,4-10.8
				s1.1-3.3,7.2-0.6c1.6,0.7,9.7-7.2,9.7-7.2S1103.6,622.3,1104,626.6z"/>
		</g>
		<g>
			<path class="st26" d="M1165.5,438.9c0,0,10.6,32.7,17.5,42.6c4.9,7.1,9.3,21.9,8.7,28.4c-0.5,6.6-1.2,27.8-12.6,29
				c-16.4,1.6-47.5-0.5-47.5-0.5s-18-46.4-17.5-52.4c0.5-6,4.4-13.2,5.2-16.2c0.8-3-4.7-14.4-4.7-14.4L1165.5,438.9z"/>
			<g>
				<path class="st26" d="M1130,505l-87.7,45.7c0,0-30.4-30.9-17.8-39.1c24.3-15.9,94.8-41.8,94.8-41.8L1130,505z"/>
			</g>
			<polygon class="st21" points="1039.8,631.8 1038.5,655.4 1020,654.8 1024.9,628 			"/>
			<path class="st27" d="M1178,538.9l-115.9-0.4c0,0-21.3-9.4-11-21.8c6.6-7.9,86.8-23.4,109.9-23.7
				C1208.1,492.4,1178,538.9,1178,538.9z"/>
			<path class="st27" d="M1079.7,536.2L1042,649.5l-21.6-9.3c0,0,17.9-115.6,30.8-118.8C1064.2,518.2,1080.6,532.4,1079.7,536.2z"/>
			<path class="st26" d="M1038.4,658.2l-12.6,0.4l-0.1-3.8l-5.4,4l-31.7,1c0,0,0.4-5.2,21.7-6.7c5.5-0.4,9.1-7.9,9.1-7.9
				s2.7-2.5,6.9,3.1c1.1,1.5,12.5-1.8,12.5-1.8S1040.2,654,1038.4,658.2z"/>
			
				<rect x="1169.1" y="471" transform="matrix(4.249985e-02 -0.9991 0.9991 4.249985e-02 652.8421 1625.6758)" class="st26" width="10.9" height="2.5"/>
		</g>
		<path class="st14" d="M1119.7,348.1c21.6-1.3,48.4,4.3,52.7,19.6c4.9,17.7,1.5,79.8,17.3,118.3c0.6,1.4-0.4,5.6-3.4,5.3
			c-17.1-1.9-69.1-2.4-69.1-2.4l-24-60.4l-3.8-32.1c0,0-2.4-37.8,10.1-45.1C1102.4,349.5,1111.7,348.6,1119.7,348.1z"/>
		<g>
			<polygon class="st28" points="815.8,671.9 803.4,671.9 823.9,473.4 841.9,473.4 			"/>
			<polygon class="st29" points="840.7,482.5 832.8,542.7 823.4,477.9 823.9,473.4 839.6,473.4 			"/>
			<polygon class="st28" points="982.3,671.9 969.9,671.9 990.4,473.4 1008.4,473.4 			"/>
			<polygon class="st29" points="1007.2,482.5 999.3,542.7 989.9,477.9 990.4,473.4 1006.1,473.4 			"/>
			<polygon class="st28" points="1112.7,671.9 1125.2,671.9 1104.7,473.4 1086.6,473.4 			"/>
			<polygon class="st29" points="1087.8,482.5 1112,543.8 1105.1,477.9 1104.7,473.4 1088.9,473.4 			"/>
			<rect x="972.2" y="466.9" class="st25" width="149.8" height="11.6"/>
			<rect x="809.1" y="466.9" class="st10" width="170.1" height="11.6"/>
		</g>
		<path class="st30" d="M1060.7,440.5c0,0-6.5-0.1-12.1,3.3c-4.2,2.6-8.1,8.3-4.2,11.4s9.9,5.9,9.9,5.9S1069.2,461.6,1060.7,440.5z"
			/>
		<g>
			<g>
				<path class="st31" d="M1119.4,428.5c0,0-13.1,21.5-37.7,24.8c-4.3,0.6-7.3,4.3-5.6,5.8c2.3,1.9,5.7,2.7,11.7,3.4
					c12.4,1.4,29.8-0.1,42.9-9c19.4-13.1,25.9-19.4,25.2-27.2C1155.3,418.4,1119.4,428.5,1119.4,428.5z"/>
				<path class="st15" d="M1169,361.7c4,8,5.2,20.4,2.7,37.5c-1.9,13.3-17.7,33.5-20.6,40c-0.5,1.1-1.9,5.8-1.9,5.8l-15.8,10.8
					l-25.7-20.5l10.3-10.9l2.5,0.5c0,0,2.5-6.4,2.5-9c-0.1-2.6,13-35.9,20.2-57.4C1147.2,346.2,1165.1,353.7,1169,361.7z"/>
				<path class="st14" d="M1134.2,426.1l-7.9-3.3l-3.2-1.1c-0.5,2-2.7,3.2-2.7,3.2l6.4,1.4l7.2,2.9l8,6.4L1134.2,426.1z"/>
			</g>
			<path class="st31" d="M1083.5,453.4l-13.8-5.2c0,0-4.8,4.5-4.2,5.8c0.6,1.3-1.2,8.5-1.2,8.5l6.2,6.1l5.9-1c0,0,0.7-2.2-1.2-2.6
				c-1.9-0.4,1.5-1.3,2.6-1.7C1078.9,462.8,1087.7,459.9,1083.5,453.4z"/>
		</g>
		<g>
			<path class="st32" d="M1102.9,464.1C1102.9,464.1,1102.9,464,1102.9,464.1l0.1-2.7l-107.4-2l-0.1,2.6c0,0,0,0,0,0.1l0.3,0.5
				c1.3,2.3,3.8,2.7,6.7,2.8l93.5,1.7c2.8,0,5.3-0.3,6.8-2.5L1102.9,464.1z"/>
			<path class="st33" d="M1076.9,464.1C1076.9,464.1,1076.9,464.1,1076.9,464.1l0.3,0.5c0.4,0.6,0.9,1,1.6,1.3l16.3,0.3
				c2.7,0,5.1-0.2,6.5-2l0.3-0.4c0,0,0,0,0.1-0.1l0-1.3l-24.9-0.5L1076.9,464.1z"/>
			<g>
				
					<rect x="1034.6" y="434.9" transform="matrix(1.810065e-02 -0.9998 0.9998 1.810065e-02 555.1463 1488.7557)" class="st34" width="1.8" height="53.7"/>
			</g>
			<g>
				<path class="st17" d="M1076.4,460.8l-13-53c-0.3-1.4-1.8-2.5-3.1-2.6l-75.4-1.4c-1.4,0-2.3,1.1-1.9,2.5l13,53L1076.4,460.8z"/>
				<path class="st32" d="M1034.3,432.4c0.7,2.7-1,4.9-3.7,4.8c-2.7,0-5.4-2.3-6.1-5c-0.7-2.7,1-4.9,3.7-4.8
					C1030.9,427.5,1033.6,429.7,1034.3,432.4z"/>
			</g>
		</g>
		<path class="st35" d="M1107.9,347.8c0.6,5.1,3.9,9.5,7.3,9.7c3.2,0,6.5-0.1,9.7-0.1c3.4-0.3,6.6-4.7,7.1-9.8
			c0.7-8.4,1.4-16.8,2.1-25.2c0.5-5-2-15.1-7.2-18.1c-4.8-2.6-10.2-2.5-14.9,0.2c-5.1,3-7.3,13.2-6.7,18.2
			C1106.1,331,1107,339.4,1107.9,347.8z"/>
		<polygon class="st15" points="1108.9,353.3 1115.7,365.2 1139.5,350.6 1133.9,344 		"/>
		<polygon class="st15" points="1108,349.2 1109.9,353.5 1104.1,363.1 1103.7,355.5 		"/>
		<g>
			<path class="st26" d="M1110.2,298.5l-1.4-6.1l-2.8,0.5l-7.3,1.4l-4.4,0.9c-4.9,1-8,5.3-7,9.8l1.5,6.1l2.8-0.5l7.4-1.4l4.4-0.9
				C1108.2,307.3,1111.3,303,1110.2,298.5z"/>
			<path class="st31" d="M1133,332.9c0.9,3.9-1.8,7.8-6.2,8.7l-17.9,3.5c-4.4,0.8-8.7-1.7-9.6-5.6l-7.7-32.4
				c-0.9-3.9,1.8-7.8,6.2-8.7l17.9-3.5c4.4-0.8,8.7,1.7,9.6,5.6L1133,332.9z"/>
			<path class="st26" d="M1109.3,292.3c3.1-0.6,6.2,0.3,8.3,2.2l3.1-0.6c3.8-0.7,7.6,1.5,8.4,4.9l3.7,15.4l-4.8,0.9l-1.5-6.3
				c-0.6-2.4-3.2-4-5.9-3.4l-2.8,0.5l-7.3,1.4l-4.4,0.9c-4.9,1-9.7-1.9-10.8-6.3l-1.6-6.6L1109.3,292.3z"/>
			<path class="st31" d="M1127.3,319.4c-0.5-2.1,1-4.2,3.3-4.6l0.3-0.1c2.3-0.5,4.6,0.9,5.1,3l1.1,4.6c0.5,2.1-1,4.2-3.3,4.6
				l-0.3,0.1c-1.7,0.3-3.4-0.3-4.4-1.5L1127.3,319.4z"/>
		</g>
	</g>
	<g>
		<path class="st10" d="M175.6,605.8c-4.7-7.2,1.1-13.3,23.4-16.6c24.3-3.5,47.5-1.1,66.6,3.3c-45-21.8-97.6-52.5-49.6-56
			c15-1.1,38,6.1,63.5,17.5c-28.5-23.2-44.2-42.3-26.9-45.8c16-3.3,48.8,15.6,83.6,40.7c-19.8-21-31.3-39.3-22.4-48
			c7.3-7.1,22.8,1,40.6,16c-0.8-13.2,4.8-21.2,17.4-19.6c11.9,1.5,21.6,16.8,28.4,35.1c11.4-28.4,41.6-45.8,72-37.2
			c35.7,10.1,7,78.3-9,110.7L175.6,605.8L175.6,605.8z"/>
		<g>
			<g>
				<path class="st10" d="M396.6,572.3c-18.1-113.1-61.6-162.8-62-163.3l1-0.9c0.4,0.5,44.2,50.4,62.4,164L396.6,572.3z"/>
			</g>
			<g>
				<path class="st10" d="M406.7,561.1l-1.4-0.1c3.3-66-22.1-126.4-22.4-127l1.3-0.5C384.4,434.1,410,494.8,406.7,561.1z"/>
			</g>
			<g>
				<path class="st10" d="M381.1,564l-1.4-0.1c2.8-60.2-38-84.7-38.5-84.9l0.7-1.2C342.4,478,384,503,381.1,564z"/>
			</g>
			<path class="st10" d="M330.1,399.1c-9.9,5.2-16.2,12.6-14.1,16.6c2.1,4,11.8,3.1,21.7-2.1s16.2-12.6,14.1-16.6
				C349.7,393,340,393.9,330.1,399.1z"/>
			<path class="st36" d="M332.7,404c-3.1,1.6-5.1,4-4.5,5.3c0.7,1.3,3.7,1,6.9-0.7c3.1-1.6,5.1-4,4.5-5.3
				C338.9,402.1,335.8,402.4,332.7,404z"/>
			<path class="st10" d="M381.4,429.8c-4.1,2.2-6.7,5.2-5.9,6.9c0.9,1.7,4.9,1.3,9-0.9c4.1-2.2,6.7-5.2,5.9-6.9
				C389.6,427.2,385.5,427.6,381.4,429.8z"/>
			<path class="st36" d="M382.5,431.8c-1.3,0.7-2.1,1.7-1.9,2.2c0.3,0.5,1.6,0.4,2.9-0.3c1.3-0.7,2.1-1.7,1.9-2.2
				C385.1,431,383.8,431.1,382.5,431.8z"/>
			<path class="st10" d="M338.6,475.2c-4.4,4.1-6.6,8.8-5,10.6c1.6,1.8,6.5-0.1,10.9-4.1c4.4-4.1,6.6-8.8,5-10.6
				C347.9,469.3,343,471.1,338.6,475.2z"/>
			<path class="st36" d="M340.7,477.4c-1.4,1.3-2.1,2.8-1.6,3.3c0.5,0.6,2.1,0,3.5-1.3c1.4-1.3,2.1-2.8,1.6-3.4
				C343.6,475.5,342,476.1,340.7,477.4z"/>
		</g>
		<path class="st16" d="M309.4,557.5c-0.2-0.2-0.4-0.3-0.6-0.4c0.1,0,0.2-0.1,0.3-0.1c2.7-1,4.4-3,3.8-4.4c-0.5-1.4-3.2-1.7-5.8-0.6
			c-0.2,0.1-0.5,0.2-0.7,0.3c0-0.1,0-0.2,0-0.3c0.4-2.8-0.4-5.3-1.9-5.5c-1.5-0.2-3,1.9-3.5,4.7c0,0.2-0.1,0.5-0.1,0.7
			c-0.1-0.1-0.2-0.1-0.3-0.2c-2.2-1.8-4.8-2.3-5.8-1.1c-0.9,1.2,0.1,3.6,2.4,5.4c0.2,0.2,0.4,0.3,0.6,0.4c-0.1,0-0.2,0.1-0.3,0.1
			c-2.7,1-4.4,3-3.8,4.4c0.5,1.4,3.2,1.7,5.8,0.6c0.2-0.1,0.5-0.2,0.7-0.3c0,0.1,0,0.2,0,0.3c-0.4,2.8,0.4,5.3,1.9,5.5
			c1.5,0.2,3-1.9,3.5-4.7c0-0.2,0.1-0.5,0.1-0.7c0.1,0.1,0.2,0.1,0.3,0.2c2.2,1.8,4.8,2.3,5.8,1.1
			C312.7,561.7,311.7,559.3,309.4,557.5z M303,559.4c-1.5-0.2-2.6-1.7-2.4-3.2c0.2-1.5,1.7-2.6,3.2-2.4c1.5,0.2,2.6,1.7,2.4,3.2
			C306,558.6,304.6,559.7,303,559.4z"/>
	</g>
	<g>
		<path class="st10" d="M1065.2,317.4h-61.5c-3.8,0-6.8,3.1-6.8,6.8V372c0,3.8,3.1,6.8,6.8,6.8h20.5l3.4,3.4l6.8,6.8l6.8-6.8
			l3.4-3.4h20.5c3.8,0,6.8-3.1,6.8-6.8v-47.8C1072,320.4,1068.9,317.4,1065.2,317.4z"/>
		<path class="st16" d="M1058.3,351.5v-6.8h-7.2c-0.4-2.2-1.3-4.2-2.5-6l5.1-5.1l-4.8-4.8l-5.1,5.1c-1.8-1.2-3.8-2.1-6-2.5v-7.2
			h-6.8v7.2c-2.2,0.4-4.2,1.3-6,2.5l-5.1-5.1l-4.8,4.8l5.1,5.1c-1.2,1.8-2.1,3.8-2.5,6h-7.2v6.8h7.2c0.4,2.2,1.3,4.2,2.5,6l-5.1,5.1
			l4.8,4.8l5.1-5.1c1.8,1.2,3.8,2,6,2.5v7.2h6.8v-7.2c2.2-0.4,4.2-1.3,6-2.5l5.1,5.1l4.8-4.8l-5.1-5.1c1.2-1.8,2.1-3.8,2.5-6
			L1058.3,351.5L1058.3,351.5z M1034.4,358.4c-5.7,0-10.3-4.6-10.3-10.3s4.6-10.3,10.3-10.3s10.3,4.6,10.3,10.3
			C1044.7,353.8,1040.1,358.4,1034.4,358.4z"/>
	</g>
	<path class="st2" d="M940,12c-19.9,0-36,16.1-36,36c0,19.9,36,74.4,36,74.4s36-54.5,36-74.4C976,28.1,959.9,12,940,12z M940,60.6
		c-5.9,0-10.6-4.8-10.6-10.6c0-5.9,4.8-10.6,10.6-10.6c5.9,0,10.7,4.8,10.7,10.6C950.7,55.9,945.9,60.6,940,60.6z"/>
	<g>
		<g>
			<path class="st14" d="M306.8,290.9v50.4c0,3.7,3,6.8,6.8,6.8h63.7c3.7,0,6.8-3,6.8-6.8v-15.1l3.4-3.4l6.8-6.8l-6.8-6.8l-3.4-3.4
				v-15c0-3.7-3-6.8-6.8-6.8h-63.7C309.8,284.1,306.8,287.1,306.8,290.9z"/>
		</g>
		<g>
			<path class="st16" d="M327.7,315v0.1l9.8,4.1v5.5l-15.1-7.4v-4.7l15.1-7.4v5.5L327.7,315z"/>
			<path class="st16" d="M343.7,328.7h-4.2l8.8-32.2h4.2L343.7,328.7z"/>
			<path class="st16" d="M365,315.1v-0.1l-9.9-4.2v-5.5l15.2,7.4v4.7l-15.2,7.4v-5.5L365,315.1z"/>
		</g>
	</g>
	<g>
		<path class="st10" d="M462.1,102.7h-65.1c-4,0-7.2,3.2-7.2,7.2v50.7c0,4,3.2,7.2,7.2,7.2h21.7l3.6,3.6l7.2,7.2l7.2-7.2l3.6-3.6
			h21.7c4,0,7.2-3.2,7.2-7.2V110C469.3,106,466.1,102.7,462.1,102.7z"/>
	</g>
	<g>
		<path class="st16" d="M417,154.9c-2.4-0.8-4.2-2.1-5.2-3.8c-1-1.8-1.6-3.9-1.6-6.3v-4.5c0-1.4-0.3-2.5-0.7-3.4
			c-0.5-0.8-1.2-1.2-2.3-1.2v-4.4c1,0,1.8-0.4,2.3-1.2c0.5-0.8,0.7-1.9,0.7-3.4v-4.5c0-2.5,0.5-4.6,1.6-6.3s2.8-3,5.2-3.8l1.2,3.4
			c-0.9,0.5-1.5,1.3-1.9,2.4s-0.5,2.6-0.5,4.3v4.5c0,1.5-0.3,2.9-0.9,4c-0.6,1.2-1.5,2.1-2.7,2.7c1.2,0.7,2.1,1.6,2.7,2.8
			c0.6,1.2,0.9,2.5,0.9,4v4.5c0,1.8,0.2,3.2,0.5,4.3c0.3,1.1,1,1.9,1.9,2.4L417,154.9z"/>
		<path class="st16" d="M439.7,151.4c0.9-0.5,1.5-1.2,1.9-2.4s0.6-2.6,0.6-4.3v-4.5c0-1.5,0.3-2.9,0.9-4c0.6-1.2,1.5-2.1,2.8-2.7
			c-1.2-0.6-2.2-1.5-2.8-2.7s-0.9-2.5-0.9-4v-4.5c0-1.8-0.2-3.2-0.6-4.3c-0.4-1.1-1-1.9-1.9-2.4l1.2-3.4c2.4,0.8,4.2,2.1,5.2,3.8
			c1,1.7,1.6,3.9,1.6,6.3v4.5c0,1.5,0.2,2.6,0.7,3.4s1.3,1.2,2.3,1.2v4.4c-1.1,0-1.8,0.4-2.3,1.2c-0.5,0.8-0.7,1.9-0.7,3.4v4.5
			c0,2.5-0.5,4.6-1.6,6.3c-1,1.8-2.8,3-5.2,3.8L439.7,151.4z"/>
	</g>
</g>
</svg>
